G04 Layer_Color=65535*
%FSLAX44Y44*%
%MOMM*%
G71*
G01*
G75*
%ADD31C,0.2000*%
%ADD32C,0.5000*%
%ADD101C,0.1000*%
%ADD102C,0.1500*%
%ADD104C,0.2500*%
%ADD106C,0.1200*%
G36*
X1025000Y655500D02*
X1020446Y663750D01*
X1029576D01*
X1025000Y655500D01*
D02*
G37*
G36*
X1112250Y530800D02*
X1105250Y535000D01*
X1112250Y539200D01*
Y530800D01*
D02*
G37*
G36*
X914001Y220999D02*
X902000Y221000D01*
X914000Y233000D01*
X914001Y220999D01*
D02*
G37*
G36*
X1110872Y974812D02*
X1100872D01*
X1106128Y984688D01*
X1110872Y974812D01*
D02*
G37*
G36*
X110872D02*
X100872D01*
X106128Y984688D01*
X110872Y974812D01*
D02*
G37*
G36*
X1025000Y775500D02*
X1020446Y783750D01*
X1029576D01*
X1025000Y775500D01*
D02*
G37*
G36*
X615600Y187250D02*
X611400Y194250D01*
X619799D01*
X615600Y187250D01*
D02*
G37*
G36*
X574500Y120000D02*
X566250Y115446D01*
Y124577D01*
X574500Y120000D01*
D02*
G37*
G36*
X683750Y115423D02*
X675500Y120000D01*
X683750Y124554D01*
Y115423D01*
D02*
G37*
G36*
X603000Y22000D02*
X596000Y29000D01*
X596320Y29064D01*
X606000Y32000D01*
X603000Y22000D01*
D02*
G37*
G36*
X356819Y165749D02*
X352469Y173000D01*
X361531Y173000D01*
X356819Y165749D01*
D02*
G37*
G36*
X356750Y134501D02*
X356750Y146000D01*
X368250Y146000D01*
X356750Y134501D01*
D02*
G37*
G36*
X930751Y128126D02*
X925750Y125125D01*
X925750Y131375D01*
X930751Y128126D01*
D02*
G37*
G36*
X284375Y1033644D02*
X277124Y1038356D01*
X284375Y1042706D01*
X284375Y1033644D01*
D02*
G37*
G36*
X220875Y1836644D02*
X213625Y1832294D01*
X213624Y1841356D01*
X220875Y1836644D01*
D02*
G37*
G36*
X977750Y1814500D02*
X977750Y1826000D01*
X989249Y1826000D01*
X977750Y1814500D01*
D02*
G37*
G36*
X225750Y1814500D02*
X225750Y1826000D01*
X237250Y1826000D01*
X225750Y1814500D01*
D02*
G37*
G36*
X1143872Y1878312D02*
X1139128Y1888188D01*
X1149128D01*
X1143872Y1878312D01*
D02*
G37*
G36*
X145872D02*
X141128Y1888188D01*
X151128D01*
X145872Y1878312D01*
D02*
G37*
G36*
X972876Y1836644D02*
X965625Y1832294D01*
X965624Y1841356D01*
X972876Y1836644D01*
D02*
G37*
G36*
X1036600Y1812250D02*
X1032400Y1819250D01*
X1040799D01*
X1036600Y1812250D01*
D02*
G37*
G36*
X1024250Y1049000D02*
X1012750Y1049000D01*
X1024250Y1060499D01*
X1024250Y1049000D01*
D02*
G37*
G36*
X272250D02*
X260751Y1049000D01*
X272250Y1060499D01*
X272250Y1049000D01*
D02*
G37*
G36*
X1036376Y1033644D02*
X1029125Y1038356D01*
X1036375Y1042706D01*
X1036376Y1033644D01*
D02*
G37*
G36*
X200600Y1812250D02*
X196400Y1819250D01*
X204799D01*
X200600Y1812250D01*
D02*
G37*
G36*
X1055600Y1055750D02*
X1047201D01*
X1051400Y1062750D01*
X1055600Y1055750D01*
D02*
G37*
G36*
X217600D02*
X209201D01*
X213400Y1062750D01*
X217600Y1055750D01*
D02*
G37*
D31*
X131250Y1528911D02*
X143750Y1538002D01*
X131250Y1547093D02*
X143750Y1538002D01*
X131250Y1528911D02*
Y1547093D01*
X143750Y1528750D02*
Y1547250D01*
X143750Y1538002D02*
X152750D01*
X122250Y1538000D02*
X131250D01*
X1106250Y1745998D02*
X1118750Y1755089D01*
X1106250Y1745998D02*
X1118750Y1736907D01*
Y1755089D01*
X1106250Y1736750D02*
Y1755250D01*
X1097250Y1745998D02*
X1106250D01*
X1118750Y1746000D02*
X1127750D01*
X1106250Y1369998D02*
X1118750Y1379089D01*
X1106250Y1369998D02*
X1118750Y1360907D01*
Y1379089D01*
X1106250Y1360750D02*
Y1379250D01*
X1097250Y1369998D02*
X1106250D01*
X1118750Y1370000D02*
X1127750D01*
X131250Y1152911D02*
X143750Y1162002D01*
X131250Y1171093D02*
X143750Y1162002D01*
X131250Y1152911D02*
Y1171093D01*
X143750Y1152750D02*
Y1171250D01*
X143750Y1162002D02*
X152750D01*
X122250Y1162000D02*
X131250D01*
X200998Y326750D02*
X210089Y314250D01*
X191907D02*
X200998Y326750D01*
X191907Y314250D02*
X210089D01*
X191750Y326750D02*
X210250D01*
X200998Y326750D02*
Y335750D01*
X201000Y305250D02*
Y314250D01*
D32*
X710000Y749991D02*
Y722000D01*
Y735995D01*
X691339D01*
Y749991D01*
Y722000D01*
X663348Y749991D02*
X682009D01*
Y735995D01*
X672679D01*
X682009D01*
Y722000D01*
X654018D02*
Y749991D01*
X640023D01*
X635358Y745326D01*
Y735995D01*
X640023Y731330D01*
X654018D01*
X626027Y749991D02*
Y722000D01*
X612032D01*
X607366Y726665D01*
Y731330D01*
X612032Y735995D01*
X626027D01*
X612032D01*
X607366Y740661D01*
Y745326D01*
X612032Y749991D01*
X626027D01*
X598036Y735995D02*
X579376D01*
X570045Y745326D02*
X565380Y749991D01*
X556050D01*
X551385Y745326D01*
Y726665D01*
X556050Y722000D01*
X565380D01*
X570045Y726665D01*
Y745326D01*
X542054Y722000D02*
X532724D01*
X537389D01*
Y749991D01*
X542054Y745326D01*
X900000Y805991D02*
Y778000D01*
Y791995D01*
X881339D01*
Y805991D01*
Y778000D01*
X872009Y805991D02*
X862679D01*
X867344D01*
Y778000D01*
X872009D01*
X862679D01*
X830023Y801326D02*
X834688Y805991D01*
X844018D01*
X848683Y801326D01*
Y782665D01*
X844018Y778000D01*
X834688D01*
X830023Y782665D01*
Y791995D01*
X839353D01*
X820692Y805991D02*
Y778000D01*
Y791995D01*
X802032D01*
Y805991D01*
Y778000D01*
X746050Y805991D02*
X764710D01*
Y791995D01*
X755380D01*
X764710D01*
Y778000D01*
X736720D02*
Y805991D01*
X722724D01*
X718059Y801326D01*
Y791995D01*
X722724Y787330D01*
X736720D01*
X727389D02*
X718059Y778000D01*
X690068Y805991D02*
X708728D01*
Y778000D01*
X690068D01*
X708728Y791995D02*
X699398D01*
X662077Y782665D02*
Y801326D01*
X666742Y805991D01*
X676072D01*
X680738Y801326D01*
Y782665D01*
X676072Y778000D01*
X666742D01*
X671407Y787330D02*
X662077Y778000D01*
X666742D02*
X662077Y782665D01*
X652747Y805991D02*
Y782665D01*
X648081Y778000D01*
X638751D01*
X634086Y782665D01*
Y805991D01*
X606095D02*
X624756D01*
Y778000D01*
X606095D01*
X624756Y791995D02*
X615425D01*
X596765Y778000D02*
Y805991D01*
X578104Y778000D01*
Y805991D01*
X550113Y801326D02*
X554778Y805991D01*
X564109D01*
X568774Y801326D01*
Y782665D01*
X564109Y778000D01*
X554778D01*
X550113Y782665D01*
X540783Y805991D02*
Y801326D01*
X531452Y791995D01*
X522122Y801326D01*
Y805991D01*
X531452Y791995D02*
Y778000D01*
X484801D02*
Y805991D01*
X470805D01*
X466140Y801326D01*
Y791995D01*
X470805Y787330D01*
X484801D01*
X442814Y805991D02*
X452145D01*
X456810Y801326D01*
Y782665D01*
X452145Y778000D01*
X442814D01*
X438149Y782665D01*
Y801326D01*
X442814Y805991D01*
X428819D02*
Y778000D01*
X419489Y787330D01*
X410158Y778000D01*
Y805991D01*
X382167D02*
X400828D01*
Y778000D01*
X382167D01*
X400828Y791995D02*
X391498D01*
X372837Y778000D02*
Y805991D01*
X358842D01*
X354176Y801326D01*
Y791995D01*
X358842Y787330D01*
X372837D01*
X363507D02*
X354176Y778000D01*
X316855Y805991D02*
Y778000D01*
X302860D01*
X298195Y782665D01*
Y787330D01*
X302860Y791995D01*
X316855D01*
X302860D01*
X298195Y796661D01*
Y801326D01*
X302860Y805991D01*
X316855D01*
X274869D02*
X284199D01*
X288864Y801326D01*
Y782665D01*
X284199Y778000D01*
X274869D01*
X270204Y782665D01*
Y801326D01*
X274869Y805991D01*
X260873Y778000D02*
Y796661D01*
X251543Y805991D01*
X242213Y796661D01*
Y778000D01*
Y791995D01*
X260873D01*
X232882Y778000D02*
Y805991D01*
X218887D01*
X214222Y801326D01*
Y791995D01*
X218887Y787330D01*
X232882D01*
X223552D02*
X214222Y778000D01*
X204891Y805991D02*
Y778000D01*
X190896D01*
X186231Y782665D01*
Y801326D01*
X190896Y805991D01*
X204891D01*
D101*
X1086000Y1581000D02*
Y1595000D01*
X1056000Y1581000D02*
Y1595000D01*
Y1581000D02*
X1086000D01*
X1056000Y1595000D02*
X1086000D01*
X314000Y1073000D02*
Y1093000D01*
X294000Y1073000D02*
X314000D01*
X294000Y1093000D02*
X314000D01*
X294000Y1092750D02*
Y1093000D01*
Y1073000D02*
Y1092750D01*
X370000Y1783000D02*
Y1802750D01*
Y1803000D01*
X390000D01*
X370000Y1783000D02*
X390000D01*
Y1803000D01*
X341000Y1073000D02*
Y1093000D01*
X321000Y1073000D02*
X341000D01*
X321000Y1093000D02*
X341000D01*
X321000Y1092750D02*
Y1093000D01*
Y1073000D02*
Y1092750D01*
X370000Y1734000D02*
Y1753750D01*
Y1754000D01*
X390000D01*
X370000Y1734000D02*
X390000D01*
Y1754000D01*
X880000Y1734000D02*
Y1754000D01*
X860000Y1734000D02*
X880000D01*
X860000Y1754000D02*
X880000D01*
X860000Y1753750D02*
Y1754000D01*
Y1734000D02*
Y1753750D01*
X909000Y1073000D02*
Y1092750D01*
Y1093000D01*
X929000D01*
X909000Y1073000D02*
X929000D01*
Y1093000D01*
X880000Y1783000D02*
Y1803000D01*
X860000Y1783000D02*
X880000D01*
X860000Y1803000D02*
X880000D01*
X860000Y1802750D02*
Y1803000D01*
Y1783000D02*
Y1802750D01*
X938000Y1073000D02*
Y1092750D01*
Y1093000D01*
X958000D01*
X938000Y1073000D02*
X958000D01*
Y1093000D01*
X653000Y313000D02*
Y343000D01*
X667000Y313000D02*
Y343000D01*
X653000Y313000D02*
X667000D01*
X653000Y343000D02*
X667000D01*
X677000Y343000D02*
X691000D01*
X677000Y313000D02*
X691000D01*
X691000D02*
Y343000D01*
X677000Y313000D02*
Y343000D01*
X656000Y291000D02*
Y305000D01*
X626000Y291000D02*
Y305000D01*
Y291000D02*
X656000D01*
X626000Y305000D02*
X656000D01*
X594000Y291000D02*
Y305000D01*
X624000Y291000D02*
Y305000D01*
X594000Y305000D02*
X624000D01*
X594000Y291000D02*
X624000D01*
X582000Y313000D02*
X596000D01*
X582000Y343000D02*
X596000D01*
X582000Y313000D02*
Y343000D01*
X596000Y313000D02*
Y343000D01*
X641500Y331500D02*
Y378500D01*
X608500D02*
X641500D01*
X608500Y331500D02*
Y378500D01*
Y331500D02*
X641500D01*
X525000Y353000D02*
X539000D01*
X525000Y383000D02*
X539000D01*
X525000Y353000D02*
Y383000D01*
X539000Y353000D02*
Y383000D01*
X525000Y343000D02*
X539000D01*
X525000Y313000D02*
X539000D01*
X539000D02*
Y343000D01*
X525000Y313000D02*
Y343000D01*
Y273000D02*
Y303000D01*
X539000Y273000D02*
Y303000D01*
X525000Y273000D02*
X539000D01*
X525000Y303000D02*
X539000D01*
X542000Y273000D02*
X556000D01*
X542000Y303000D02*
X556000D01*
X542000Y273000D02*
Y303000D01*
X556000Y273000D02*
Y303000D01*
X508000Y313000D02*
X522000D01*
X508000Y343000D02*
X522000D01*
X508000Y313000D02*
Y343000D01*
X522000Y313000D02*
Y343000D01*
Y273000D02*
Y303000D01*
X508000Y273000D02*
Y303000D01*
X508000D02*
X522000D01*
X508000Y273000D02*
X522000D01*
X562000Y265000D02*
X576000D01*
X562000Y235000D02*
X576000D01*
X576000D02*
Y265000D01*
X562000Y235000D02*
Y265000D01*
X578000Y265000D02*
X592000D01*
X578000Y235000D02*
X592000D01*
X592000D02*
Y265000D01*
X578000Y235000D02*
Y265000D01*
X626000Y235000D02*
X640000D01*
X626000Y265000D02*
X640000D01*
X626000Y235000D02*
Y265000D01*
X640000Y235000D02*
Y265000D01*
X675000Y305000D02*
X705000D01*
X675000Y291000D02*
X705000D01*
X675000Y291000D02*
Y305000D01*
X705000Y291000D02*
Y305000D01*
X733000Y351000D02*
X747000D01*
X733000Y381000D02*
X747000D01*
X733000Y351000D02*
Y381000D01*
X747000Y351000D02*
Y381000D01*
X773000Y351000D02*
X787000D01*
X773000Y381000D02*
X787000D01*
X773000Y351000D02*
Y381000D01*
X787000Y351000D02*
Y381000D01*
X813000Y351000D02*
X827000D01*
X813000Y381000D02*
X827000D01*
X813000Y351000D02*
Y381000D01*
X827000Y351000D02*
Y381000D01*
X853000Y351000D02*
X867000D01*
X853000Y381000D02*
X867000D01*
X853000Y351000D02*
Y381000D01*
X867000Y351000D02*
Y381000D01*
X724000Y291000D02*
Y321000D01*
X710000Y291000D02*
Y321000D01*
X710000D02*
X724000D01*
X710000Y291000D02*
X724000D01*
X853000Y345000D02*
X867000D01*
X853000Y315000D02*
X867000D01*
X867000D02*
Y345000D01*
X853000Y315000D02*
Y345000D01*
X852000Y185000D02*
X866000D01*
X852000Y215000D02*
X866000D01*
X852000Y185000D02*
Y215000D01*
X866000Y185000D02*
Y215000D01*
X868000Y185000D02*
X882000D01*
X868000Y215000D02*
X882000D01*
X868000Y185000D02*
Y215000D01*
X882000Y185000D02*
Y215000D01*
X884000Y185000D02*
X898000D01*
X884000Y215000D02*
X898000D01*
X884000Y185000D02*
Y215000D01*
X898000Y185000D02*
Y215000D01*
X900000Y185000D02*
X914000D01*
X900000Y215000D02*
X914000D01*
X900000Y185000D02*
Y215000D01*
X914000Y185000D02*
Y215000D01*
X921000Y201000D02*
Y215000D01*
X951000Y201000D02*
Y215000D01*
X921000Y215000D02*
X951000D01*
X921000Y201000D02*
X951000D01*
X921000Y185000D02*
Y199000D01*
X951000Y185000D02*
Y199000D01*
X921000Y199000D02*
X951000D01*
X921000Y185000D02*
X951000D01*
X921000Y217000D02*
Y231000D01*
X951000Y217000D02*
Y231000D01*
X921000Y231000D02*
X951000D01*
X921000Y217000D02*
X951000D01*
X951000Y265000D02*
Y279000D01*
X921000Y265000D02*
Y279000D01*
Y265000D02*
X951000D01*
X921000Y279000D02*
X951000D01*
X921000Y233000D02*
Y247000D01*
X951000Y233000D02*
Y247000D01*
X921000Y247000D02*
X951000D01*
X921000Y233000D02*
X951000D01*
X921000Y249000D02*
Y263000D01*
X951000Y249000D02*
Y263000D01*
X921000Y263000D02*
X951000D01*
X921000Y249000D02*
X951000D01*
X815000Y201000D02*
X845000D01*
X815000Y215000D02*
X845000D01*
Y201000D02*
Y215000D01*
X815000Y201000D02*
Y215000D01*
X555000Y150000D02*
X569000D01*
X555000Y180000D02*
X569000D01*
X555000Y150000D02*
Y180000D01*
X569000Y150000D02*
Y180000D01*
X573000Y180000D02*
X587000D01*
X573000Y150000D02*
X587000D01*
X587000D02*
Y180000D01*
X573000Y150000D02*
Y180000D01*
X591000Y150000D02*
X605000D01*
X591000Y180000D02*
X605000D01*
X591000Y150000D02*
Y180000D01*
X605000Y150000D02*
Y180000D01*
X645000Y150000D02*
X659000D01*
X645000Y180000D02*
X659000D01*
X645000Y150000D02*
Y180000D01*
X659000Y150000D02*
Y180000D01*
X663000Y150000D02*
X677000D01*
X663000Y180000D02*
X677000D01*
X663000Y150000D02*
Y180000D01*
X677000Y150000D02*
Y180000D01*
X302000Y323000D02*
Y353000D01*
X316000Y323000D02*
Y353000D01*
X302000Y323000D02*
X316000D01*
X302000Y353000D02*
X316000D01*
X322000D02*
X336000D01*
X322000Y323000D02*
X336000D01*
X336000D02*
Y353000D01*
X322000Y323000D02*
Y353000D01*
X335500Y272500D02*
Y319500D01*
X302500D02*
X335500D01*
X302500Y272500D02*
Y319500D01*
Y272500D02*
X335500D01*
X610000Y62000D02*
Y76000D01*
X640000Y62000D02*
Y76000D01*
X610000Y76000D02*
X640000D01*
X610000Y62000D02*
X640000D01*
X637500Y41000D02*
Y59000D01*
X612500Y41000D02*
Y59000D01*
X637500D01*
X612500Y41000D02*
X637500D01*
X640000Y24000D02*
Y38000D01*
X610000Y24000D02*
Y38000D01*
Y24000D02*
X640000D01*
X610000Y38000D02*
X640000D01*
X593000Y65000D02*
X607000D01*
X593000Y35000D02*
X607000D01*
X607000D02*
Y65000D01*
X593000Y35000D02*
Y65000D01*
X643000Y65000D02*
X657000D01*
X643000Y35000D02*
X657000D01*
X657000D02*
Y65000D01*
X643000Y35000D02*
Y65000D01*
X777000Y100500D02*
X805000Y100500D01*
X777000Y91500D02*
X805000Y91500D01*
Y100500D01*
X804000Y91500D02*
Y100500D01*
X777000Y91500D02*
Y100500D01*
X803000Y91500D02*
Y100500D01*
X805000Y68000D02*
Y82000D01*
X775000Y68000D02*
Y82000D01*
Y68000D02*
X805000D01*
X775000Y82000D02*
X805000D01*
X775000Y43000D02*
Y57000D01*
X805000Y43000D02*
Y57000D01*
X775000Y57000D02*
X805000D01*
X775000Y43000D02*
X805000D01*
X966000Y104000D02*
Y118000D01*
X934000Y104000D02*
Y118000D01*
Y104000D02*
X966000D01*
X934000Y118000D02*
X966000D01*
X1028000Y125000D02*
X1042000D01*
X1028000Y95000D02*
X1042000D01*
X1042000D02*
Y125000D01*
X1028000Y95000D02*
Y125000D01*
X1058000Y125000D02*
X1072000D01*
X1058000Y95000D02*
X1072000D01*
X1072000D02*
Y125000D01*
X1058000Y95000D02*
Y125000D01*
X421000Y285000D02*
X435000D01*
X421000Y315000D02*
X435000D01*
X421000Y285000D02*
Y315000D01*
X435000Y285000D02*
Y315000D01*
X445000Y91500D02*
X473000Y91500D01*
X445000Y100500D02*
X473000Y100500D01*
X445000Y91500D02*
Y100500D01*
X446000Y91500D02*
Y100500D01*
X473000Y91500D02*
Y100500D01*
X447000Y91500D02*
Y100500D01*
X445000Y68000D02*
Y82000D01*
X475000Y68000D02*
Y82000D01*
X445000Y82000D02*
X475000D01*
X445000Y68000D02*
X475000D01*
X475000Y43000D02*
Y57000D01*
X445000Y43000D02*
Y57000D01*
Y43000D02*
X475000D01*
X445000Y57000D02*
X475000D01*
X336000Y122000D02*
X350000D01*
X336000Y92000D02*
X350000D01*
X350000D02*
Y122000D01*
X336000Y92000D02*
Y122000D01*
Y134000D02*
X350000D01*
X336000Y164000D02*
X350000D01*
X336000Y134000D02*
Y164000D01*
X350000Y134000D02*
Y164000D01*
X320000Y134000D02*
X334000D01*
X320000Y164000D02*
X334000D01*
X320000Y134000D02*
Y164000D01*
X334000Y134000D02*
Y164000D01*
X320000Y122000D02*
X334000D01*
X320000Y92000D02*
X334000D01*
X334000D02*
Y122000D01*
X320000Y92000D02*
Y122000D01*
X246500Y91500D02*
X293500D01*
Y124500D01*
X246500D02*
X293500D01*
X246500Y91500D02*
Y124500D01*
X364000Y69000D02*
Y83000D01*
X394000Y69000D02*
Y83000D01*
X364000Y83000D02*
X394000D01*
X364000Y69000D02*
X394000D01*
X1054000Y545000D02*
X1068000D01*
X1054000Y515000D02*
X1068000D01*
X1068000D02*
Y545000D01*
X1054000Y515000D02*
Y545000D01*
X1076000Y560000D02*
X1106000D01*
X1076000Y546000D02*
X1106000D01*
X1076000Y546000D02*
Y560000D01*
X1106000Y546000D02*
Y560000D01*
X1078500Y521000D02*
Y539000D01*
X1103500Y521000D02*
Y539000D01*
X1078500Y521000D02*
X1103500D01*
X1078500Y539000D02*
X1103500D01*
X1106000Y500000D02*
Y514000D01*
X1076000Y500000D02*
Y514000D01*
Y500000D02*
X1106000D01*
X1076000Y514000D02*
X1106000D01*
X793000Y566000D02*
X807000D01*
X793000Y536000D02*
X807000D01*
X807000D02*
Y566000D01*
X793000Y536000D02*
Y566000D01*
X833000Y566000D02*
X847000D01*
X833000Y536000D02*
X847000D01*
X847000D02*
Y566000D01*
X833000Y536000D02*
Y566000D01*
X813000Y566000D02*
X827000D01*
X813000Y536000D02*
X827000D01*
X827000D02*
Y566000D01*
X813000Y536000D02*
Y566000D01*
X773000Y566000D02*
X787000D01*
X773000Y536000D02*
X787000D01*
X787000D02*
Y566000D01*
X773000Y536000D02*
Y566000D01*
X756000Y566000D02*
X770000D01*
X756000Y536000D02*
X770000D01*
X770000D02*
Y566000D01*
X756000Y536000D02*
Y566000D01*
X853000Y536000D02*
X867000D01*
X853000Y566000D02*
X867000D01*
X853000Y536000D02*
Y566000D01*
X867000Y536000D02*
Y566000D01*
X586000Y517000D02*
X600000D01*
X586000Y547000D02*
X600000D01*
X586000Y517000D02*
Y547000D01*
X600000Y517000D02*
Y547000D01*
X570000Y547000D02*
X584000D01*
X570000Y517000D02*
X584000D01*
X584000D02*
Y547000D01*
X570000Y517000D02*
Y547000D01*
X620000Y539000D02*
X630000D01*
X629500Y525000D02*
X640000D01*
Y539000D01*
X610000Y525000D02*
Y539000D01*
Y525000D02*
X620500D01*
X610000Y539000D02*
X611000D01*
X639000D02*
X640000D01*
X658000Y547000D02*
X672000D01*
X658000Y517000D02*
X672000D01*
X672000D02*
Y547000D01*
X658000Y517000D02*
Y547000D01*
X471000Y450000D02*
X485000D01*
X471000Y480000D02*
X485000D01*
X471000Y450000D02*
Y480000D01*
X485000Y450000D02*
Y480000D01*
X490000D02*
X504000D01*
X490000Y450000D02*
X504000D01*
X504000D02*
Y480000D01*
X490000Y450000D02*
Y480000D01*
X508000Y480000D02*
X522000D01*
X508000Y450000D02*
X522000D01*
X522000D02*
Y480000D01*
X508000Y450000D02*
Y480000D01*
X525000Y450000D02*
X539000D01*
X525000Y480000D02*
X539000D01*
X525000Y450000D02*
Y480000D01*
X539000Y450000D02*
Y480000D01*
X554000Y450000D02*
X568000D01*
X554000Y480000D02*
X568000D01*
X554000Y450000D02*
Y480000D01*
X568000Y450000D02*
Y480000D01*
X570000Y480000D02*
X584000D01*
X570000Y450000D02*
X584000D01*
X584000D02*
Y480000D01*
X570000Y450000D02*
Y480000D01*
X586000Y480000D02*
X600000D01*
X586000Y450000D02*
X600000D01*
X600000D02*
Y480000D01*
X586000Y450000D02*
Y480000D01*
X602000Y450000D02*
X616000D01*
X602000Y480000D02*
X616000D01*
X602000Y450000D02*
Y480000D01*
X616000Y450000D02*
Y480000D01*
X618000Y480000D02*
X632000D01*
X618000Y450000D02*
X632000D01*
X632000D02*
Y480000D01*
X618000Y450000D02*
Y480000D01*
X634000D02*
X648000D01*
X634000Y450000D02*
X648000D01*
X648000D02*
Y480000D01*
X634000Y450000D02*
Y480000D01*
X650000Y450000D02*
X664000D01*
X650000Y480000D02*
X664000D01*
X650000Y450000D02*
Y480000D01*
X664000Y450000D02*
Y480000D01*
X666000Y480000D02*
X680000D01*
X666000Y450000D02*
X680000D01*
X680000D02*
Y480000D01*
X666000Y450000D02*
Y480000D01*
X682000Y480000D02*
X696000D01*
X682000Y450000D02*
X696000D01*
X696000D02*
Y480000D01*
X682000Y450000D02*
Y480000D01*
X712000Y450000D02*
X726000D01*
X712000Y480000D02*
X726000D01*
X712000Y450000D02*
Y480000D01*
X726000Y450000D02*
Y480000D01*
X730000Y450000D02*
X744000D01*
X730000Y480000D02*
X744000D01*
X730000Y450000D02*
Y480000D01*
X744000Y450000D02*
Y480000D01*
X748000Y450000D02*
X762000D01*
X748000Y480000D02*
X762000D01*
X748000Y450000D02*
Y480000D01*
X762000Y450000D02*
Y480000D01*
X766000Y450000D02*
X780000D01*
X766000Y480000D02*
X780000D01*
X766000Y450000D02*
Y480000D01*
X780000Y450000D02*
Y480000D01*
X264000Y1721000D02*
Y1735000D01*
X234000Y1721000D02*
Y1735000D01*
Y1721000D02*
X264000D01*
X234000Y1735000D02*
X264000D01*
X210500Y1826500D02*
Y1873500D01*
X177500D02*
X210500D01*
X177500Y1826500D02*
Y1873500D01*
Y1826500D02*
X210500D01*
X367500D02*
Y1873500D01*
X334500D02*
X367500D01*
X334500Y1826500D02*
Y1873500D01*
Y1826500D02*
X367500D01*
X298000Y1859000D02*
Y1873000D01*
X328000Y1859000D02*
Y1873000D01*
X298000Y1873000D02*
X328000D01*
X298000Y1859000D02*
X328000D01*
X298000Y1841000D02*
X328000D01*
X298000Y1827000D02*
X328000D01*
X298000Y1827000D02*
Y1841000D01*
X328000Y1827000D02*
Y1841000D01*
X328000Y1806000D02*
Y1820000D01*
X298000Y1806000D02*
Y1820000D01*
Y1806000D02*
X328000D01*
X298000Y1820000D02*
X328000D01*
X328000Y1785000D02*
Y1799000D01*
X298000Y1785000D02*
Y1799000D01*
Y1785000D02*
X328000D01*
X298000Y1799000D02*
X328000D01*
X197500Y1791000D02*
Y1799000D01*
X216500Y1791000D02*
Y1799000D01*
X197500D02*
X216500D01*
X197500Y1791000D02*
X216500D01*
X161000Y1780000D02*
Y1810000D01*
X175000Y1780000D02*
Y1810000D01*
X161000Y1780000D02*
X175000D01*
X161000Y1810000D02*
X175000D01*
X178000Y1780000D02*
X192000D01*
X178000Y1810000D02*
X192000D01*
X178000Y1780000D02*
Y1810000D01*
X192000Y1780000D02*
Y1810000D01*
X158000Y1797000D02*
Y1811000D01*
X128000Y1797000D02*
Y1811000D01*
Y1797000D02*
X158000D01*
X128000Y1811000D02*
X158000D01*
X124000Y1797000D02*
Y1811000D01*
X94000Y1797000D02*
Y1811000D01*
Y1797000D02*
X124000D01*
X94000Y1811000D02*
X124000D01*
X128000Y1779000D02*
Y1793000D01*
X158000Y1779000D02*
Y1793000D01*
X128000Y1793000D02*
X158000D01*
X128000Y1779000D02*
X158000D01*
X94000D02*
Y1793000D01*
X124000Y1779000D02*
Y1793000D01*
X94000Y1793000D02*
X124000D01*
X94000Y1779000D02*
X124000D01*
X177500Y964500D02*
Y1011500D01*
Y964500D02*
X210500D01*
Y1011500D01*
X177500D02*
X210500D01*
X158000Y1064000D02*
Y1078000D01*
X128000Y1064000D02*
Y1078000D01*
Y1064000D02*
X158000D01*
X128000Y1078000D02*
X158000D01*
X124000Y1064000D02*
Y1078000D01*
X94000Y1064000D02*
Y1078000D01*
Y1064000D02*
X124000D01*
X94000Y1078000D02*
X124000D01*
X94000Y1082000D02*
Y1096000D01*
X124000Y1082000D02*
Y1096000D01*
X94000Y1096000D02*
X124000D01*
X94000Y1082000D02*
X124000D01*
X175000Y1065000D02*
Y1095000D01*
X161000Y1065000D02*
Y1095000D01*
X161000D02*
X175000D01*
X161000Y1065000D02*
X175000D01*
X178000Y1095000D02*
X192000D01*
X178000Y1065000D02*
X192000D01*
X192000D02*
Y1095000D01*
X178000Y1065000D02*
Y1095000D01*
X216500Y1076000D02*
Y1084000D01*
X197500Y1076000D02*
Y1084000D01*
Y1076000D02*
X216500D01*
X197500Y1084000D02*
X216500D01*
X234000Y1140000D02*
Y1154000D01*
X264000Y1140000D02*
Y1154000D01*
X234000Y1154000D02*
X264000D01*
X234000Y1140000D02*
X264000D01*
X264000Y1123000D02*
Y1137000D01*
X234000Y1123000D02*
Y1137000D01*
Y1123000D02*
X264000D01*
X234000Y1137000D02*
X264000D01*
Y1106000D02*
Y1120000D01*
X234000Y1106000D02*
Y1120000D01*
Y1106000D02*
X264000D01*
X234000Y1120000D02*
X264000D01*
X328000Y1039000D02*
Y1053000D01*
X298000Y1039000D02*
Y1053000D01*
Y1039000D02*
X328000D01*
X298000Y1053000D02*
X328000D01*
X328000Y1018000D02*
Y1032000D01*
X298000Y1018000D02*
Y1032000D01*
Y1018000D02*
X328000D01*
X298000Y1032000D02*
X328000D01*
X298000Y1011000D02*
X328000D01*
X298000Y997000D02*
X328000D01*
X298000Y997000D02*
Y1011000D01*
X328000Y997000D02*
Y1011000D01*
X298000Y965000D02*
Y979000D01*
X328000Y965000D02*
Y979000D01*
X298000Y979000D02*
X328000D01*
X298000Y965000D02*
X328000D01*
X334500Y964500D02*
Y1011500D01*
Y964500D02*
X367500D01*
Y1011500D01*
X334500D02*
X367500D01*
X212750Y1521750D02*
X285250D01*
Y1466250D02*
Y1521750D01*
X212750Y1466250D02*
Y1521750D01*
Y1466250D02*
X285250D01*
X212750Y1441750D02*
X285250D01*
Y1386250D02*
Y1441750D01*
X212750Y1386250D02*
Y1441750D01*
Y1386250D02*
X285250D01*
X915500Y1852500D02*
Y1899500D01*
X882500D02*
X915500D01*
X882500Y1852500D02*
Y1899500D01*
Y1852500D02*
X915500D01*
X952000Y1885000D02*
Y1899000D01*
X922000Y1885000D02*
Y1899000D01*
Y1885000D02*
X952000D01*
X922000Y1899000D02*
X952000D01*
X922000Y1853000D02*
X952000D01*
X922000Y1867000D02*
X952000D01*
Y1853000D02*
Y1867000D01*
X922000Y1853000D02*
Y1867000D01*
X922000Y1832000D02*
Y1846000D01*
X952000Y1832000D02*
Y1846000D01*
X922000Y1846000D02*
X952000D01*
X922000Y1832000D02*
X952000D01*
X922000Y1811000D02*
Y1825000D01*
X952000Y1811000D02*
Y1825000D01*
X922000Y1825000D02*
X952000D01*
X922000Y1811000D02*
X952000D01*
X986000Y1878000D02*
X1016000D01*
X986000Y1864000D02*
X1016000D01*
X986000Y1864000D02*
Y1878000D01*
X1016000Y1864000D02*
Y1878000D01*
X986000Y1847000D02*
Y1861000D01*
X1016000Y1847000D02*
Y1861000D01*
X986000Y1861000D02*
X1016000D01*
X986000Y1847000D02*
X1016000D01*
X1072500Y1852500D02*
Y1899500D01*
X1039500D02*
X1072500D01*
X1039500Y1852500D02*
Y1899500D01*
Y1852500D02*
X1072500D01*
X986000Y1755000D02*
Y1769000D01*
X1016000Y1755000D02*
Y1769000D01*
X986000Y1769000D02*
X1016000D01*
X986000Y1755000D02*
X1016000D01*
X986000Y1721000D02*
Y1735000D01*
X1016000Y1721000D02*
Y1735000D01*
X986000Y1735000D02*
X1016000D01*
X986000Y1721000D02*
X1016000D01*
X986000Y1738000D02*
Y1752000D01*
X1016000Y1738000D02*
Y1752000D01*
X986000Y1752000D02*
X1016000D01*
X986000Y1738000D02*
X1016000D01*
X1033500Y1791000D02*
Y1799000D01*
X1052500Y1791000D02*
Y1799000D01*
X1033500D02*
X1052500D01*
X1033500Y1791000D02*
X1052500D01*
X1058000Y1780000D02*
X1072000D01*
X1058000Y1810000D02*
X1072000D01*
X1058000Y1780000D02*
Y1810000D01*
X1072000Y1780000D02*
Y1810000D01*
X1075000Y1780000D02*
Y1810000D01*
X1089000Y1780000D02*
Y1810000D01*
X1075000Y1780000D02*
X1089000D01*
X1075000Y1810000D02*
X1089000D01*
X1092000Y1797000D02*
Y1811000D01*
X1122000Y1797000D02*
Y1811000D01*
X1092000Y1811000D02*
X1122000D01*
X1092000Y1797000D02*
X1122000D01*
X1126000D02*
Y1811000D01*
X1156000Y1797000D02*
Y1811000D01*
X1126000Y1811000D02*
X1156000D01*
X1126000Y1797000D02*
X1156000D01*
X1156000Y1779000D02*
Y1793000D01*
X1126000Y1779000D02*
Y1793000D01*
Y1779000D02*
X1156000D01*
X1126000Y1793000D02*
X1156000D01*
X1099500Y1695000D02*
Y1713000D01*
X1134500Y1695000D02*
Y1713000D01*
X1099500D02*
X1134500D01*
X1099500Y1695000D02*
X1134500D01*
X400750Y1575750D02*
X473250D01*
Y1520250D02*
Y1575750D01*
X400750Y1520250D02*
Y1575750D01*
Y1520250D02*
X473250D01*
X400750Y1387750D02*
X473250D01*
Y1332250D02*
Y1387750D01*
X400750Y1332250D02*
Y1387750D01*
Y1332250D02*
X473250D01*
X400750Y1199750D02*
X473250D01*
Y1144250D02*
Y1199750D01*
X400750Y1144250D02*
Y1199750D01*
Y1144250D02*
X473250D01*
X776750Y1199750D02*
X849250D01*
Y1144250D02*
Y1199750D01*
X776750Y1144250D02*
Y1199750D01*
Y1144250D02*
X849250D01*
X776750Y1575750D02*
X849250D01*
Y1520250D02*
Y1575750D01*
X776750Y1520250D02*
Y1575750D01*
Y1520250D02*
X849250D01*
X776750Y1387750D02*
X849250D01*
Y1332250D02*
Y1387750D01*
X776750Y1332250D02*
Y1387750D01*
Y1332250D02*
X849250D01*
X964750Y1441750D02*
X1037250D01*
Y1386250D02*
Y1441750D01*
X964750Y1386250D02*
Y1441750D01*
Y1386250D02*
X1037250D01*
X964750Y1521750D02*
X1037250D01*
Y1466250D02*
Y1521750D01*
X964750Y1466250D02*
Y1521750D01*
Y1466250D02*
X1037250D01*
X1132000Y1245000D02*
Y1259000D01*
X1102000Y1245000D02*
Y1259000D01*
Y1245000D02*
X1132000D01*
X1102000Y1259000D02*
X1132000D01*
X1086000Y1205000D02*
Y1219000D01*
X1056000Y1205000D02*
Y1219000D01*
Y1205000D02*
X1086000D01*
X1056000Y1219000D02*
X1086000D01*
X922000Y1037000D02*
Y1051000D01*
X952000Y1037000D02*
Y1051000D01*
X922000Y1051000D02*
X952000D01*
X922000Y1037000D02*
X952000D01*
X922000Y1019000D02*
X952000D01*
X922000Y1033000D02*
X952000D01*
Y1019000D02*
Y1033000D01*
X922000Y1019000D02*
Y1033000D01*
X952000Y987000D02*
Y1001000D01*
X922000Y987000D02*
Y1001000D01*
Y987000D02*
X952000D01*
X922000Y1001000D02*
X952000D01*
X882500Y986500D02*
Y1033500D01*
Y986500D02*
X915500D01*
Y1033500D01*
X882500D02*
X915500D01*
X1016000Y1140000D02*
Y1154000D01*
X986000Y1140000D02*
Y1154000D01*
Y1140000D02*
X1016000D01*
X986000Y1154000D02*
X1016000D01*
X1016000Y1123000D02*
Y1137000D01*
X986000Y1123000D02*
Y1137000D01*
Y1123000D02*
X1016000D01*
X986000Y1137000D02*
X1016000D01*
X1016000Y1106000D02*
Y1120000D01*
X986000Y1106000D02*
Y1120000D01*
Y1106000D02*
X1016000D01*
X986000Y1120000D02*
X1016000D01*
X986000Y997000D02*
X1016000D01*
X986000Y1011000D02*
X1016000D01*
Y997000D02*
Y1011000D01*
X986000Y997000D02*
Y1011000D01*
X1054500Y1076000D02*
Y1084000D01*
X1035500Y1076000D02*
Y1084000D01*
Y1076000D02*
X1054500D01*
X1035500Y1084000D02*
X1054500D01*
X1039500Y986500D02*
Y1033500D01*
Y986500D02*
X1072500D01*
Y1033500D01*
X1039500D02*
X1072500D01*
X1060000Y1095000D02*
X1074000D01*
X1060000Y1065000D02*
X1074000D01*
X1074000D02*
Y1095000D01*
X1060000Y1065000D02*
Y1095000D01*
X1091000Y1065000D02*
Y1095000D01*
X1077000Y1065000D02*
Y1095000D01*
X1077000D02*
X1091000D01*
X1077000Y1065000D02*
X1091000D01*
X1124000Y1082000D02*
Y1096000D01*
X1094000Y1082000D02*
Y1096000D01*
Y1082000D02*
X1124000D01*
X1094000Y1096000D02*
X1124000D01*
X1094000Y1064000D02*
Y1078000D01*
X1124000Y1064000D02*
Y1078000D01*
X1094000Y1078000D02*
X1124000D01*
X1094000Y1064000D02*
X1124000D01*
X1158000Y1082000D02*
Y1096000D01*
X1128000Y1082000D02*
Y1096000D01*
Y1082000D02*
X1158000D01*
X1128000Y1096000D02*
X1158000D01*
X1128000Y1064000D02*
Y1078000D01*
X1158000Y1064000D02*
Y1078000D01*
X1128000Y1078000D02*
X1158000D01*
X1128000Y1064000D02*
X1158000D01*
X1152000Y782000D02*
Y796000D01*
X1182000Y782000D02*
Y796000D01*
X1152000Y796000D02*
X1182000D01*
X1152000Y782000D02*
X1182000D01*
X1182000Y762000D02*
Y776000D01*
X1152000Y762000D02*
Y776000D01*
Y762000D02*
X1182000D01*
X1152000Y776000D02*
X1182000D01*
X1119000Y774000D02*
Y784000D01*
X1133000Y783500D02*
Y794000D01*
X1119000D02*
X1133000D01*
X1119000Y764000D02*
X1133000D01*
Y774500D01*
X1119000Y764000D02*
Y765000D01*
Y793000D02*
Y794000D01*
X1104500Y756500D02*
Y803500D01*
X1071500D02*
X1104500D01*
X1071500Y756500D02*
Y803500D01*
Y756500D02*
X1104500D01*
X968000Y688000D02*
Y718000D01*
X954000Y688000D02*
Y718000D01*
X954000D02*
X968000D01*
X954000Y688000D02*
X968000D01*
X954000Y752000D02*
X968000D01*
X954000Y722000D02*
X968000D01*
X968000D02*
Y752000D01*
X954000Y722000D02*
Y752000D01*
X975000Y722000D02*
Y752000D01*
X989000Y722000D02*
Y752000D01*
X975000Y722000D02*
X989000D01*
X975000Y752000D02*
X989000D01*
X975000Y688000D02*
Y718000D01*
X989000Y688000D02*
Y718000D01*
X975000Y688000D02*
X989000D01*
X975000Y718000D02*
X989000D01*
X1104500Y636500D02*
Y683500D01*
X1071500D02*
X1104500D01*
X1071500Y636500D02*
Y683500D01*
Y636500D02*
X1104500D01*
X1119000Y655000D02*
Y665000D01*
X1133000Y664500D02*
Y675000D01*
X1119000D02*
X1133000D01*
X1119000Y645000D02*
X1133000D01*
Y655500D01*
X1119000Y645000D02*
Y646000D01*
Y674000D02*
Y675000D01*
X1152000Y663000D02*
Y677000D01*
X1182000Y663000D02*
Y677000D01*
X1152000Y677000D02*
X1182000D01*
X1152000Y663000D02*
X1182000D01*
X1182000Y643000D02*
Y657000D01*
X1152000Y643000D02*
Y657000D01*
Y643000D02*
X1182000D01*
X1152000Y657000D02*
X1182000D01*
X39000Y692000D02*
X53000D01*
X39000Y662000D02*
X53000D01*
X53000D02*
Y692000D01*
X39000Y662000D02*
Y692000D01*
X57000Y662000D02*
X71000D01*
X57000Y692000D02*
X71000D01*
X57000Y662000D02*
Y692000D01*
X71000Y662000D02*
Y692000D01*
X75000D02*
X89000D01*
X75000Y662000D02*
X89000D01*
X89000D02*
Y692000D01*
X75000Y662000D02*
Y692000D01*
X93000Y662000D02*
X107000D01*
X93000Y692000D02*
X107000D01*
X93000Y662000D02*
Y692000D01*
X107000Y662000D02*
Y692000D01*
X111000Y692000D02*
X125000D01*
X111000Y662000D02*
X125000D01*
X125000D02*
Y692000D01*
X111000Y662000D02*
Y692000D01*
X137500Y662000D02*
X137500Y690000D01*
X128500Y662000D02*
X128500Y690000D01*
X128500Y662000D02*
X137500D01*
X128500Y663000D02*
X137500D01*
X128500Y690000D02*
X137500D01*
X128500Y664000D02*
X137500D01*
X141000Y662000D02*
X155000D01*
X141000Y692000D02*
X155000D01*
X141000Y662000D02*
Y692000D01*
X155000Y662000D02*
Y692000D01*
X813000Y345000D02*
X827000D01*
X813000Y315000D02*
X827000D01*
X827000D02*
Y345000D01*
X813000Y315000D02*
Y345000D01*
X815000Y233000D02*
Y247000D01*
X845000Y233000D02*
Y247000D01*
X815000Y247000D02*
X845000D01*
X815000Y233000D02*
X845000D01*
X815000Y217000D02*
Y231000D01*
X845000Y217000D02*
Y231000D01*
X815000Y231000D02*
X845000D01*
X815000Y217000D02*
X845000D01*
X845000Y249000D02*
Y263000D01*
X815000Y249000D02*
Y263000D01*
Y249000D02*
X845000D01*
X815000Y263000D02*
X845000D01*
X1122000Y1779000D02*
Y1793000D01*
X1092000Y1779000D02*
Y1793000D01*
Y1779000D02*
X1122000D01*
X1092000Y1793000D02*
X1122000D01*
X1099500Y1301000D02*
Y1319000D01*
X1134500Y1301000D02*
Y1319000D01*
X1099500D02*
X1134500D01*
X1099500Y1301000D02*
X1134500D01*
X1099500Y1319000D02*
Y1337000D01*
X1134500Y1319000D02*
Y1337000D01*
X1099500D02*
X1134500D01*
X1099500Y1319000D02*
X1134500D01*
X1099500Y1677000D02*
Y1695000D01*
X1134500Y1677000D02*
Y1695000D01*
X1099500D02*
X1134500D01*
X1099500Y1677000D02*
X1134500D01*
X1221000Y1363000D02*
Y1377000D01*
X1191000Y1363000D02*
Y1377000D01*
Y1363000D02*
X1221000D01*
X1191000Y1377000D02*
X1221000D01*
X1221000Y1739000D02*
Y1753000D01*
X1191000Y1739000D02*
Y1753000D01*
Y1739000D02*
X1221000D01*
X1191000Y1753000D02*
X1221000D01*
X29000Y1531000D02*
Y1545000D01*
X59000Y1531000D02*
Y1545000D01*
X29000Y1545000D02*
X59000D01*
X29000Y1531000D02*
X59000D01*
X29000Y1155000D02*
Y1169000D01*
X59000Y1155000D02*
Y1169000D01*
X29000Y1169000D02*
X59000D01*
X29000Y1155000D02*
X59000D01*
X115500Y1589000D02*
Y1607000D01*
X150500Y1589000D02*
Y1607000D01*
X115500D02*
X150500D01*
X115500Y1589000D02*
X150500D01*
X115500Y1571000D02*
Y1589000D01*
X150500Y1571000D02*
Y1589000D01*
X115500D02*
X150500D01*
X115500Y1571000D02*
X150500D01*
X115500Y1213000D02*
Y1231000D01*
X150500Y1213000D02*
Y1231000D01*
X115500D02*
X150500D01*
X115500Y1213000D02*
X150500D01*
X115500Y1195000D02*
Y1213000D01*
X150500Y1195000D02*
Y1213000D01*
X115500D02*
X150500D01*
X115500Y1195000D02*
X150500D01*
X194000Y1689000D02*
Y1703000D01*
X164000Y1689000D02*
Y1703000D01*
Y1689000D02*
X194000D01*
X164000Y1703000D02*
X194000D01*
X194000Y1313000D02*
Y1327000D01*
X164000Y1313000D02*
Y1327000D01*
Y1313000D02*
X194000D01*
X164000Y1327000D02*
X194000D01*
X128000Y1082000D02*
Y1096000D01*
X158000Y1082000D02*
Y1096000D01*
X128000Y1096000D02*
X158000D01*
X128000Y1082000D02*
X158000D01*
X349000Y289000D02*
X379000D01*
X349000Y275000D02*
X379000D01*
X349000Y275000D02*
Y289000D01*
X379000Y275000D02*
Y289000D01*
X610000Y95000D02*
X640000D01*
X610000Y109000D02*
X640000D01*
Y95000D02*
Y109000D01*
X610000Y95000D02*
Y109000D01*
X234000Y1878000D02*
X264000D01*
X234000Y1864000D02*
X264000D01*
X234000Y1864000D02*
Y1878000D01*
X264000Y1864000D02*
Y1878000D01*
X234000Y997000D02*
X264000D01*
X234000Y1011000D02*
X264000D01*
Y997000D02*
Y1011000D01*
X234000Y997000D02*
Y1011000D01*
X807500Y216500D02*
Y263500D01*
X774500D02*
X807500D01*
X774500Y216500D02*
Y263500D01*
Y216500D02*
X807500D01*
X733000Y345000D02*
X747000D01*
X733000Y315000D02*
X747000D01*
X747000D02*
Y345000D01*
X733000Y315000D02*
Y345000D01*
X773000Y345000D02*
X787000D01*
X773000Y315000D02*
X787000D01*
X787000D02*
Y345000D01*
X773000Y315000D02*
Y345000D01*
X365000Y172000D02*
Y186000D01*
X395000Y172000D02*
Y186000D01*
X365000Y186000D02*
X395000D01*
X365000Y172000D02*
X395000D01*
X640000Y313000D02*
Y327000D01*
X610000Y313000D02*
Y327000D01*
Y313000D02*
X640000D01*
X610000Y327000D02*
X640000D01*
X580000Y384000D02*
Y398000D01*
X610000Y384000D02*
Y398000D01*
X580000Y398000D02*
X610000D01*
X580000Y384000D02*
X610000D01*
X653000Y398000D02*
X667000D01*
X653000Y368000D02*
X667000D01*
X667000D02*
Y398000D01*
X653000Y368000D02*
Y398000D01*
X610000Y129000D02*
Y143000D01*
X640000Y129000D02*
Y143000D01*
X610000Y143000D02*
X640000D01*
X610000Y129000D02*
X640000D01*
X610000Y112000D02*
Y126000D01*
X640000Y112000D02*
Y126000D01*
X610000Y126000D02*
X640000D01*
X610000Y112000D02*
X640000D01*
X1016000Y1014000D02*
Y1028000D01*
X986000Y1014000D02*
Y1028000D01*
Y1014000D02*
X1016000D01*
X986000Y1028000D02*
X1016000D01*
X1132000Y1259000D02*
Y1273000D01*
X1102000Y1259000D02*
Y1273000D01*
Y1259000D02*
X1132000D01*
X1102000Y1273000D02*
X1132000D01*
X1102000Y1287000D02*
Y1301000D01*
X1132000Y1287000D02*
Y1301000D01*
X1102000Y1301000D02*
X1132000D01*
X1102000Y1287000D02*
X1132000D01*
X1132000Y1621000D02*
Y1635000D01*
X1102000Y1621000D02*
Y1635000D01*
Y1621000D02*
X1132000D01*
X1102000Y1635000D02*
X1132000D01*
X1102000Y1649000D02*
Y1663000D01*
X1132000Y1649000D02*
Y1663000D01*
X1102000Y1663000D02*
X1132000D01*
X1102000Y1649000D02*
X1132000D01*
X1102000Y1273000D02*
Y1287000D01*
X1132000Y1273000D02*
Y1287000D01*
X1102000Y1287000D02*
X1132000D01*
X1102000Y1273000D02*
X1132000D01*
X1132000Y1635000D02*
Y1649000D01*
X1102000Y1635000D02*
Y1649000D01*
Y1635000D02*
X1132000D01*
X1102000Y1649000D02*
X1132000D01*
X1102000Y1663000D02*
Y1677000D01*
X1132000Y1663000D02*
Y1677000D01*
X1102000Y1677000D02*
X1132000D01*
X1102000Y1663000D02*
X1132000D01*
X118000Y1649000D02*
Y1663000D01*
X148000Y1649000D02*
Y1663000D01*
X118000Y1663000D02*
X148000D01*
X118000Y1649000D02*
X148000D01*
X148000Y1607000D02*
Y1621000D01*
X118000Y1607000D02*
Y1621000D01*
Y1607000D02*
X148000D01*
X118000Y1621000D02*
X148000D01*
X118000Y1273000D02*
Y1287000D01*
X148000Y1273000D02*
Y1287000D01*
X118000Y1287000D02*
X148000D01*
X118000Y1273000D02*
X148000D01*
X148000Y1231000D02*
Y1245000D01*
X118000Y1231000D02*
Y1245000D01*
Y1231000D02*
X148000D01*
X118000Y1245000D02*
X148000D01*
X118000Y1635000D02*
Y1649000D01*
X148000Y1635000D02*
Y1649000D01*
X118000Y1649000D02*
X148000D01*
X118000Y1635000D02*
X148000D01*
X148000Y1621000D02*
Y1635000D01*
X118000Y1621000D02*
Y1635000D01*
Y1621000D02*
X148000D01*
X118000Y1635000D02*
X148000D01*
X118000Y1259000D02*
Y1273000D01*
X148000Y1259000D02*
Y1273000D01*
X118000Y1273000D02*
X148000D01*
X118000Y1259000D02*
X148000D01*
X148000Y1245000D02*
Y1259000D01*
X118000Y1245000D02*
Y1259000D01*
Y1245000D02*
X148000D01*
X118000Y1259000D02*
X148000D01*
X234000Y1738000D02*
Y1752000D01*
X264000Y1738000D02*
Y1752000D01*
X234000Y1752000D02*
X264000D01*
X234000Y1738000D02*
X264000D01*
X234000Y1755000D02*
Y1769000D01*
X264000Y1755000D02*
Y1769000D01*
X234000Y1769000D02*
X264000D01*
X234000Y1755000D02*
X264000D01*
X234000Y1847000D02*
Y1861000D01*
X264000Y1847000D02*
Y1861000D01*
X234000Y1861000D02*
X264000D01*
X234000Y1847000D02*
X264000D01*
X264000Y1014000D02*
Y1028000D01*
X234000Y1014000D02*
Y1028000D01*
Y1014000D02*
X264000D01*
X234000Y1028000D02*
X264000D01*
X610000Y235000D02*
X624000D01*
X610000Y265000D02*
X624000D01*
X610000Y235000D02*
Y265000D01*
X624000Y235000D02*
Y265000D01*
X594000Y265000D02*
X608000D01*
X594000Y235000D02*
X608000D01*
X608000D02*
Y265000D01*
X594000Y235000D02*
Y265000D01*
X922000Y1055000D02*
Y1069000D01*
X952000Y1055000D02*
Y1069000D01*
X922000Y1069000D02*
X952000D01*
X922000Y1055000D02*
X952000D01*
D102*
X638750Y180500D02*
X640500D01*
X638750Y149500D02*
X640500D01*
X609500D02*
X611250D01*
X609500Y180500D02*
X611250D01*
X640500Y149500D02*
Y180500D01*
X609500Y149500D02*
Y180500D01*
X550250Y127250D02*
X592500D01*
X550250Y112750D02*
X592500D01*
X550250D02*
Y127250D01*
X657500Y112750D02*
X699750D01*
X657500Y127250D02*
X699750D01*
Y112750D02*
Y127250D01*
X943000Y140000D02*
X943000Y136000D01*
X957000Y132000D02*
Y140000D01*
X943000Y151200D02*
X957000D01*
X943000Y120800D02*
X957000D01*
X403250Y110000D02*
Y146000D01*
X356750Y110000D02*
Y146000D01*
X403250D01*
X356750Y110000D02*
X403250D01*
X99365Y1819500D02*
Y1872500D01*
X112635D02*
X139365D01*
X152635Y1819500D02*
Y1872500D01*
X112635Y1819500D02*
X139365D01*
X272250Y1790000D02*
Y1826000D01*
X225750Y1790000D02*
Y1826000D01*
X272250D01*
X225750Y1790000D02*
X272250D01*
X152635Y990500D02*
Y1043500D01*
X112635Y990500D02*
X139365D01*
X99365D02*
Y1043500D01*
X112635D02*
X139365D01*
X225750Y1049000D02*
Y1085000D01*
X272250Y1049000D02*
Y1085000D01*
X225750Y1049000D02*
X272250D01*
X225750Y1085000D02*
X272250D01*
X1024250Y1790000D02*
Y1826000D01*
X977750Y1790000D02*
Y1826000D01*
X1024250D01*
X977750Y1790000D02*
X1024250D01*
X1097365Y1819500D02*
Y1872500D01*
X1110635D02*
X1137365D01*
X1150635Y1819500D02*
Y1872500D01*
X1110635Y1819500D02*
X1137365D01*
X921750Y1588750D02*
X1036965D01*
X921750D02*
Y1695250D01*
X1036965D01*
Y1588750D02*
Y1695250D01*
X921750Y1212750D02*
X1036965D01*
X921750D02*
Y1319250D01*
X1036965D01*
Y1212750D02*
Y1319250D01*
X977750Y1049000D02*
Y1085000D01*
X1024250Y1049000D02*
Y1085000D01*
X977750Y1049000D02*
X1024250D01*
X977750Y1085000D02*
X1024250D01*
X1152635Y990500D02*
Y1043500D01*
X1112635Y990500D02*
X1139365D01*
X1099365D02*
Y1043500D01*
X1112635D02*
X1139365D01*
X1017750Y797250D02*
X1032250D01*
Y759750D02*
Y797250D01*
X1017750Y759750D02*
Y797250D01*
Y677250D02*
X1032250D01*
Y639750D02*
Y677250D01*
X1017750Y639750D02*
Y677250D01*
X852000Y283000D02*
X914000D01*
X852000Y221000D02*
Y283000D01*
X914000Y221000D02*
Y283000D01*
X852000Y221000D02*
X914000D01*
X213035Y1695250D02*
X328250D01*
Y1588750D02*
Y1695250D01*
X213035Y1588750D02*
X328250D01*
X213035D02*
Y1695250D01*
X213035Y1319250D02*
X328250D01*
Y1212750D02*
Y1319250D01*
X213035Y1212750D02*
X328250D01*
X213035D02*
Y1319250D01*
D104*
X589750Y113250D02*
Y126750D01*
X592250Y113250D02*
Y126750D01*
X660250Y113250D02*
Y126750D01*
X657750Y113250D02*
Y126750D01*
X1018250Y762250D02*
X1031750D01*
X1018250Y759750D02*
X1031750D01*
X1018250Y642250D02*
X1031750D01*
X1018250Y639750D02*
X1031750D01*
D106*
X102000Y1555300D02*
Y1568500D01*
X172000D01*
Y1507500D02*
Y1520700D01*
X102000Y1507500D02*
X172000D01*
X102000D02*
Y1520700D01*
X172000Y1555300D02*
Y1568500D01*
X1148000Y1715500D02*
Y1728700D01*
X1078000Y1715500D02*
X1148000D01*
X1078000Y1763300D02*
Y1776500D01*
X1148000D01*
Y1763300D02*
Y1776500D01*
X1078000Y1715500D02*
Y1728700D01*
X1148000Y1339500D02*
Y1352700D01*
X1078000Y1339500D02*
X1148000D01*
X1078000Y1387300D02*
Y1400000D01*
X1148000D01*
Y1387300D02*
Y1400000D01*
X1078000Y1339500D02*
Y1352700D01*
X102000Y1179300D02*
Y1192500D01*
X172000D01*
Y1131500D02*
Y1144700D01*
X102000Y1131500D02*
X172000D01*
X102000D02*
Y1144700D01*
X172000Y1179300D02*
Y1192500D01*
X170500Y285000D02*
X183700D01*
X170500D02*
Y355000D01*
X218300D02*
X231500D01*
Y285000D02*
Y355000D01*
X218300Y285000D02*
X231500D01*
X170500Y355000D02*
X183700D01*
X1086000Y1566000D02*
Y1577996D01*
X1080002D01*
X1078003Y1575997D01*
Y1571998D01*
X1080002Y1569999D01*
X1086000D01*
X1082001D02*
X1078003Y1566000D01*
X1074004Y1567999D02*
X1072004Y1566000D01*
X1068006D01*
X1066006Y1567999D01*
Y1575997D01*
X1068006Y1577996D01*
X1072004D01*
X1074004Y1575997D01*
Y1573997D01*
X1072004Y1571998D01*
X1066006D01*
X1062008Y1575997D02*
X1060008Y1577996D01*
X1056010D01*
X1054010Y1575997D01*
Y1567999D01*
X1056010Y1566000D01*
X1060008D01*
X1062008Y1567999D01*
Y1575997D01*
X687997Y355997D02*
X689996Y353998D01*
Y349999D01*
X687997Y348000D01*
X679999D01*
X678000Y349999D01*
Y353998D01*
X679999Y355997D01*
X678000Y367994D02*
Y359996D01*
X685997Y367994D01*
X687997D01*
X689996Y365994D01*
Y361996D01*
X687997Y359996D01*
X678000Y377990D02*
X689996D01*
X683998Y371992D01*
Y379990D01*
X655003Y284997D02*
X657002Y286996D01*
X661001D01*
X663000Y284997D01*
Y276999D01*
X661001Y275000D01*
X657002D01*
X655003Y276999D01*
X643007Y275000D02*
X651004D01*
X643007Y282997D01*
Y284997D01*
X645006Y286996D01*
X649005D01*
X651004Y284997D01*
X639008D02*
X637008Y286996D01*
X633010D01*
X631010Y284997D01*
Y282997D01*
X633010Y280998D01*
X631010Y278999D01*
Y276999D01*
X633010Y275000D01*
X637008D01*
X639008Y276999D01*
Y278999D01*
X637008Y280998D01*
X639008Y282997D01*
Y284997D01*
X637008Y280998D02*
X633010D01*
X618003Y284997D02*
X620002Y286996D01*
X624001D01*
X626000Y284997D01*
Y276999D01*
X624001Y275000D01*
X620002D01*
X618003Y276999D01*
X606007Y275000D02*
X614004D01*
X606007Y282997D01*
Y284997D01*
X608006Y286996D01*
X612005D01*
X614004Y284997D01*
X602008Y286996D02*
X594010D01*
Y284997D01*
X602008Y276999D01*
Y275000D01*
X574997Y319997D02*
X576996Y317998D01*
Y313999D01*
X574997Y312000D01*
X566999D01*
X565000Y313999D01*
Y317998D01*
X566999Y319997D01*
X565000Y331993D02*
Y323996D01*
X572997Y331993D01*
X574997D01*
X576996Y329994D01*
Y325995D01*
X574997Y323996D01*
Y335992D02*
X576996Y337992D01*
Y341990D01*
X574997Y343990D01*
X572997D01*
X570998Y341990D01*
Y339991D01*
Y341990D01*
X568999Y343990D01*
X566999D01*
X565000Y341990D01*
Y337992D01*
X566999Y335992D01*
X601997Y354997D02*
X603996Y352998D01*
Y348999D01*
X601997Y347000D01*
X593999D01*
X592000Y348999D01*
Y352998D01*
X593999Y354997D01*
X592000Y366993D02*
Y358996D01*
X599997Y366993D01*
X601997D01*
X603996Y364994D01*
Y360995D01*
X601997Y358996D01*
X603996Y378990D02*
Y370992D01*
X597998D01*
X599997Y374991D01*
Y376990D01*
X597998Y378990D01*
X593999D01*
X592000Y376990D01*
Y372992D01*
X593999Y370992D01*
X525000Y389000D02*
X536996D01*
Y394998D01*
X534997Y396997D01*
X530998D01*
X528999Y394998D01*
Y389000D01*
Y392999D02*
X525000Y396997D01*
X536996Y408993D02*
Y400996D01*
X530998D01*
X532997Y404995D01*
Y406994D01*
X530998Y408993D01*
X526999D01*
X525000Y406994D01*
Y402995D01*
X526999Y400996D01*
X536996Y420990D02*
Y412992D01*
X530998D01*
X532997Y416991D01*
Y418990D01*
X530998Y420990D01*
X526999D01*
X525000Y418990D01*
Y414992D01*
X526999Y412992D01*
X526000Y237000D02*
X537996D01*
Y242998D01*
X535997Y244997D01*
X531998D01*
X529999Y242998D01*
Y237000D01*
Y240999D02*
X526000Y244997D01*
X535997Y248996D02*
X537996Y250996D01*
Y254994D01*
X535997Y256994D01*
X533997D01*
X531998Y254994D01*
X529999Y256994D01*
X527999D01*
X526000Y254994D01*
Y250996D01*
X527999Y248996D01*
X529999D01*
X531998Y250996D01*
X533997Y248996D01*
X535997D01*
X531998Y250996D02*
Y254994D01*
X526000Y268990D02*
Y260992D01*
X533997Y268990D01*
X535997D01*
X537996Y266990D01*
Y262992D01*
X535997Y260992D01*
X559000Y274000D02*
X570996D01*
Y279998D01*
X568997Y281997D01*
X564998D01*
X562999Y279998D01*
Y274000D01*
Y277999D02*
X559000Y281997D01*
X568997Y285996D02*
X570996Y287995D01*
Y291994D01*
X568997Y293993D01*
X566997D01*
X564998Y291994D01*
X562999Y293993D01*
X560999D01*
X559000Y291994D01*
Y287995D01*
X560999Y285996D01*
X562999D01*
X564998Y287995D01*
X566997Y285996D01*
X568997D01*
X564998Y287995D02*
Y291994D01*
X568997Y297992D02*
X570996Y299992D01*
Y303990D01*
X568997Y305990D01*
X560999D01*
X559000Y303990D01*
Y299992D01*
X560999Y297992D01*
X568997D01*
X491000Y313000D02*
X502996D01*
Y318998D01*
X500997Y320997D01*
X496998D01*
X494999Y318998D01*
Y313000D01*
Y316999D02*
X491000Y320997D01*
Y330994D02*
X502996D01*
X496998Y324996D01*
Y332994D01*
X491000Y342990D02*
X502996D01*
X496998Y336992D01*
Y344990D01*
X500997Y280997D02*
X502996Y278998D01*
Y274999D01*
X500997Y273000D01*
X492999D01*
X491000Y274999D01*
Y278998D01*
X492999Y280997D01*
X491000Y290994D02*
X502996D01*
X496998Y284996D01*
Y292994D01*
X502996Y304990D02*
X500997Y300991D01*
X496998Y296992D01*
X492999D01*
X491000Y298992D01*
Y302990D01*
X492999Y304990D01*
X494999D01*
X496998Y302990D01*
Y296992D01*
X547000Y235000D02*
X558996D01*
Y240998D01*
X556997Y242997D01*
X552998D01*
X550999Y240998D01*
Y235000D01*
Y238999D02*
X547000Y242997D01*
X558996Y254993D02*
X556997Y250995D01*
X552998Y246996D01*
X548999D01*
X547000Y248995D01*
Y252994D01*
X548999Y254993D01*
X550999D01*
X552998Y252994D01*
Y246996D01*
X556997Y258992D02*
X558996Y260992D01*
Y264990D01*
X556997Y266990D01*
X554997D01*
X552998Y264990D01*
X550999Y266990D01*
X548999D01*
X547000Y264990D01*
Y260992D01*
X548999Y258992D01*
X550999D01*
X552998Y260992D01*
X554997Y258992D01*
X556997D01*
X552998Y260992D02*
Y264990D01*
X588997Y275997D02*
X590996Y273998D01*
Y269999D01*
X588997Y268000D01*
X580999D01*
X579000Y269999D01*
Y273998D01*
X580999Y275997D01*
X579000Y285994D02*
X590996D01*
X584998Y279996D01*
Y287994D01*
X588997Y291992D02*
X590996Y293992D01*
Y297990D01*
X588997Y299990D01*
X580999D01*
X579000Y297990D01*
Y293992D01*
X580999Y291992D01*
X588997D01*
X643000Y235000D02*
X654996D01*
Y240998D01*
X652997Y242997D01*
X648998D01*
X646999Y240998D01*
Y235000D01*
Y238999D02*
X643000Y242997D01*
X654996Y254993D02*
X652997Y250995D01*
X648998Y246996D01*
X644999D01*
X643000Y248995D01*
Y252994D01*
X644999Y254993D01*
X646999D01*
X648998Y252994D01*
Y246996D01*
X652997Y258992D02*
X654996Y260992D01*
Y264990D01*
X652997Y266990D01*
X650997D01*
X648998Y264990D01*
Y262991D01*
Y264990D01*
X646999Y266990D01*
X644999D01*
X643000Y264990D01*
Y260992D01*
X644999Y258992D01*
X697003Y284997D02*
X699002Y286996D01*
X703001D01*
X705000Y284997D01*
Y276999D01*
X703001Y275000D01*
X699002D01*
X697003Y276999D01*
X693004Y284997D02*
X691004Y286996D01*
X687006D01*
X685006Y284997D01*
Y282997D01*
X687006Y280998D01*
X689005D01*
X687006D01*
X685006Y278999D01*
Y276999D01*
X687006Y275000D01*
X691004D01*
X693004Y276999D01*
X681008Y284997D02*
X679008Y286996D01*
X675010D01*
X673010Y284997D01*
Y276999D01*
X675010Y275000D01*
X679008D01*
X681008Y276999D01*
Y284997D01*
X734000Y385000D02*
X745996D01*
Y390998D01*
X743997Y392997D01*
X739998D01*
X737999Y390998D01*
Y385000D01*
Y388999D02*
X734000Y392997D01*
Y404994D02*
Y396996D01*
X741997Y404994D01*
X743997D01*
X745996Y402994D01*
Y398996D01*
X743997Y396996D01*
X734000Y416990D02*
Y408992D01*
X741997Y416990D01*
X743997D01*
X745996Y414990D01*
Y410992D01*
X743997Y408992D01*
X774000Y385000D02*
X785996D01*
Y390998D01*
X783997Y392997D01*
X779998D01*
X777999Y390998D01*
Y385000D01*
Y388999D02*
X774000Y392997D01*
Y404994D02*
Y396996D01*
X781997Y404994D01*
X783997D01*
X785996Y402994D01*
Y398996D01*
X783997Y396996D01*
X814000Y385000D02*
X825996D01*
Y390998D01*
X823997Y392997D01*
X819998D01*
X817999Y390998D01*
Y385000D01*
Y388999D02*
X814000Y392997D01*
X825996Y396996D02*
Y404994D01*
X823997D01*
X815999Y396996D01*
X814000D01*
X825996Y416990D02*
Y408992D01*
X819998D01*
X821997Y412991D01*
Y414990D01*
X819998Y416990D01*
X815999D01*
X814000Y414990D01*
Y410992D01*
X815999Y408992D01*
X853000Y385000D02*
X864996D01*
Y390998D01*
X862997Y392997D01*
X858998D01*
X856999Y390998D01*
Y385000D01*
Y388999D02*
X853000Y392997D01*
X864996Y396996D02*
Y404994D01*
X862997D01*
X854999Y396996D01*
X853000D01*
Y414990D02*
X864996D01*
X858998Y408992D01*
Y416990D01*
X711000Y255000D02*
X722996D01*
Y260998D01*
X720997Y262997D01*
X716998D01*
X714999Y260998D01*
Y255000D01*
Y258999D02*
X711000Y262997D01*
Y272994D02*
X722996D01*
X716998Y266996D01*
Y274993D01*
X720997Y278992D02*
X722996Y280992D01*
Y284990D01*
X720997Y286990D01*
X718997D01*
X716998Y284990D01*
Y282991D01*
Y284990D01*
X714999Y286990D01*
X712999D01*
X711000Y284990D01*
Y280992D01*
X712999Y278992D01*
X862997Y156997D02*
X864996Y154998D01*
Y150999D01*
X862997Y149000D01*
X854999D01*
X853000Y150999D01*
Y154998D01*
X854999Y156997D01*
X862997Y160996D02*
X864996Y162995D01*
Y166994D01*
X862997Y168993D01*
X860997D01*
X858998Y166994D01*
Y164995D01*
Y166994D01*
X856999Y168993D01*
X854999D01*
X853000Y166994D01*
Y162995D01*
X854999Y160996D01*
X864996Y172992D02*
Y180990D01*
X862997D01*
X854999Y172992D01*
X853000D01*
X878997Y156997D02*
X880996Y154998D01*
Y150999D01*
X878997Y149000D01*
X870999D01*
X869000Y150999D01*
Y154998D01*
X870999Y156997D01*
X878997Y160996D02*
X880996Y162995D01*
Y166994D01*
X878997Y168993D01*
X876997D01*
X874998Y166994D01*
Y164995D01*
Y166994D01*
X872999Y168993D01*
X870999D01*
X869000Y166994D01*
Y162995D01*
X870999Y160996D01*
Y172992D02*
X869000Y174992D01*
Y178990D01*
X870999Y180990D01*
X878997D01*
X880996Y178990D01*
Y174992D01*
X878997Y172992D01*
X876997D01*
X874998Y174992D01*
Y180990D01*
X885000Y149000D02*
X896996D01*
Y154998D01*
X894997Y156997D01*
X890998D01*
X888999Y154998D01*
Y149000D01*
Y152999D02*
X885000Y156997D01*
X896996Y160996D02*
Y168993D01*
X894997D01*
X886999Y160996D01*
X885000D01*
X894997Y172992D02*
X896996Y174992D01*
Y178990D01*
X894997Y180990D01*
X892997D01*
X890998Y178990D01*
Y176991D01*
Y178990D01*
X888999Y180990D01*
X886999D01*
X885000Y178990D01*
Y174992D01*
X886999Y172992D01*
X901000Y149000D02*
X912996D01*
Y154998D01*
X910997Y156997D01*
X906998D01*
X904999Y154998D01*
Y149000D01*
Y152999D02*
X901000Y156997D01*
X912996Y168993D02*
X910997Y164995D01*
X906998Y160996D01*
X902999D01*
X901000Y162995D01*
Y166994D01*
X902999Y168993D01*
X904999D01*
X906998Y166994D01*
Y160996D01*
X912996Y172992D02*
Y180990D01*
X910997D01*
X902999Y172992D01*
X901000D01*
X982000Y203000D02*
Y212997D01*
X977002D01*
X975335Y211331D01*
Y207998D01*
X977002Y206332D01*
X982000D01*
X978668D02*
X975335Y203000D01*
X965339Y212997D02*
X972003D01*
Y207998D01*
X968671Y209664D01*
X967005D01*
X965339Y207998D01*
Y204666D01*
X967005Y203000D01*
X970337D01*
X972003Y204666D01*
X962006D02*
X960340Y203000D01*
X957008D01*
X955342Y204666D01*
Y211331D01*
X957008Y212997D01*
X960340D01*
X962006Y211331D01*
Y209664D01*
X960340Y207998D01*
X955342D01*
X951000Y170000D02*
Y181996D01*
X945002D01*
X943003Y179997D01*
Y175998D01*
X945002Y173999D01*
X951000D01*
X947001D02*
X943003Y170000D01*
X931006Y181996D02*
X939004D01*
Y175998D01*
X935005Y177997D01*
X933006D01*
X931006Y175998D01*
Y171999D01*
X933006Y170000D01*
X937004D01*
X939004Y171999D01*
X919010Y181996D02*
X923009Y179997D01*
X927008Y175998D01*
Y171999D01*
X925008Y170000D01*
X921010D01*
X919010Y171999D01*
Y173999D01*
X921010Y175998D01*
X927008D01*
X987000Y218000D02*
Y229996D01*
X981002D01*
X979003Y227997D01*
Y223998D01*
X981002Y221999D01*
X987000D01*
X983001D02*
X979003Y218000D01*
X967007Y229996D02*
X975004D01*
Y223998D01*
X971005Y225997D01*
X969006D01*
X967007Y223998D01*
Y219999D01*
X969006Y218000D01*
X973005D01*
X975004Y219999D01*
X963008Y227997D02*
X961008Y229996D01*
X957010D01*
X955010Y227997D01*
Y225997D01*
X957010Y223998D01*
X955010Y221999D01*
Y219999D01*
X957010Y218000D01*
X961008D01*
X963008Y219999D01*
Y221999D01*
X961008Y223998D01*
X963008Y225997D01*
Y227997D01*
X961008Y223998D02*
X957010D01*
X987000Y266000D02*
Y277996D01*
X981002D01*
X979003Y275997D01*
Y271998D01*
X981002Y269999D01*
X987000D01*
X983001D02*
X979003Y266000D01*
X967007Y277996D02*
X975004D01*
Y271998D01*
X971005Y273997D01*
X969006D01*
X967007Y271998D01*
Y267999D01*
X969006Y266000D01*
X973005D01*
X975004Y267999D01*
X963008Y277996D02*
X955010D01*
Y275997D01*
X963008Y267999D01*
Y266000D01*
X987000Y234000D02*
Y245996D01*
X981002D01*
X979003Y243997D01*
Y239998D01*
X981002Y237999D01*
X987000D01*
X983001D02*
X979003Y234000D01*
X967007Y245996D02*
X971005Y243997D01*
X975004Y239998D01*
Y235999D01*
X973005Y234000D01*
X969006D01*
X967007Y235999D01*
Y237999D01*
X969006Y239998D01*
X975004D01*
X955010Y245996D02*
X963008D01*
Y239998D01*
X959009Y241997D01*
X957010D01*
X955010Y239998D01*
Y235999D01*
X957010Y234000D01*
X961008D01*
X963008Y235999D01*
X987000Y250000D02*
Y261996D01*
X981002D01*
X979003Y259997D01*
Y255998D01*
X981002Y253999D01*
X987000D01*
X983001D02*
X979003Y250000D01*
X967007Y261996D02*
X971005Y259997D01*
X975004Y255998D01*
Y251999D01*
X973005Y250000D01*
X969006D01*
X967007Y251999D01*
Y253999D01*
X969006Y255998D01*
X975004D01*
X955010Y261996D02*
X959009Y259997D01*
X963008Y255998D01*
Y251999D01*
X961008Y250000D01*
X957010D01*
X955010Y251999D01*
Y253999D01*
X957010Y255998D01*
X963008D01*
X837003Y196996D02*
X845000D01*
Y190998D01*
X841001D01*
X845000D01*
Y185000D01*
X833004Y196996D02*
Y185000D01*
X827006D01*
X825006Y186999D01*
Y188999D01*
X827006Y190998D01*
X833004D01*
X827006D01*
X825006Y192997D01*
Y194997D01*
X827006Y196996D01*
X833004D01*
X813010D02*
X821008D01*
Y190998D01*
X817009Y192997D01*
X815010D01*
X813010Y190998D01*
Y186999D01*
X815010Y185000D01*
X819008D01*
X821008Y186999D01*
X564997Y193997D02*
X566996Y191998D01*
Y187999D01*
X564997Y186000D01*
X556999D01*
X555000Y187999D01*
Y191998D01*
X556999Y193997D01*
X555000Y205993D02*
Y197996D01*
X562997Y205993D01*
X564997D01*
X566996Y203994D01*
Y199995D01*
X564997Y197996D01*
Y209992D02*
X566996Y211992D01*
Y215990D01*
X564997Y217990D01*
X556999D01*
X555000Y215990D01*
Y211992D01*
X556999Y209992D01*
X564997D01*
X574000Y186000D02*
X585996D01*
Y191998D01*
X583997Y193997D01*
X579998D01*
X577999Y191998D01*
Y186000D01*
Y189999D02*
X574000Y193997D01*
Y205993D02*
Y197996D01*
X581997Y205993D01*
X583997D01*
X585996Y203994D01*
Y199995D01*
X583997Y197996D01*
X585996Y217990D02*
Y209992D01*
X579998D01*
X581997Y213991D01*
Y215990D01*
X579998Y217990D01*
X575999D01*
X574000Y215990D01*
Y211992D01*
X575999Y209992D01*
X591000Y186000D02*
X602996D01*
Y191998D01*
X600997Y193997D01*
X596998D01*
X594999Y191998D01*
Y186000D01*
Y189999D02*
X591000Y193997D01*
Y205993D02*
Y197996D01*
X598997Y205993D01*
X600997D01*
X602996Y203994D01*
Y199995D01*
X600997Y197996D01*
X591000Y215990D02*
X602996D01*
X596998Y209992D01*
Y217990D01*
X654997Y193997D02*
X656996Y191998D01*
Y187999D01*
X654997Y186000D01*
X646999D01*
X645000Y187999D01*
Y191998D01*
X646999Y193997D01*
X645000Y197996D02*
Y201995D01*
Y199995D01*
X656996D01*
X654997Y197996D01*
Y207993D02*
X656996Y209992D01*
Y213991D01*
X654997Y215990D01*
X652997D01*
X650998Y213991D01*
X648999Y215990D01*
X646999D01*
X645000Y213991D01*
Y209992D01*
X646999Y207993D01*
X648999D01*
X650998Y209992D01*
X652997Y207993D01*
X654997D01*
X650998Y209992D02*
Y213991D01*
X663000Y186000D02*
X674996D01*
Y191998D01*
X672997Y193997D01*
X668998D01*
X666999Y191998D01*
Y186000D01*
Y189999D02*
X663000Y193997D01*
Y197996D02*
Y201995D01*
Y199995D01*
X674996D01*
X672997Y197996D01*
X664999Y207993D02*
X663000Y209992D01*
Y213991D01*
X664999Y215990D01*
X672997D01*
X674996Y213991D01*
Y209992D01*
X672997Y207993D01*
X670997D01*
X668998Y209992D01*
Y215990D01*
X636000Y211996D02*
Y201999D01*
X634001Y200000D01*
X630002D01*
X628003Y201999D01*
Y211996D01*
X624004Y209997D02*
X622005Y211996D01*
X618006D01*
X616007Y209997D01*
Y207997D01*
X618006Y205998D01*
X620005D01*
X618006D01*
X616007Y203999D01*
Y201999D01*
X618006Y200000D01*
X622005D01*
X624004Y201999D01*
X312997Y364997D02*
X314996Y362998D01*
Y358999D01*
X312997Y357000D01*
X304999D01*
X303000Y358999D01*
Y362998D01*
X304999Y364997D01*
X312997Y368996D02*
X314996Y370995D01*
Y374994D01*
X312997Y376993D01*
X310997D01*
X308998Y374994D01*
X306999Y376993D01*
X304999D01*
X303000Y374994D01*
Y370995D01*
X304999Y368996D01*
X306999D01*
X308998Y370995D01*
X310997Y368996D01*
X312997D01*
X308998Y370995D02*
Y374994D01*
X332997Y365997D02*
X334996Y363998D01*
Y359999D01*
X332997Y358000D01*
X324999D01*
X323000Y359999D01*
Y363998D01*
X324999Y365997D01*
Y369996D02*
X323000Y371996D01*
Y375994D01*
X324999Y377994D01*
X332997D01*
X334996Y375994D01*
Y371996D01*
X332997Y369996D01*
X330997D01*
X328998Y371996D01*
Y377994D01*
X326003Y265997D02*
X328002Y267996D01*
X332001D01*
X334000Y265997D01*
Y257999D01*
X332001Y256000D01*
X328002D01*
X326003Y257999D01*
X322004Y256000D02*
X318005D01*
X320005D01*
Y267996D01*
X322004Y265997D01*
X312007D02*
X310008Y267996D01*
X306009D01*
X304010Y265997D01*
Y257999D01*
X306009Y256000D01*
X310008D01*
X312007Y257999D01*
Y265997D01*
X640000Y79000D02*
Y90996D01*
X634002D01*
X632003Y88997D01*
Y84998D01*
X634002Y82999D01*
X640000D01*
X636001D02*
X632003Y79000D01*
X628004Y88997D02*
X626004Y90996D01*
X622006D01*
X620006Y88997D01*
Y86997D01*
X622006Y84998D01*
X624005D01*
X622006D01*
X620006Y82999D01*
Y80999D01*
X622006Y79000D01*
X626004D01*
X628004Y80999D01*
X616008Y90996D02*
X608010D01*
Y88997D01*
X616008Y80999D01*
Y79000D01*
X586003Y17999D02*
Y25997D01*
X588002Y27996D01*
X592001D01*
X594000Y25997D01*
Y17999D01*
X592001Y16000D01*
X588002D01*
X590001Y19999D02*
X586003Y16000D01*
X588002D02*
X586003Y17999D01*
X576006Y16000D02*
Y27996D01*
X582004Y21998D01*
X574007D01*
X632003Y16997D02*
X634002Y18996D01*
X638001D01*
X640000Y16997D01*
Y8999D01*
X638001Y7000D01*
X634002D01*
X632003Y8999D01*
X620006Y7000D02*
X628004D01*
X620006Y14997D01*
Y16997D01*
X622006Y18996D01*
X626004D01*
X628004Y16997D01*
X608010Y18996D02*
X612009Y16997D01*
X616008Y12998D01*
Y8999D01*
X614008Y7000D01*
X610010D01*
X608010Y8999D01*
Y10999D01*
X610010Y12998D01*
X616008D01*
X577000Y35000D02*
X588996D01*
Y40998D01*
X586997Y42997D01*
X582998D01*
X580999Y40998D01*
Y35000D01*
Y38999D02*
X577000Y42997D01*
X586997Y46996D02*
X588996Y48995D01*
Y52994D01*
X586997Y54994D01*
X584997D01*
X582998Y52994D01*
Y50995D01*
Y52994D01*
X580999Y54994D01*
X578999D01*
X577000Y52994D01*
Y48995D01*
X578999Y46996D01*
Y58992D02*
X577000Y60992D01*
Y64990D01*
X578999Y66990D01*
X586997D01*
X588996Y64990D01*
Y60992D01*
X586997Y58992D01*
X584997D01*
X582998Y60992D01*
Y66990D01*
X662000Y36000D02*
X673996D01*
Y41998D01*
X671997Y43997D01*
X667998D01*
X665999Y41998D01*
Y36000D01*
Y39999D02*
X662000Y43997D01*
X671997Y47996D02*
X673996Y49995D01*
Y53994D01*
X671997Y55993D01*
X669997D01*
X667998Y53994D01*
Y51995D01*
Y53994D01*
X665999Y55993D01*
X663999D01*
X662000Y53994D01*
Y49995D01*
X663999Y47996D01*
X662000Y65990D02*
X673996D01*
X667998Y59992D01*
Y67990D01*
X591000Y143996D02*
Y132000D01*
X585002D01*
X583003Y133999D01*
Y141997D01*
X585002Y143996D01*
X591000D01*
X573006Y132000D02*
Y143996D01*
X579004Y137998D01*
X571007D01*
X700000Y142996D02*
Y131000D01*
X694002D01*
X692003Y132999D01*
Y140997D01*
X694002Y142996D01*
X700000D01*
X688004Y140997D02*
X686004Y142996D01*
X682006D01*
X680006Y140997D01*
Y138997D01*
X682006Y136998D01*
X684005D01*
X682006D01*
X680006Y134999D01*
Y132999D01*
X682006Y131000D01*
X686004D01*
X688004Y132999D01*
X804000Y117996D02*
Y106000D01*
X798002D01*
X796003Y107999D01*
Y115997D01*
X798002Y117996D01*
X804000D01*
X784007D02*
X788005Y115997D01*
X792004Y111998D01*
Y107999D01*
X790005Y106000D01*
X786006D01*
X784007Y107999D01*
Y109999D01*
X786006Y111998D01*
X792004D01*
X840000Y69000D02*
Y80996D01*
X834002D01*
X832003Y78997D01*
Y74998D01*
X834002Y72999D01*
X840000D01*
X836001D02*
X832003Y69000D01*
X828004D02*
X824005D01*
X826004D01*
Y80996D01*
X828004Y78997D01*
X810010Y80996D02*
X814008Y78997D01*
X818007Y74998D01*
Y70999D01*
X816008Y69000D01*
X812009D01*
X810010Y70999D01*
Y72999D01*
X812009Y74998D01*
X818007D01*
X840000Y43000D02*
Y54996D01*
X834002D01*
X832003Y52997D01*
Y48998D01*
X834002Y46999D01*
X840000D01*
X836001D02*
X832003Y43000D01*
X828004D02*
X824005D01*
X826004D01*
Y54996D01*
X828004Y52997D01*
X810010Y54996D02*
X818007D01*
Y48998D01*
X814008Y50997D01*
X812009D01*
X810010Y48998D01*
Y44999D01*
X812009Y43000D01*
X816008D01*
X818007Y44999D01*
X982996Y127000D02*
X971000D01*
Y132998D01*
X972999Y134997D01*
X980997D01*
X982996Y132998D01*
Y127000D01*
X972999Y138996D02*
X971000Y140996D01*
Y144994D01*
X972999Y146994D01*
X980997D01*
X982996Y144994D01*
Y140996D01*
X980997Y138996D01*
X978997D01*
X976998Y140996D01*
Y146994D01*
X922003Y113997D02*
X924002Y115996D01*
X928001D01*
X930000Y113997D01*
Y105999D01*
X928001Y104000D01*
X924002D01*
X922003Y105999D01*
X918004Y113997D02*
X916004Y115996D01*
X912006D01*
X910006Y113997D01*
Y111997D01*
X912006Y109998D01*
X914005D01*
X912006D01*
X910006Y107999D01*
Y105999D01*
X912006Y104000D01*
X916004D01*
X918004Y105999D01*
X906008Y113997D02*
X904008Y115996D01*
X900010D01*
X898010Y113997D01*
Y111997D01*
X900010Y109998D01*
X902009D01*
X900010D01*
X898010Y107999D01*
Y105999D01*
X900010Y104000D01*
X904008D01*
X906008Y105999D01*
X1012000Y95000D02*
X1023996D01*
Y100998D01*
X1021997Y102997D01*
X1017998D01*
X1015999Y100998D01*
Y95000D01*
Y98999D02*
X1012000Y102997D01*
X1023996Y114993D02*
Y106996D01*
X1017998D01*
X1019997Y110995D01*
Y112994D01*
X1017998Y114993D01*
X1013999D01*
X1012000Y112994D01*
Y108996D01*
X1013999Y106996D01*
X1012000Y118992D02*
Y122991D01*
Y120992D01*
X1023996D01*
X1021997Y118992D01*
X1076000Y95000D02*
X1087996D01*
Y100998D01*
X1085997Y102997D01*
X1081998D01*
X1079999Y100998D01*
Y95000D01*
Y98999D02*
X1076000Y102997D01*
X1087996Y114993D02*
Y106996D01*
X1081998D01*
X1083997Y110995D01*
Y112994D01*
X1081998Y114993D01*
X1077999D01*
X1076000Y112994D01*
Y108996D01*
X1077999Y106996D01*
X1076000Y126990D02*
Y118992D01*
X1083997Y126990D01*
X1085997D01*
X1087996Y124990D01*
Y120992D01*
X1085997Y118992D01*
X449997Y292997D02*
X451996Y290998D01*
Y286999D01*
X449997Y285000D01*
X441999D01*
X440000Y286999D01*
Y290998D01*
X441999Y292997D01*
X440000Y296996D02*
Y300995D01*
Y298995D01*
X451996D01*
X449997Y296996D01*
X440000Y314990D02*
Y306993D01*
X447997Y314990D01*
X449997D01*
X451996Y312991D01*
Y308992D01*
X449997Y306993D01*
X473000Y117996D02*
Y106000D01*
X467002D01*
X465003Y107999D01*
Y115997D01*
X467002Y117996D01*
X473000D01*
X461004Y115997D02*
X459005Y117996D01*
X455006D01*
X453007Y115997D01*
Y113997D01*
X455006Y111998D01*
X453007Y109999D01*
Y107999D01*
X455006Y106000D01*
X459005D01*
X461004Y107999D01*
Y109999D01*
X459005Y111998D01*
X461004Y113997D01*
Y115997D01*
X459005Y111998D02*
X455006D01*
X440000Y69000D02*
Y80996D01*
X434002D01*
X432003Y78997D01*
Y74998D01*
X434002Y72999D01*
X440000D01*
X436001D02*
X432003Y69000D01*
X428004Y78997D02*
X426004Y80996D01*
X422006D01*
X420006Y78997D01*
Y76997D01*
X422006Y74998D01*
X424005D01*
X422006D01*
X420006Y72999D01*
Y70999D01*
X422006Y69000D01*
X426004D01*
X428004Y70999D01*
X408010Y80996D02*
X416008D01*
Y74998D01*
X412009Y76997D01*
X410010D01*
X408010Y74998D01*
Y70999D01*
X410010Y69000D01*
X414008D01*
X416008Y70999D01*
X440000Y43000D02*
Y54996D01*
X434002D01*
X432003Y52997D01*
Y48998D01*
X434002Y46999D01*
X440000D01*
X436001D02*
X432003Y43000D01*
X428004Y52997D02*
X426004Y54996D01*
X422006D01*
X420006Y52997D01*
Y50997D01*
X422006Y48998D01*
X424005D01*
X422006D01*
X420006Y46999D01*
Y44999D01*
X422006Y43000D01*
X426004D01*
X428004Y44999D01*
X416008Y52997D02*
X414008Y54996D01*
X410010D01*
X408010Y52997D01*
Y50997D01*
X410010Y48998D01*
X412009D01*
X410010D01*
X408010Y46999D01*
Y44999D01*
X410010Y43000D01*
X414008D01*
X416008Y44999D01*
X337000Y168000D02*
X348996D01*
Y173998D01*
X346997Y175997D01*
X342998D01*
X340999Y173998D01*
Y168000D01*
Y171999D02*
X337000Y175997D01*
X348996Y179996D02*
Y187994D01*
X346997D01*
X338999Y179996D01*
X337000D01*
Y191992D02*
Y195991D01*
Y193992D01*
X348996D01*
X346997Y191992D01*
X304000Y135000D02*
X315996D01*
Y140998D01*
X313997Y142997D01*
X309998D01*
X307999Y140998D01*
Y135000D01*
Y138999D02*
X304000Y142997D01*
X315996Y146996D02*
Y154993D01*
X313997D01*
X305999Y146996D01*
X304000D01*
Y166990D02*
Y158992D01*
X311997Y166990D01*
X313997D01*
X315996Y164990D01*
Y160992D01*
X313997Y158992D01*
X304000Y92000D02*
X315996D01*
Y97998D01*
X313997Y99997D01*
X309998D01*
X307999Y97998D01*
Y92000D01*
Y95999D02*
X304000Y99997D01*
X315996Y111994D02*
X313997Y107995D01*
X309998Y103996D01*
X305999D01*
X304000Y105996D01*
Y109994D01*
X305999Y111994D01*
X307999D01*
X309998Y109994D01*
Y103996D01*
X305999Y115992D02*
X304000Y117992D01*
Y121990D01*
X305999Y123990D01*
X313997D01*
X315996Y121990D01*
Y117992D01*
X313997Y115992D01*
X311997D01*
X309998Y117992D01*
Y123990D01*
X278003Y139997D02*
X280002Y141996D01*
X284001D01*
X286000Y139997D01*
Y131999D01*
X284001Y130000D01*
X280002D01*
X278003Y131999D01*
X274004Y139997D02*
X272005Y141996D01*
X268006D01*
X266007Y139997D01*
Y137997D01*
X268006Y135998D01*
X270005D01*
X268006D01*
X266007Y133999D01*
Y131999D01*
X268006Y130000D01*
X272005D01*
X274004Y131999D01*
X256010Y130000D02*
Y141996D01*
X262008Y135998D01*
X254010D01*
X386003Y62997D02*
X388002Y64996D01*
X392001D01*
X394000Y62997D01*
Y54999D01*
X392001Y53000D01*
X388002D01*
X386003Y54999D01*
X382004Y62997D02*
X380005Y64996D01*
X376006D01*
X374007Y62997D01*
Y60997D01*
X376006Y58998D01*
X378005D01*
X376006D01*
X374007Y56999D01*
Y54999D01*
X376006Y53000D01*
X380005D01*
X382004Y54999D01*
X362010Y64996D02*
X370008D01*
Y58998D01*
X366009Y60997D01*
X364010D01*
X362010Y58998D01*
Y54999D01*
X364010Y53000D01*
X368008D01*
X370008Y54999D01*
X419996Y110000D02*
X409999D01*
X408000Y111999D01*
Y115998D01*
X409999Y117997D01*
X419996D01*
Y121996D02*
Y129993D01*
X417997D01*
X409999Y121996D01*
X408000D01*
X1034000Y515000D02*
X1045996D01*
Y520998D01*
X1043997Y522997D01*
X1039998D01*
X1037999Y520998D01*
Y515000D01*
Y518999D02*
X1034000Y522997D01*
Y534994D02*
Y526996D01*
X1041997Y534994D01*
X1043997D01*
X1045996Y532994D01*
Y528996D01*
X1043997Y526996D01*
Y538992D02*
X1045996Y540992D01*
Y544990D01*
X1043997Y546990D01*
X1035999D01*
X1034000Y544990D01*
Y540992D01*
X1035999Y538992D01*
X1043997D01*
X1106000Y563000D02*
Y574996D01*
X1100002D01*
X1098003Y572997D01*
Y568998D01*
X1100002Y566999D01*
X1106000D01*
X1102001D02*
X1098003Y563000D01*
X1086006D02*
X1094004D01*
X1086006Y570997D01*
Y572997D01*
X1088006Y574996D01*
X1092004D01*
X1094004Y572997D01*
X1082008Y564999D02*
X1080008Y563000D01*
X1076010D01*
X1074010Y564999D01*
Y572997D01*
X1076010Y574996D01*
X1080008D01*
X1082008Y572997D01*
Y570997D01*
X1080008Y568998D01*
X1074010D01*
X1112999Y514997D02*
X1120997D01*
X1122996Y512998D01*
Y508999D01*
X1120997Y507000D01*
X1112999D01*
X1111000Y508999D01*
Y512998D01*
X1114999Y510999D02*
X1111000Y514997D01*
Y512998D02*
X1112999Y514997D01*
X1111000Y526993D02*
Y518996D01*
X1118997Y526993D01*
X1120997D01*
X1122996Y524994D01*
Y520995D01*
X1120997Y518996D01*
X1105000Y484000D02*
Y495996D01*
X1099002D01*
X1097003Y493997D01*
Y489998D01*
X1099002Y487999D01*
X1105000D01*
X1101001D02*
X1097003Y484000D01*
X1093004D02*
X1089005D01*
X1091004D01*
Y495996D01*
X1093004Y493997D01*
X1083007D02*
X1081008Y495996D01*
X1077009D01*
X1075010Y493997D01*
Y491997D01*
X1077009Y489998D01*
X1075010Y487999D01*
Y485999D01*
X1077009Y484000D01*
X1081008D01*
X1083007Y485999D01*
Y487999D01*
X1081008Y489998D01*
X1083007Y491997D01*
Y493997D01*
X1081008Y489998D02*
X1077009D01*
X794000Y501000D02*
X805996D01*
Y506998D01*
X803997Y508997D01*
X799998D01*
X797999Y506998D01*
Y501000D01*
Y504999D02*
X794000Y508997D01*
Y518994D02*
X805996D01*
X799998Y512996D01*
Y520993D01*
X805996Y532990D02*
X803997Y528991D01*
X799998Y524992D01*
X795999D01*
X794000Y526992D01*
Y530990D01*
X795999Y532990D01*
X797999D01*
X799998Y530990D01*
Y524992D01*
X834000Y501000D02*
X845996D01*
Y506998D01*
X843997Y508997D01*
X839998D01*
X837999Y506998D01*
Y501000D01*
Y504999D02*
X834000Y508997D01*
Y518994D02*
X845996D01*
X839998Y512996D01*
Y520993D01*
X845996Y524992D02*
Y532990D01*
X843997D01*
X835999Y524992D01*
X834000D01*
X814000Y501000D02*
X825996D01*
Y506998D01*
X823997Y508997D01*
X819998D01*
X817999Y506998D01*
Y501000D01*
Y504999D02*
X814000Y508997D01*
X825996Y520993D02*
Y512996D01*
X819998D01*
X821997Y516995D01*
Y518994D01*
X819998Y520993D01*
X815999D01*
X814000Y518994D01*
Y514995D01*
X815999Y512996D01*
X823997Y524992D02*
X825996Y526992D01*
Y530990D01*
X823997Y532990D01*
X815999D01*
X814000Y530990D01*
Y526992D01*
X815999Y524992D01*
X823997D01*
X748997Y543997D02*
X750996Y541998D01*
Y537999D01*
X748997Y536000D01*
X740999D01*
X739000Y537999D01*
Y541998D01*
X740999Y543997D01*
X748997Y547996D02*
X750996Y549995D01*
Y553994D01*
X748997Y555993D01*
X746997D01*
X744998Y553994D01*
Y551995D01*
Y553994D01*
X742999Y555993D01*
X740999D01*
X739000Y553994D01*
Y549995D01*
X740999Y547996D01*
X739000Y567990D02*
Y559992D01*
X746997Y567990D01*
X748997D01*
X750996Y565990D01*
Y561992D01*
X748997Y559992D01*
X871000Y536000D02*
X882996D01*
Y541998D01*
X880997Y543997D01*
X876998D01*
X874999Y541998D01*
Y536000D01*
Y539999D02*
X871000Y543997D01*
X882996Y555993D02*
Y547996D01*
X876998D01*
X878997Y551995D01*
Y553994D01*
X876998Y555993D01*
X872999D01*
X871000Y553994D01*
Y549995D01*
X872999Y547996D01*
X871000Y565990D02*
X882996D01*
X876998Y559992D01*
Y567990D01*
X588000Y551000D02*
X597997D01*
Y555998D01*
X596331Y557664D01*
X592998D01*
X591332Y555998D01*
Y551000D01*
Y554332D02*
X588000Y557664D01*
X596331Y560997D02*
X597997Y562663D01*
Y565995D01*
X596331Y567661D01*
X594664D01*
X592998Y565995D01*
Y564329D01*
Y565995D01*
X591332Y567661D01*
X589666D01*
X588000Y565995D01*
Y562663D01*
X589666Y560997D01*
X596331Y570993D02*
X597997Y572660D01*
Y575992D01*
X596331Y577658D01*
X594664D01*
X592998Y575992D01*
X591332Y577658D01*
X589666D01*
X588000Y575992D01*
Y572660D01*
X589666Y570993D01*
X591332D01*
X592998Y572660D01*
X594664Y570993D01*
X596331D01*
X592998Y572660D02*
Y575992D01*
X570000Y550000D02*
X581996D01*
Y555998D01*
X579997Y557997D01*
X575998D01*
X573999Y555998D01*
Y550000D01*
Y553999D02*
X570000Y557997D01*
Y567994D02*
X581996D01*
X575998Y561996D01*
Y569994D01*
X570000Y573992D02*
Y577991D01*
Y575992D01*
X581996D01*
X579997Y573992D01*
X628003Y555999D02*
Y563997D01*
X630002Y565996D01*
X634001D01*
X636000Y563997D01*
Y555999D01*
X634001Y554000D01*
X630002D01*
X632001Y557999D02*
X628003Y554000D01*
X630002D02*
X628003Y555999D01*
X616007Y565996D02*
X624004D01*
Y559998D01*
X620005Y561997D01*
X618006D01*
X616007Y559998D01*
Y555999D01*
X618006Y554000D01*
X622005D01*
X624004Y555999D01*
X658000Y551000D02*
X669996D01*
Y556998D01*
X667997Y558997D01*
X663998D01*
X661999Y556998D01*
Y551000D01*
Y554999D02*
X658000Y558997D01*
X667997Y562996D02*
X669996Y564995D01*
Y568994D01*
X667997Y570993D01*
X665997D01*
X663998Y568994D01*
Y566995D01*
Y568994D01*
X661999Y570993D01*
X659999D01*
X658000Y568994D01*
Y564995D01*
X659999Y562996D01*
X669996Y582990D02*
X667997Y578991D01*
X663998Y574992D01*
X659999D01*
X658000Y576992D01*
Y580990D01*
X659999Y582990D01*
X661999D01*
X663998Y580990D01*
Y574992D01*
X472000Y485000D02*
X483996D01*
Y490998D01*
X481997Y492997D01*
X477998D01*
X475999Y490998D01*
Y485000D01*
Y488999D02*
X472000Y492997D01*
Y496996D02*
Y500995D01*
Y498996D01*
X483996D01*
X481997Y496996D01*
Y506993D02*
X483996Y508992D01*
Y512991D01*
X481997Y514990D01*
X473999D01*
X472000Y512991D01*
Y508992D01*
X473999Y506993D01*
X481997D01*
X490000Y485000D02*
X501996D01*
Y490998D01*
X499997Y492997D01*
X495998D01*
X493999Y490998D01*
Y485000D01*
Y488999D02*
X490000Y492997D01*
X491999Y496996D02*
X490000Y498996D01*
Y502994D01*
X491999Y504994D01*
X499997D01*
X501996Y502994D01*
Y498996D01*
X499997Y496996D01*
X497997D01*
X495998Y498996D01*
Y504994D01*
X509000Y485000D02*
X520996D01*
Y490998D01*
X518997Y492997D01*
X514998D01*
X512999Y490998D01*
Y485000D01*
Y488999D02*
X509000Y492997D01*
X518997Y496996D02*
X520996Y498996D01*
Y502994D01*
X518997Y504994D01*
X516997D01*
X514998Y502994D01*
Y500995D01*
Y502994D01*
X512999Y504994D01*
X510999D01*
X509000Y502994D01*
Y498996D01*
X510999Y496996D01*
X518997Y508992D02*
X520996Y510992D01*
Y514990D01*
X518997Y516990D01*
X510999D01*
X509000Y514990D01*
Y510992D01*
X510999Y508992D01*
X518997D01*
X526000Y485000D02*
X537996D01*
Y490998D01*
X535997Y492997D01*
X531998D01*
X529999Y490998D01*
Y485000D01*
Y488999D02*
X526000Y492997D01*
X535997Y496996D02*
X537996Y498996D01*
Y502994D01*
X535997Y504994D01*
X533997D01*
X531998Y502994D01*
Y500995D01*
Y502994D01*
X529999Y504994D01*
X527999D01*
X526000Y502994D01*
Y498996D01*
X527999Y496996D01*
X526000Y508992D02*
Y512991D01*
Y510992D01*
X537996D01*
X535997Y508992D01*
X564997Y490247D02*
X566996Y488248D01*
Y484249D01*
X564997Y482250D01*
X556999D01*
X555000Y484249D01*
Y488248D01*
X556999Y490247D01*
X555000Y500244D02*
X566996D01*
X560998Y494246D01*
Y502243D01*
X566996Y506242D02*
Y514240D01*
X564997D01*
X556999Y506242D01*
X555000D01*
X571000Y482250D02*
X582996D01*
Y488248D01*
X580997Y490247D01*
X576998D01*
X574999Y488248D01*
Y482250D01*
Y486249D02*
X571000Y490247D01*
X582996Y494246D02*
Y502243D01*
X580997D01*
X572999Y494246D01*
X571000D01*
X572999Y506242D02*
X571000Y508242D01*
Y512240D01*
X572999Y514240D01*
X580997D01*
X582996Y512240D01*
Y508242D01*
X580997Y506242D01*
X578997D01*
X576998Y508242D01*
Y514240D01*
X587000Y482250D02*
X598996D01*
Y488248D01*
X596997Y490247D01*
X592998D01*
X590999Y488248D01*
Y482250D01*
Y486249D02*
X587000Y490247D01*
X598996Y494246D02*
Y502243D01*
X596997D01*
X588999Y494246D01*
X587000D01*
X598996Y514240D02*
X596997Y510241D01*
X592998Y506242D01*
X588999D01*
X587000Y508242D01*
Y512240D01*
X588999Y514240D01*
X590999D01*
X592998Y512240D01*
Y506242D01*
X612997Y490247D02*
X614996Y488248D01*
Y484249D01*
X612997Y482250D01*
X604999D01*
X603000Y484249D01*
Y488248D01*
X604999Y490247D01*
X603000Y500244D02*
X614996D01*
X608998Y494246D01*
Y502243D01*
X604999Y506242D02*
X603000Y508242D01*
Y512240D01*
X604999Y514240D01*
X612997D01*
X614996Y512240D01*
Y508242D01*
X612997Y506242D01*
X610997D01*
X608998Y508242D01*
Y514240D01*
X618000Y482250D02*
X629996D01*
Y488248D01*
X627997Y490247D01*
X623998D01*
X621999Y488248D01*
Y482250D01*
Y486249D02*
X618000Y490247D01*
X627997Y494246D02*
X629996Y496245D01*
Y500244D01*
X627997Y502243D01*
X625997D01*
X623998Y500244D01*
X621999Y502243D01*
X619999D01*
X618000Y500244D01*
Y496245D01*
X619999Y494246D01*
X621999D01*
X623998Y496245D01*
X625997Y494246D01*
X627997D01*
X623998Y496245D02*
Y500244D01*
X627997Y506242D02*
X629996Y508242D01*
Y512240D01*
X627997Y514240D01*
X625997D01*
X623998Y512240D01*
Y510241D01*
Y512240D01*
X621999Y514240D01*
X619999D01*
X618000Y512240D01*
Y508242D01*
X619999Y506242D01*
X634250Y482250D02*
X646246D01*
Y488248D01*
X644247Y490247D01*
X640248D01*
X638249Y488248D01*
Y482250D01*
Y486249D02*
X634250Y490247D01*
X646246Y494246D02*
Y502243D01*
X644247D01*
X636249Y494246D01*
X634250D01*
X644247Y506242D02*
X646246Y508242D01*
Y512240D01*
X644247Y514240D01*
X642247D01*
X640248Y512240D01*
X638249Y514240D01*
X636249D01*
X634250Y512240D01*
Y508242D01*
X636249Y506242D01*
X638249D01*
X640248Y508242D01*
X642247Y506242D01*
X644247D01*
X640248Y508242D02*
Y512240D01*
X660997Y490247D02*
X662996Y488248D01*
Y484249D01*
X660997Y482250D01*
X652999D01*
X651000Y484249D01*
Y488248D01*
X652999Y490247D01*
X651000Y500244D02*
X662996D01*
X656998Y494246D01*
Y502243D01*
X660997Y506242D02*
X662996Y508242D01*
Y512240D01*
X660997Y514240D01*
X658997D01*
X656998Y512240D01*
X654999Y514240D01*
X652999D01*
X651000Y512240D01*
Y508242D01*
X652999Y506242D01*
X654999D01*
X656998Y508242D01*
X658997Y506242D01*
X660997D01*
X656998Y508242D02*
Y512240D01*
X667000Y482250D02*
X678996D01*
Y488248D01*
X676997Y490247D01*
X672998D01*
X670999Y488248D01*
Y482250D01*
Y486249D02*
X667000Y490247D01*
X676997Y494246D02*
X678996Y496245D01*
Y500244D01*
X676997Y502243D01*
X674997D01*
X672998Y500244D01*
X670999Y502243D01*
X668999D01*
X667000Y500244D01*
Y496245D01*
X668999Y494246D01*
X670999D01*
X672998Y496245D01*
X674997Y494246D01*
X676997D01*
X672998Y496245D02*
Y500244D01*
X667000Y506242D02*
Y510241D01*
Y508242D01*
X678996D01*
X676997Y506242D01*
X682750Y482250D02*
X694746D01*
Y488248D01*
X692747Y490247D01*
X688748D01*
X686749Y488248D01*
Y482250D01*
Y486249D02*
X682750Y490247D01*
X694746Y494246D02*
Y502243D01*
X692747D01*
X684749Y494246D01*
X682750D01*
X694746Y506242D02*
Y514240D01*
X692747D01*
X684749Y506242D01*
X682750D01*
X713000Y485000D02*
X724996D01*
Y490998D01*
X722997Y492997D01*
X718998D01*
X716999Y490998D01*
Y485000D01*
Y488999D02*
X713000Y492997D01*
Y504994D02*
Y496996D01*
X720997Y504994D01*
X722997D01*
X724996Y502994D01*
Y498996D01*
X722997Y496996D01*
X724996Y516990D02*
X722997Y512991D01*
X718998Y508992D01*
X714999D01*
X713000Y510992D01*
Y514990D01*
X714999Y516990D01*
X716999D01*
X718998Y514990D01*
Y508992D01*
X730000Y485000D02*
X741996D01*
Y490998D01*
X739997Y492997D01*
X735998D01*
X733999Y490998D01*
Y485000D01*
Y488999D02*
X730000Y492997D01*
Y504994D02*
Y496996D01*
X737997Y504994D01*
X739997D01*
X741996Y502994D01*
Y498996D01*
X739997Y496996D01*
Y508992D02*
X741996Y510992D01*
Y514990D01*
X739997Y516990D01*
X737997D01*
X735998Y514990D01*
Y512991D01*
Y514990D01*
X733999Y516990D01*
X731999D01*
X730000Y514990D01*
Y510992D01*
X731999Y508992D01*
X748000Y485000D02*
X759996D01*
Y490998D01*
X757997Y492997D01*
X753998D01*
X751999Y490998D01*
Y485000D01*
Y488999D02*
X748000Y492997D01*
X757997Y496996D02*
X759996Y498996D01*
Y502994D01*
X757997Y504994D01*
X755997D01*
X753998Y502994D01*
Y500995D01*
Y502994D01*
X751999Y504994D01*
X749999D01*
X748000Y502994D01*
Y498996D01*
X749999Y496996D01*
X767000Y485000D02*
X778996D01*
Y490998D01*
X776997Y492997D01*
X772998D01*
X770999Y490998D01*
Y485000D01*
Y488999D02*
X767000Y492997D01*
X778996Y504994D02*
Y496996D01*
X772998D01*
X774997Y500995D01*
Y502994D01*
X772998Y504994D01*
X768999D01*
X767000Y502994D01*
Y498996D01*
X768999Y496996D01*
X263000Y1705000D02*
Y1716996D01*
X257002D01*
X255003Y1714997D01*
Y1710998D01*
X257002Y1708999D01*
X263000D01*
X259001D02*
X255003Y1705000D01*
X251004D02*
X247005D01*
X249004D01*
Y1716996D01*
X251004Y1714997D01*
X241007D02*
X239008Y1716996D01*
X235009D01*
X233010Y1714997D01*
Y1706999D01*
X235009Y1705000D01*
X239008D01*
X241007Y1706999D01*
Y1714997D01*
X229011Y1716996D02*
X221014D01*
Y1714997D01*
X229011Y1706999D01*
Y1705000D01*
X93996Y1853000D02*
X82000D01*
Y1860997D01*
X91997Y1864996D02*
X93996Y1866996D01*
Y1870994D01*
X91997Y1872993D01*
X89997D01*
X87998Y1870994D01*
Y1868995D01*
Y1870994D01*
X85999Y1872993D01*
X83999D01*
X82000Y1870994D01*
Y1866996D01*
X83999Y1864996D01*
X203003Y1886997D02*
X205002Y1888996D01*
X209001D01*
X211000Y1886997D01*
Y1878999D01*
X209001Y1877000D01*
X205002D01*
X203003Y1878999D01*
X199004Y1877000D02*
X195005D01*
X197005D01*
Y1888996D01*
X199004Y1886997D01*
X181010Y1877000D02*
X189007D01*
X181010Y1884997D01*
Y1886997D01*
X183009Y1888996D01*
X187008D01*
X189007Y1886997D01*
X177011D02*
X175012Y1888996D01*
X171013D01*
X169014Y1886997D01*
Y1884997D01*
X171013Y1882998D01*
X169014Y1880999D01*
Y1878999D01*
X171013Y1877000D01*
X175012D01*
X177011Y1878999D01*
Y1880999D01*
X175012Y1882998D01*
X177011Y1884997D01*
Y1886997D01*
X175012Y1882998D02*
X171013D01*
X382997Y1833997D02*
X384996Y1831998D01*
Y1827999D01*
X382997Y1826000D01*
X374999D01*
X373000Y1827999D01*
Y1831998D01*
X374999Y1833997D01*
X373000Y1837996D02*
Y1841995D01*
Y1839996D01*
X384996D01*
X382997Y1837996D01*
Y1847993D02*
X384996Y1849992D01*
Y1853991D01*
X382997Y1855990D01*
X380997D01*
X378998Y1853991D01*
Y1851992D01*
Y1853991D01*
X376999Y1855990D01*
X374999D01*
X373000Y1853991D01*
Y1849992D01*
X374999Y1847993D01*
X373000Y1859989D02*
Y1863988D01*
Y1861988D01*
X384996D01*
X382997Y1859989D01*
X320003Y1886997D02*
X322002Y1888996D01*
X326001D01*
X328000Y1886997D01*
Y1878999D01*
X326001Y1877000D01*
X322002D01*
X320003Y1878999D01*
X316004Y1877000D02*
X312005D01*
X314004D01*
Y1888996D01*
X316004Y1886997D01*
X298010Y1877000D02*
X306007D01*
X298010Y1884997D01*
Y1886997D01*
X300009Y1888996D01*
X304008D01*
X306007Y1886997D01*
X294011Y1888996D02*
X286014D01*
Y1886997D01*
X294011Y1878999D01*
Y1877000D01*
X320003Y1855996D02*
X328000D01*
Y1849998D01*
X324001D01*
X328000D01*
Y1844000D01*
X316004Y1855996D02*
Y1844000D01*
X310006D01*
X308006Y1845999D01*
Y1847999D01*
X310006Y1849998D01*
X316004D01*
X310006D01*
X308006Y1851997D01*
Y1853997D01*
X310006Y1855996D01*
X316004D01*
X304008Y1844000D02*
X300009D01*
X302008D01*
Y1855996D01*
X304008Y1853997D01*
X288013Y1844000D02*
Y1855996D01*
X294011Y1849998D01*
X286014D01*
X362000Y1806000D02*
Y1817996D01*
X356002D01*
X354003Y1815997D01*
Y1811998D01*
X356002Y1809999D01*
X362000D01*
X358001D02*
X354003Y1806000D01*
X350004D02*
X346005D01*
X348004D01*
Y1817996D01*
X350004Y1815997D01*
X332010Y1806000D02*
X340007D01*
X332010Y1813997D01*
Y1815997D01*
X334009Y1817996D01*
X338008D01*
X340007Y1815997D01*
X264000Y1814996D02*
Y1804999D01*
X262001Y1803000D01*
X258002D01*
X256003Y1804999D01*
Y1814996D01*
X252004Y1803000D02*
X248005D01*
X250005D01*
Y1814996D01*
X252004Y1812997D01*
X234010Y1814996D02*
X238008Y1812997D01*
X242007Y1808998D01*
Y1804999D01*
X240008Y1803000D01*
X236009D01*
X234010Y1804999D01*
Y1806999D01*
X236009Y1808998D01*
X242007D01*
X328000Y1769000D02*
Y1780996D01*
X322002D01*
X320003Y1778997D01*
Y1774998D01*
X322002Y1772999D01*
X328000D01*
X324001D02*
X320003Y1769000D01*
X316004D02*
X312005D01*
X314004D01*
Y1780996D01*
X316004Y1778997D01*
X306007D02*
X304008Y1780996D01*
X300009D01*
X298010Y1778997D01*
Y1770999D01*
X300009Y1769000D01*
X304008D01*
X306007Y1770999D01*
Y1778997D01*
X286014Y1780996D02*
X294011D01*
Y1774998D01*
X290012Y1776997D01*
X288013D01*
X286014Y1774998D01*
Y1770999D01*
X288013Y1769000D01*
X292012D01*
X294011Y1770999D01*
X211996Y1749000D02*
X202833D01*
X201000Y1750833D01*
Y1754498D01*
X202833Y1756331D01*
X211996D01*
X201000Y1767327D02*
Y1759996D01*
X208331Y1767327D01*
X210164D01*
X211996Y1765495D01*
Y1761829D01*
X210164Y1759996D01*
X201000Y1778324D02*
Y1770993D01*
X208331Y1778324D01*
X210164D01*
X211996Y1776491D01*
Y1772826D01*
X210164Y1770993D01*
X174996Y1739997D02*
Y1732000D01*
X168998D01*
Y1735999D01*
Y1732000D01*
X163000D01*
X174996Y1743996D02*
X163000D01*
Y1749994D01*
X164999Y1751994D01*
X166999D01*
X168998Y1749994D01*
Y1743996D01*
Y1749994D01*
X170997Y1751994D01*
X172997D01*
X174996Y1749994D01*
Y1743996D01*
X163000Y1755992D02*
Y1759991D01*
Y1757992D01*
X174996D01*
X172997Y1755992D01*
X174996Y1773986D02*
X172997Y1769988D01*
X168998Y1765989D01*
X164999D01*
X163000Y1767988D01*
Y1771987D01*
X164999Y1773986D01*
X166999D01*
X168998Y1771987D01*
Y1765989D01*
X188997Y1741997D02*
X190996Y1739998D01*
Y1735999D01*
X188997Y1734000D01*
X180999D01*
X179000Y1735999D01*
Y1739998D01*
X180999Y1741997D01*
X179000Y1745996D02*
Y1749995D01*
Y1747995D01*
X190996D01*
X188997Y1745996D01*
Y1755993D02*
X190996Y1757992D01*
Y1761991D01*
X188997Y1763990D01*
X186997D01*
X184998Y1761991D01*
Y1759992D01*
Y1761991D01*
X182999Y1763990D01*
X180999D01*
X179000Y1761991D01*
Y1757992D01*
X180999Y1755993D01*
X190996Y1775986D02*
Y1767989D01*
X184998D01*
X186997Y1771988D01*
Y1773987D01*
X184998Y1775986D01*
X180999D01*
X179000Y1773987D01*
Y1769988D01*
X180999Y1767989D01*
X81003Y1807997D02*
X83002Y1809996D01*
X87001D01*
X89000Y1807997D01*
Y1799999D01*
X87001Y1798000D01*
X83002D01*
X81003Y1799999D01*
X77004Y1798000D02*
X73005D01*
X75005D01*
Y1809996D01*
X77004Y1807997D01*
X67007D02*
X65008Y1809996D01*
X61009D01*
X59010Y1807997D01*
Y1805997D01*
X61009Y1803998D01*
X63008D01*
X61009D01*
X59010Y1801999D01*
Y1799999D01*
X61009Y1798000D01*
X65008D01*
X67007Y1799999D01*
X47014Y1798000D02*
X55011D01*
X47014Y1805997D01*
Y1807997D01*
X49013Y1809996D01*
X53012D01*
X55011Y1807997D01*
X88000Y1780000D02*
Y1791996D01*
X82002D01*
X80003Y1789997D01*
Y1785998D01*
X82002Y1783999D01*
X88000D01*
X84001D02*
X80003Y1780000D01*
X76004D02*
X72005D01*
X74005D01*
Y1791996D01*
X76004Y1789997D01*
X58010Y1780000D02*
X66007D01*
X58010Y1787997D01*
Y1789997D01*
X60009Y1791996D01*
X64008D01*
X66007Y1789997D01*
X46014Y1780000D02*
X54011D01*
X46014Y1787997D01*
Y1789997D01*
X48013Y1791996D01*
X52012D01*
X54011Y1789997D01*
X171997Y972997D02*
X173996Y970998D01*
Y966999D01*
X171997Y965000D01*
X163999D01*
X162000Y966999D01*
Y970998D01*
X163999Y972997D01*
X171997Y976996D02*
X173996Y978996D01*
Y982994D01*
X171997Y984994D01*
X169997D01*
X167998Y982994D01*
X165999Y984994D01*
X163999D01*
X162000Y982994D01*
Y978996D01*
X163999Y976996D01*
X165999D01*
X167998Y978996D01*
X169997Y976996D01*
X171997D01*
X167998Y978996D02*
Y982994D01*
X171997Y988992D02*
X173996Y990992D01*
Y994990D01*
X171997Y996990D01*
X169997D01*
X167998Y994990D01*
Y992991D01*
Y994990D01*
X165999Y996990D01*
X163999D01*
X162000Y994990D01*
Y990992D01*
X163999Y988992D01*
X93996Y991000D02*
X82000D01*
Y998997D01*
Y1002996D02*
Y1006995D01*
Y1004995D01*
X93996D01*
X91997Y1002996D01*
X80003Y1073997D02*
X82002Y1075996D01*
X86001D01*
X88000Y1073997D01*
Y1065999D01*
X86001Y1064000D01*
X82002D01*
X80003Y1065999D01*
X76004Y1073997D02*
X74005Y1075996D01*
X70006D01*
X68007Y1073997D01*
Y1071997D01*
X70006Y1069998D01*
X68007Y1067999D01*
Y1065999D01*
X70006Y1064000D01*
X74005D01*
X76004Y1065999D01*
Y1067999D01*
X74005Y1069998D01*
X76004Y1071997D01*
Y1073997D01*
X74005Y1069998D02*
X70006D01*
X64008Y1065999D02*
X62008Y1064000D01*
X58010D01*
X56010Y1065999D01*
Y1073997D01*
X58010Y1075996D01*
X62008D01*
X64008Y1073997D01*
Y1071997D01*
X62008Y1069998D01*
X56010D01*
X88000Y1083000D02*
Y1094996D01*
X82002D01*
X80003Y1092997D01*
Y1088998D01*
X82002Y1086999D01*
X88000D01*
X84001D02*
X80003Y1083000D01*
X76004Y1092997D02*
X74005Y1094996D01*
X70006D01*
X68007Y1092997D01*
Y1090997D01*
X70006Y1088998D01*
X68007Y1086999D01*
Y1084999D01*
X70006Y1083000D01*
X74005D01*
X76004Y1084999D01*
Y1086999D01*
X74005Y1088998D01*
X76004Y1090997D01*
Y1092997D01*
X74005Y1088998D02*
X70006D01*
X64008Y1094996D02*
X56010D01*
Y1092997D01*
X64008Y1084999D01*
Y1083000D01*
X173996Y1036997D02*
Y1029000D01*
X167998D01*
Y1032999D01*
Y1029000D01*
X162000D01*
X173996Y1040996D02*
X162000D01*
Y1046994D01*
X163999Y1048994D01*
X165999D01*
X167998Y1046994D01*
Y1040996D01*
Y1046994D01*
X169997Y1048994D01*
X171997D01*
X173996Y1046994D01*
Y1040996D01*
Y1052992D02*
Y1060990D01*
X171997D01*
X163999Y1052992D01*
X162000D01*
X189997Y1036997D02*
X191996Y1034998D01*
Y1030999D01*
X189997Y1029000D01*
X181999D01*
X180000Y1030999D01*
Y1034998D01*
X181999Y1036997D01*
X189997Y1040996D02*
X191996Y1042996D01*
Y1046994D01*
X189997Y1048994D01*
X187997D01*
X185998Y1046994D01*
X183999Y1048994D01*
X181999D01*
X180000Y1046994D01*
Y1042996D01*
X181999Y1040996D01*
X183999D01*
X185998Y1042996D01*
X187997Y1040996D01*
X189997D01*
X185998Y1042996D02*
Y1046994D01*
X191996Y1060990D02*
X189997Y1056991D01*
X185998Y1052992D01*
X181999D01*
X180000Y1054992D01*
Y1058990D01*
X181999Y1060990D01*
X183999D01*
X185998Y1058990D01*
Y1052992D01*
X212996Y1100000D02*
X202999D01*
X201000Y1101999D01*
Y1105998D01*
X202999Y1107997D01*
X212996D01*
X202999Y1111996D02*
X201000Y1113996D01*
Y1117994D01*
X202999Y1119994D01*
X210997D01*
X212996Y1117994D01*
Y1113996D01*
X210997Y1111996D01*
X208997D01*
X206998Y1113996D01*
Y1119994D01*
X301000Y1142000D02*
Y1153996D01*
X295002D01*
X293003Y1151997D01*
Y1147998D01*
X295002Y1145999D01*
X301000D01*
X297001D02*
X293003Y1142000D01*
X289004Y1143999D02*
X287005Y1142000D01*
X283006D01*
X281007Y1143999D01*
Y1151997D01*
X283006Y1153996D01*
X287005D01*
X289004Y1151997D01*
Y1149997D01*
X287005Y1147998D01*
X281007D01*
X277008Y1151997D02*
X275008Y1153996D01*
X271010D01*
X269010Y1151997D01*
Y1149997D01*
X271010Y1147998D01*
X273009D01*
X271010D01*
X269010Y1145999D01*
Y1143999D01*
X271010Y1142000D01*
X275008D01*
X277008Y1143999D01*
X293003Y1132997D02*
X295002Y1134996D01*
X299001D01*
X301000Y1132997D01*
Y1124999D01*
X299001Y1123000D01*
X295002D01*
X293003Y1124999D01*
X289004D02*
X287005Y1123000D01*
X283006D01*
X281007Y1124999D01*
Y1132997D01*
X283006Y1134996D01*
X287005D01*
X289004Y1132997D01*
Y1130997D01*
X287005Y1128998D01*
X281007D01*
X277008Y1132997D02*
X275008Y1134996D01*
X271010D01*
X269010Y1132997D01*
Y1130997D01*
X271010Y1128998D01*
X269010Y1126999D01*
Y1124999D01*
X271010Y1123000D01*
X275008D01*
X277008Y1124999D01*
Y1126999D01*
X275008Y1128998D01*
X277008Y1130997D01*
Y1132997D01*
X275008Y1128998D02*
X271010D01*
X264000Y1073996D02*
Y1063999D01*
X262001Y1062000D01*
X258002D01*
X256003Y1063999D01*
Y1073996D01*
X252004Y1062000D02*
X248005D01*
X250005D01*
Y1073996D01*
X252004Y1071997D01*
X234010Y1062000D02*
X242007D01*
X234010Y1069997D01*
Y1071997D01*
X236009Y1073996D01*
X240008D01*
X242007Y1071997D01*
X314000Y1110996D02*
X306003D01*
X310001D01*
Y1099000D01*
X302004D02*
Y1110996D01*
X296006D01*
X294007Y1108997D01*
Y1104998D01*
X296006Y1102999D01*
X302004D01*
X290008Y1108997D02*
X288008Y1110996D01*
X284010D01*
X282010Y1108997D01*
Y1106997D01*
X284010Y1104998D01*
X282010Y1102999D01*
Y1100999D01*
X284010Y1099000D01*
X288008D01*
X290008Y1100999D01*
Y1102999D01*
X288008Y1104998D01*
X290008Y1106997D01*
Y1108997D01*
X288008Y1104998D02*
X284010D01*
X354000Y1110996D02*
X346003D01*
X350001D01*
Y1099000D01*
X342004D02*
Y1110996D01*
X336006D01*
X334007Y1108997D01*
Y1104998D01*
X336006Y1102999D01*
X342004D01*
X330008Y1110996D02*
X322010D01*
Y1108997D01*
X330008Y1100999D01*
Y1099000D01*
X365000Y1040000D02*
Y1051996D01*
X359002D01*
X357003Y1049997D01*
Y1045998D01*
X359002Y1043999D01*
X365000D01*
X361001D02*
X357003Y1040000D01*
X353004Y1049997D02*
X351004Y1051996D01*
X347006D01*
X345006Y1049997D01*
Y1047997D01*
X347006Y1045998D01*
X349005D01*
X347006D01*
X345006Y1043999D01*
Y1041999D01*
X347006Y1040000D01*
X351004D01*
X353004Y1041999D01*
X333010Y1040000D02*
X341008D01*
X333010Y1047997D01*
Y1049997D01*
X335010Y1051996D01*
X339008D01*
X341008Y1049997D01*
X363000Y1019000D02*
Y1030996D01*
X357002D01*
X355003Y1028997D01*
Y1024998D01*
X357002Y1022999D01*
X363000D01*
X359001D02*
X355003Y1019000D01*
X351004Y1020999D02*
X349005Y1019000D01*
X345006D01*
X343007Y1020999D01*
Y1028997D01*
X345006Y1030996D01*
X349005D01*
X351004Y1028997D01*
Y1026997D01*
X349005Y1024998D01*
X343007D01*
X339008Y1019000D02*
X335009D01*
X337008D01*
Y1030996D01*
X339008Y1028997D01*
X319003Y991997D02*
X321002Y993996D01*
X325001D01*
X327000Y991997D01*
Y983999D01*
X325001Y982000D01*
X321002D01*
X319003Y983999D01*
X315004Y991997D02*
X313004Y993996D01*
X309006D01*
X307006Y991997D01*
Y989997D01*
X309006Y987998D01*
X307006Y985999D01*
Y983999D01*
X309006Y982000D01*
X313004D01*
X315004Y983999D01*
Y985999D01*
X313004Y987998D01*
X315004Y989997D01*
Y991997D01*
X313004Y987998D02*
X309006D01*
X295010Y982000D02*
X303008D01*
X295010Y989997D01*
Y991997D01*
X297010Y993996D01*
X301008D01*
X303008Y991997D01*
X381997Y972997D02*
X383996Y970998D01*
Y966999D01*
X381997Y965000D01*
X373999D01*
X372000Y966999D01*
Y970998D01*
X373999Y972997D01*
X381997Y976996D02*
X383996Y978996D01*
Y982994D01*
X381997Y984994D01*
X379997D01*
X377998Y982994D01*
X375999Y984994D01*
X373999D01*
X372000Y982994D01*
Y978996D01*
X373999Y976996D01*
X375999D01*
X377998Y978996D01*
X379997Y976996D01*
X381997D01*
X377998Y978996D02*
Y982994D01*
X381997Y988992D02*
X383996Y990992D01*
Y994990D01*
X381997Y996990D01*
X379997D01*
X377998Y994990D01*
X375999Y996990D01*
X373999D01*
X372000Y994990D01*
Y990992D01*
X373999Y988992D01*
X375999D01*
X377998Y990992D01*
X379997Y988992D01*
X381997D01*
X377998Y990992D02*
Y994990D01*
X434000Y1797996D02*
X426003D01*
X430001D01*
Y1786000D01*
X422004D02*
Y1797996D01*
X416006D01*
X414007Y1795997D01*
Y1791998D01*
X416006Y1789999D01*
X422004D01*
X410008Y1786000D02*
X406009D01*
X408008D01*
Y1797996D01*
X410008Y1795997D01*
X400011Y1786000D02*
X396012D01*
X398012D01*
Y1797996D01*
X400011Y1795997D01*
X438238Y1748818D02*
X430241D01*
X434239D01*
Y1736822D01*
X426242D02*
Y1748818D01*
X420244D01*
X418245Y1746819D01*
Y1742820D01*
X420244Y1740821D01*
X426242D01*
X414246Y1736822D02*
X410247D01*
X412246D01*
Y1748818D01*
X414246Y1746819D01*
X396252Y1736822D02*
X404249D01*
X396252Y1744819D01*
Y1746819D01*
X398251Y1748818D01*
X402250D01*
X404249Y1746819D01*
X259592Y1536409D02*
X261592Y1538408D01*
X265591D01*
X267590Y1536409D01*
Y1528411D01*
X265591Y1526412D01*
X261592D01*
X259592Y1528411D01*
X255594Y1538408D02*
X247596D01*
Y1536409D01*
X255594Y1528411D01*
Y1526412D01*
X243598Y1528411D02*
X241598Y1526412D01*
X237600D01*
X235600Y1528411D01*
Y1536409D01*
X237600Y1538408D01*
X241598D01*
X243598Y1536409D01*
Y1534409D01*
X241598Y1532410D01*
X235600D01*
X259592Y1456653D02*
X261592Y1458652D01*
X265591D01*
X267590Y1456653D01*
Y1448655D01*
X265591Y1446656D01*
X261592D01*
X259592Y1448655D01*
X255594Y1458652D02*
X247596D01*
Y1456653D01*
X255594Y1448655D01*
Y1446656D01*
X243598Y1456653D02*
X241598Y1458652D01*
X237600D01*
X235600Y1456653D01*
Y1454653D01*
X237600Y1452654D01*
X235600Y1450655D01*
Y1448655D01*
X237600Y1446656D01*
X241598D01*
X243598Y1448655D01*
Y1450655D01*
X241598Y1452654D01*
X243598Y1454653D01*
Y1456653D01*
X241598Y1452654D02*
X237600D01*
X171000Y1501996D02*
Y1490000D01*
X165002D01*
X163003Y1491999D01*
Y1499997D01*
X165002Y1501996D01*
X171000D01*
X159004Y1490000D02*
X155005D01*
X157004D01*
Y1501996D01*
X159004Y1499997D01*
X141010Y1501996D02*
X145008Y1499997D01*
X149007Y1495998D01*
Y1491999D01*
X147008Y1490000D01*
X143009D01*
X141010Y1491999D01*
Y1493999D01*
X143009Y1495998D01*
X149007D01*
X854000Y1798996D02*
X846003D01*
X850001D01*
Y1787000D01*
X842004D02*
Y1798996D01*
X836006D01*
X834007Y1796997D01*
Y1792998D01*
X836006Y1790999D01*
X842004D01*
X830008Y1787000D02*
X826009D01*
X828008D01*
Y1798996D01*
X830008Y1796997D01*
X820011D02*
X818012Y1798996D01*
X814013D01*
X812014Y1796997D01*
Y1788999D01*
X814013Y1787000D01*
X818012D01*
X820011Y1788999D01*
Y1796997D01*
X854000Y1748996D02*
X846003D01*
X850001D01*
Y1737000D01*
X842004D02*
Y1748996D01*
X836006D01*
X834007Y1746997D01*
Y1742998D01*
X836006Y1740999D01*
X842004D01*
X830008Y1738999D02*
X828008Y1737000D01*
X824010D01*
X822010Y1738999D01*
Y1746997D01*
X824010Y1748996D01*
X828008D01*
X830008Y1746997D01*
Y1744997D01*
X828008Y1742998D01*
X822010D01*
X875997Y1860997D02*
X877996Y1858998D01*
Y1854999D01*
X875997Y1853000D01*
X867999D01*
X866000Y1854999D01*
Y1858998D01*
X867999Y1860997D01*
Y1864996D02*
X866000Y1866996D01*
Y1870994D01*
X867999Y1872993D01*
X875997D01*
X877996Y1870994D01*
Y1866996D01*
X875997Y1864996D01*
X873997D01*
X871998Y1866996D01*
Y1872993D01*
X866000Y1876992D02*
Y1880991D01*
Y1878992D01*
X877996D01*
X875997Y1876992D01*
X945003Y1913997D02*
X947002Y1915996D01*
X951001D01*
X953000Y1913997D01*
Y1905999D01*
X951001Y1904000D01*
X947002D01*
X945003Y1905999D01*
X941004Y1913997D02*
X939005Y1915996D01*
X935006D01*
X933007Y1913997D01*
Y1911997D01*
X935006Y1909998D01*
X933007Y1907999D01*
Y1905999D01*
X935006Y1904000D01*
X939005D01*
X941004Y1905999D01*
Y1907999D01*
X939005Y1909998D01*
X941004Y1911997D01*
Y1913997D01*
X939005Y1909998D02*
X935006D01*
X921010Y1915996D02*
X929008D01*
Y1909998D01*
X925009Y1911997D01*
X923010D01*
X921010Y1909998D01*
Y1905999D01*
X923010Y1904000D01*
X927008D01*
X929008Y1905999D01*
X945003Y1881746D02*
X953000D01*
Y1875748D01*
X949001D01*
X953000D01*
Y1869750D01*
X941004Y1881746D02*
Y1869750D01*
X935006D01*
X933007Y1871749D01*
Y1873749D01*
X935006Y1875748D01*
X941004D01*
X935006D01*
X933007Y1877747D01*
Y1879747D01*
X935006Y1881746D01*
X941004D01*
X929008Y1871749D02*
X927008Y1869750D01*
X923010D01*
X921010Y1871749D01*
Y1879747D01*
X923010Y1881746D01*
X927008D01*
X929008Y1879747D01*
Y1877747D01*
X927008Y1875748D01*
X921010D01*
X915000Y1832000D02*
Y1843996D01*
X909002D01*
X907003Y1841997D01*
Y1837998D01*
X909002Y1835999D01*
X915000D01*
X911001D02*
X907003Y1832000D01*
X903004Y1833999D02*
X901004Y1832000D01*
X897006D01*
X895006Y1833999D01*
Y1841997D01*
X897006Y1843996D01*
X901004D01*
X903004Y1841997D01*
Y1839997D01*
X901004Y1837998D01*
X895006D01*
X883010Y1832000D02*
X891008D01*
X883010Y1839997D01*
Y1841997D01*
X885010Y1843996D01*
X889008D01*
X891008Y1841997D01*
X915000Y1811000D02*
Y1822996D01*
X909002D01*
X907003Y1820997D01*
Y1816998D01*
X909002Y1814999D01*
X915000D01*
X911001D02*
X907003Y1811000D01*
X895006Y1822996D02*
X899005Y1820997D01*
X903004Y1816998D01*
Y1812999D01*
X901004Y1811000D01*
X897006D01*
X895006Y1812999D01*
Y1814999D01*
X897006Y1816998D01*
X903004D01*
X1008003Y1898996D02*
X1016000D01*
Y1892998D01*
X1012001D01*
X1016000D01*
Y1887000D01*
X1004004Y1898996D02*
Y1887000D01*
X998006D01*
X996006Y1888999D01*
Y1890999D01*
X998006Y1892998D01*
X1004004D01*
X998006D01*
X996006Y1894997D01*
Y1896997D01*
X998006Y1898996D01*
X1004004D01*
X992008Y1887000D02*
X988009D01*
X990008D01*
Y1898996D01*
X992008Y1896997D01*
X982011Y1887000D02*
X978012D01*
X980012D01*
Y1898996D01*
X982011Y1896997D01*
X1014000Y1812996D02*
Y1802999D01*
X1012001Y1801000D01*
X1008002D01*
X1006003Y1802999D01*
Y1812996D01*
X1002004Y1801000D02*
X998005D01*
X1000005D01*
Y1812996D01*
X1002004Y1810997D01*
X992007D02*
X990008Y1812996D01*
X986009D01*
X984010Y1810997D01*
Y1808997D01*
X986009Y1806998D01*
X988008D01*
X986009D01*
X984010Y1804999D01*
Y1802999D01*
X986009Y1801000D01*
X990008D01*
X992007Y1802999D01*
X1086997Y1867997D02*
X1088996Y1865998D01*
Y1861999D01*
X1086997Y1860000D01*
X1078999D01*
X1077000Y1861999D01*
Y1865998D01*
X1078999Y1867997D01*
X1086997Y1871996D02*
X1088996Y1873996D01*
Y1877994D01*
X1086997Y1879993D01*
X1084997D01*
X1082998Y1877994D01*
X1080999Y1879993D01*
X1078999D01*
X1077000Y1877994D01*
Y1873996D01*
X1078999Y1871996D01*
X1080999D01*
X1082998Y1873996D01*
X1084997Y1871996D01*
X1086997D01*
X1082998Y1873996D02*
Y1877994D01*
X1077000Y1889990D02*
X1088996D01*
X1082998Y1883992D01*
Y1891990D01*
X968003Y1774997D02*
X970002Y1776996D01*
X974001D01*
X976000Y1774997D01*
Y1766999D01*
X974001Y1765000D01*
X970002D01*
X968003Y1766999D01*
X964004D02*
X962004Y1765000D01*
X958006D01*
X956006Y1766999D01*
Y1774997D01*
X958006Y1776996D01*
X962004D01*
X964004Y1774997D01*
Y1772997D01*
X962004Y1770998D01*
X956006D01*
X952008Y1774997D02*
X950008Y1776996D01*
X946010D01*
X944010Y1774997D01*
Y1772997D01*
X946010Y1770998D01*
X948009D01*
X946010D01*
X944010Y1768999D01*
Y1766999D01*
X946010Y1765000D01*
X950008D01*
X952008Y1766999D01*
X976000Y1709000D02*
Y1720996D01*
X970002D01*
X968003Y1718997D01*
Y1714998D01*
X970002Y1712999D01*
X976000D01*
X972001D02*
X968003Y1709000D01*
X964004Y1710999D02*
X962004Y1709000D01*
X958006D01*
X956006Y1710999D01*
Y1718997D01*
X958006Y1720996D01*
X962004D01*
X964004Y1718997D01*
Y1716997D01*
X962004Y1714998D01*
X956006D01*
X946010Y1709000D02*
Y1720996D01*
X952008Y1714998D01*
X944010D01*
X968003Y1758997D02*
X970002Y1760996D01*
X974001D01*
X976000Y1758997D01*
Y1750999D01*
X974001Y1749000D01*
X970002D01*
X968003Y1750999D01*
X964004D02*
X962004Y1749000D01*
X958006D01*
X956006Y1750999D01*
Y1758997D01*
X958006Y1760996D01*
X962004D01*
X964004Y1758997D01*
Y1756997D01*
X962004Y1754998D01*
X956006D01*
X952008Y1750999D02*
X950008Y1749000D01*
X946010D01*
X944010Y1750999D01*
Y1758997D01*
X946010Y1760996D01*
X950008D01*
X952008Y1758997D01*
Y1756997D01*
X950008Y1754998D01*
X944010D01*
X1048996Y1749000D02*
X1038999D01*
X1037000Y1750999D01*
Y1754998D01*
X1038999Y1756997D01*
X1048996D01*
X1037000Y1760996D02*
Y1764995D01*
Y1762995D01*
X1048996D01*
X1046997Y1760996D01*
Y1770993D02*
X1048996Y1772992D01*
Y1776991D01*
X1046997Y1778990D01*
X1038999D01*
X1037000Y1776991D01*
Y1772992D01*
X1038999Y1770993D01*
X1046997D01*
X1068997Y1822997D02*
X1070996Y1820998D01*
Y1816999D01*
X1068997Y1815000D01*
X1060999D01*
X1059000Y1816999D01*
Y1820998D01*
X1060999Y1822997D01*
X1068997Y1826996D02*
X1070996Y1828996D01*
Y1832994D01*
X1068997Y1834993D01*
X1066997D01*
X1064998Y1832994D01*
X1062999Y1834993D01*
X1060999D01*
X1059000Y1832994D01*
Y1828996D01*
X1060999Y1826996D01*
X1062999D01*
X1064998Y1828996D01*
X1066997Y1826996D01*
X1068997D01*
X1064998Y1828996D02*
Y1832994D01*
X1070996Y1838992D02*
Y1846990D01*
X1068997D01*
X1060999Y1838992D01*
X1059000D01*
X1087996Y1822997D02*
Y1815000D01*
X1081998D01*
Y1818999D01*
Y1815000D01*
X1076000D01*
X1087996Y1826996D02*
X1076000D01*
Y1832994D01*
X1077999Y1834993D01*
X1079999D01*
X1081998Y1832994D01*
Y1826996D01*
Y1832994D01*
X1083997Y1834993D01*
X1085997D01*
X1087996Y1832994D01*
Y1826996D01*
X1085997Y1838992D02*
X1087996Y1840992D01*
Y1844990D01*
X1085997Y1846990D01*
X1083997D01*
X1081998Y1844990D01*
X1079999Y1846990D01*
X1077999D01*
X1076000Y1844990D01*
Y1840992D01*
X1077999Y1838992D01*
X1079999D01*
X1081998Y1840992D01*
X1083997Y1838992D01*
X1085997D01*
X1081998Y1840992D02*
Y1844990D01*
X1168996Y1821000D02*
X1157000D01*
Y1828997D01*
Y1840993D02*
Y1832996D01*
X1164997Y1840993D01*
X1166997D01*
X1168996Y1838994D01*
Y1834996D01*
X1166997Y1832996D01*
X1184003Y1807997D02*
X1186002Y1809996D01*
X1190001D01*
X1192000Y1807997D01*
Y1799999D01*
X1190001Y1798000D01*
X1186002D01*
X1184003Y1799999D01*
X1180004D02*
X1178005Y1798000D01*
X1174006D01*
X1172007Y1799999D01*
Y1807997D01*
X1174006Y1809996D01*
X1178005D01*
X1180004Y1807997D01*
Y1805997D01*
X1178005Y1803998D01*
X1172007D01*
X1168008Y1807997D02*
X1166008Y1809996D01*
X1162010D01*
X1160010Y1807997D01*
Y1799999D01*
X1162010Y1798000D01*
X1166008D01*
X1168008Y1799999D01*
Y1807997D01*
X1192000Y1780000D02*
Y1791996D01*
X1186002D01*
X1184003Y1789997D01*
Y1785998D01*
X1186002Y1783999D01*
X1192000D01*
X1188001D02*
X1184003Y1780000D01*
X1180004Y1789997D02*
X1178005Y1791996D01*
X1174006D01*
X1172007Y1789997D01*
Y1787997D01*
X1174006Y1785998D01*
X1172007Y1783999D01*
Y1781999D01*
X1174006Y1780000D01*
X1178005D01*
X1180004Y1781999D01*
Y1783999D01*
X1178005Y1785998D01*
X1180004Y1787997D01*
Y1789997D01*
X1178005Y1785998D02*
X1174006D01*
X1168008Y1789997D02*
X1166008Y1791996D01*
X1162010D01*
X1160010Y1789997D01*
Y1787997D01*
X1162010Y1785998D01*
X1160010Y1783999D01*
Y1781999D01*
X1162010Y1780000D01*
X1166008D01*
X1168008Y1781999D01*
Y1783999D01*
X1166008Y1785998D01*
X1168008Y1787997D01*
Y1789997D01*
X1166008Y1785998D02*
X1162010D01*
X1192000Y1729996D02*
Y1718000D01*
X1186002D01*
X1184003Y1719999D01*
Y1727997D01*
X1186002Y1729996D01*
X1192000D01*
X1180004Y1718000D02*
X1176005D01*
X1178005D01*
Y1729996D01*
X1180004Y1727997D01*
X1170007D02*
X1168008Y1729996D01*
X1164009D01*
X1162010Y1727997D01*
Y1725997D01*
X1164009Y1723998D01*
X1166008D01*
X1164009D01*
X1162010Y1721999D01*
Y1719999D01*
X1164009Y1718000D01*
X1168008D01*
X1170007Y1719999D01*
X1037000Y1711996D02*
Y1701999D01*
X1035001Y1700000D01*
X1031002D01*
X1029003Y1701999D01*
Y1711996D01*
X1025004Y1700000D02*
X1021005D01*
X1023005D01*
Y1711996D01*
X1025004Y1709997D01*
X1007010Y1711996D02*
X1015007D01*
Y1705998D01*
X1011008Y1707997D01*
X1009009D01*
X1007010Y1705998D01*
Y1701999D01*
X1009009Y1700000D01*
X1013008D01*
X1015007Y1701999D01*
X446553Y1591511D02*
X448552Y1593510D01*
X452551D01*
X454550Y1591511D01*
Y1583513D01*
X452551Y1581514D01*
X448552D01*
X446553Y1583513D01*
X442554Y1593510D02*
X434556D01*
Y1591511D01*
X442554Y1583513D01*
Y1581514D01*
X430558Y1593510D02*
X422560D01*
Y1591511D01*
X430558Y1583513D01*
Y1581514D01*
X446553Y1403551D02*
X448552Y1405550D01*
X452551D01*
X454550Y1403551D01*
Y1395553D01*
X452551Y1393554D01*
X448552D01*
X446553Y1395553D01*
X442554Y1405550D02*
X434556D01*
Y1403551D01*
X442554Y1395553D01*
Y1393554D01*
X422560Y1405550D02*
X426559Y1403551D01*
X430558Y1399552D01*
Y1395553D01*
X428558Y1393554D01*
X424560D01*
X422560Y1395553D01*
Y1397553D01*
X424560Y1399552D01*
X430558D01*
X446553Y1215591D02*
X448552Y1217590D01*
X452551D01*
X454550Y1215591D01*
Y1207593D01*
X452551Y1205594D01*
X448552D01*
X446553Y1207593D01*
X442554Y1217590D02*
X434556D01*
Y1215591D01*
X442554Y1207593D01*
Y1205594D01*
X422560Y1217590D02*
X430558D01*
Y1211592D01*
X426559Y1213591D01*
X424560D01*
X422560Y1211592D01*
Y1207593D01*
X424560Y1205594D01*
X428558D01*
X430558Y1207593D01*
X820473Y1216591D02*
X822472Y1218590D01*
X826471D01*
X828470Y1216591D01*
Y1208593D01*
X826471Y1206594D01*
X822472D01*
X820473Y1208593D01*
X816474Y1218590D02*
X808476D01*
Y1216591D01*
X816474Y1208593D01*
Y1206594D01*
X796480D02*
X804478D01*
X796480Y1214591D01*
Y1216591D01*
X798480Y1218590D01*
X802478D01*
X804478Y1216591D01*
X821003Y1589997D02*
X823002Y1591996D01*
X827001D01*
X829000Y1589997D01*
Y1581999D01*
X827001Y1580000D01*
X823002D01*
X821003Y1581999D01*
X817004Y1591996D02*
X809007D01*
Y1589997D01*
X817004Y1581999D01*
Y1580000D01*
X799010D02*
Y1591996D01*
X805008Y1585998D01*
X797010D01*
X821003Y1401997D02*
X823002Y1403996D01*
X827001D01*
X829000Y1401997D01*
Y1393999D01*
X827001Y1392000D01*
X823002D01*
X821003Y1393999D01*
X817004Y1403996D02*
X809007D01*
Y1401997D01*
X817004Y1393999D01*
Y1392000D01*
X805008Y1401997D02*
X803008Y1403996D01*
X799010D01*
X797010Y1401997D01*
Y1399997D01*
X799010Y1397998D01*
X801009D01*
X799010D01*
X797010Y1395999D01*
Y1393999D01*
X799010Y1392000D01*
X803008D01*
X805008Y1393999D01*
X1008003Y1456997D02*
X1010002Y1458996D01*
X1014001D01*
X1016000Y1456997D01*
Y1448999D01*
X1014001Y1447000D01*
X1010002D01*
X1008003Y1448999D01*
X1004004Y1458996D02*
X996006D01*
Y1456997D01*
X1004004Y1448999D01*
Y1447000D01*
X992008Y1456997D02*
X990008Y1458996D01*
X986010D01*
X984010Y1456997D01*
Y1448999D01*
X986010Y1447000D01*
X990008D01*
X992008Y1448999D01*
Y1456997D01*
X1009003Y1536997D02*
X1011002Y1538996D01*
X1015001D01*
X1017000Y1536997D01*
Y1528999D01*
X1015001Y1527000D01*
X1011002D01*
X1009003Y1528999D01*
X1005004Y1538996D02*
X997007D01*
Y1536997D01*
X1005004Y1528999D01*
Y1527000D01*
X993008D02*
X989009D01*
X991008D01*
Y1538996D01*
X993008Y1536997D01*
X1110000Y1417996D02*
Y1406000D01*
X1104002D01*
X1102003Y1407999D01*
Y1415997D01*
X1104002Y1417996D01*
X1110000D01*
X1098004Y1406000D02*
X1094005D01*
X1096004D01*
Y1417996D01*
X1098004Y1415997D01*
X1088007Y1417996D02*
X1080010D01*
Y1415997D01*
X1088007Y1407999D01*
Y1406000D01*
X1037000Y1338996D02*
Y1328999D01*
X1035001Y1327000D01*
X1031002D01*
X1029003Y1328999D01*
Y1338996D01*
X1025004Y1327000D02*
X1021005D01*
X1023005D01*
Y1338996D01*
X1025004Y1336997D01*
X1015007Y1328999D02*
X1013008Y1327000D01*
X1009009D01*
X1007010Y1328999D01*
Y1336997D01*
X1009009Y1338996D01*
X1013008D01*
X1015007Y1336997D01*
Y1334997D01*
X1013008Y1332998D01*
X1007010D01*
X1085000Y1189000D02*
Y1200996D01*
X1079002D01*
X1077003Y1198997D01*
Y1194998D01*
X1079002Y1192999D01*
X1085000D01*
X1081001D02*
X1077003Y1189000D01*
X1073004D02*
X1069005D01*
X1071004D01*
Y1200996D01*
X1073004Y1198997D01*
X1063007D02*
X1061008Y1200996D01*
X1057009D01*
X1055010Y1198997D01*
Y1190999D01*
X1057009Y1189000D01*
X1061008D01*
X1063007Y1190999D01*
Y1198997D01*
X1045013Y1189000D02*
Y1200996D01*
X1051011Y1194998D01*
X1043014D01*
X915000Y1056000D02*
Y1067996D01*
X909002D01*
X907003Y1065997D01*
Y1061998D01*
X909002Y1059999D01*
X915000D01*
X911001D02*
X907003Y1056000D01*
X895006D02*
X903004D01*
X895006Y1063997D01*
Y1065997D01*
X897006Y1067996D01*
X901004D01*
X903004Y1065997D01*
X891008Y1067996D02*
X883010D01*
Y1065997D01*
X891008Y1057999D01*
Y1056000D01*
X906003Y1050996D02*
X914000D01*
Y1044998D01*
X910001D01*
X914000D01*
Y1039000D01*
X902004Y1050996D02*
Y1039000D01*
X896006D01*
X894007Y1040999D01*
Y1042999D01*
X896006Y1044998D01*
X902004D01*
X896006D01*
X894007Y1046997D01*
Y1048997D01*
X896006Y1050996D01*
X902004D01*
X890008Y1039000D02*
X886009D01*
X888008D01*
Y1050996D01*
X890008Y1048997D01*
X872014Y1050996D02*
X880011D01*
Y1044998D01*
X876012Y1046997D01*
X874013D01*
X872014Y1044998D01*
Y1040999D01*
X874013Y1039000D01*
X878012D01*
X880011Y1040999D01*
X955003Y1013997D02*
X957002Y1015996D01*
X961001D01*
X963000Y1013997D01*
Y1005999D01*
X961001Y1004000D01*
X957002D01*
X955003Y1005999D01*
X951004Y1004000D02*
X947005D01*
X949005D01*
Y1015996D01*
X951004Y1013997D01*
X941007D02*
X939008Y1015996D01*
X935009D01*
X933010Y1013997D01*
Y1011997D01*
X935009Y1009998D01*
X937008D01*
X935009D01*
X933010Y1007999D01*
Y1005999D01*
X935009Y1004000D01*
X939008D01*
X941007Y1005999D01*
X929011Y1013997D02*
X927012Y1015996D01*
X923013D01*
X921014Y1013997D01*
Y1005999D01*
X923013Y1004000D01*
X927012D01*
X929011Y1005999D01*
Y1013997D01*
X876997Y994997D02*
X878996Y992998D01*
Y988999D01*
X876997Y987000D01*
X868999D01*
X867000Y988999D01*
Y992998D01*
X868999Y994997D01*
X867000Y998996D02*
Y1002995D01*
Y1000995D01*
X878996D01*
X876997Y998996D01*
Y1008993D02*
X878996Y1010992D01*
Y1014991D01*
X876997Y1016990D01*
X874997D01*
X872998Y1014991D01*
Y1012992D01*
Y1014991D01*
X870999Y1016990D01*
X868999D01*
X867000Y1014991D01*
Y1010992D01*
X868999Y1008993D01*
X867000Y1026987D02*
X878996D01*
X872998Y1020989D01*
Y1028986D01*
X916000Y1111996D02*
X908003D01*
X912001D01*
Y1100000D01*
X904004D02*
Y1111996D01*
X898006D01*
X896006Y1109997D01*
Y1105998D01*
X898006Y1103999D01*
X904004D01*
X892008Y1100000D02*
X888009D01*
X890008D01*
Y1111996D01*
X892008Y1109997D01*
X882011D02*
X880012Y1111996D01*
X876013D01*
X874014Y1109997D01*
Y1107997D01*
X876013Y1105998D01*
X878012D01*
X876013D01*
X874014Y1103999D01*
Y1101999D01*
X876013Y1100000D01*
X880012D01*
X882011Y1101999D01*
X968000Y1111996D02*
X960003D01*
X964001D01*
Y1100000D01*
X956004D02*
Y1111996D01*
X950006D01*
X948007Y1109997D01*
Y1105998D01*
X950006Y1103999D01*
X956004D01*
X944008Y1100000D02*
X940009D01*
X942008D01*
Y1111996D01*
X944008Y1109997D01*
X928013Y1100000D02*
Y1111996D01*
X934011Y1105998D01*
X926014D01*
X981000Y1141000D02*
Y1152996D01*
X975002D01*
X973003Y1150997D01*
Y1146998D01*
X975002Y1144999D01*
X981000D01*
X977001D02*
X973003Y1141000D01*
X969004D02*
X965005D01*
X967004D01*
Y1152996D01*
X969004Y1150997D01*
X959007D02*
X957008Y1152996D01*
X953009D01*
X951010Y1150997D01*
Y1142999D01*
X953009Y1141000D01*
X957008D01*
X959007Y1142999D01*
Y1150997D01*
X947011D02*
X945012Y1152996D01*
X941013D01*
X939014Y1150997D01*
Y1148997D01*
X941013Y1146998D01*
X939014Y1144999D01*
Y1142999D01*
X941013Y1141000D01*
X945012D01*
X947011Y1142999D01*
Y1144999D01*
X945012Y1146998D01*
X947011Y1148997D01*
Y1150997D01*
X945012Y1146998D02*
X941013D01*
X973003Y1133997D02*
X975002Y1135996D01*
X979001D01*
X981000Y1133997D01*
Y1125999D01*
X979001Y1124000D01*
X975002D01*
X973003Y1125999D01*
X969004Y1124000D02*
X965005D01*
X967004D01*
Y1135996D01*
X969004Y1133997D01*
X959007Y1124000D02*
X955008D01*
X957008D01*
Y1135996D01*
X959007Y1133997D01*
X941013Y1135996D02*
X949010D01*
Y1129998D01*
X945012Y1131997D01*
X943012D01*
X941013Y1129998D01*
Y1125999D01*
X943012Y1124000D01*
X947011D01*
X949010Y1125999D01*
X1008003Y991996D02*
X1016000D01*
Y985998D01*
X1012001D01*
X1016000D01*
Y980000D01*
X1004004Y991996D02*
Y980000D01*
X998006D01*
X996006Y981999D01*
Y983999D01*
X998006Y985998D01*
X1004004D01*
X998006D01*
X996006Y987997D01*
Y989997D01*
X998006Y991996D01*
X1004004D01*
X992008Y980000D02*
X988009D01*
X990008D01*
Y991996D01*
X992008Y989997D01*
X982011D02*
X980012Y991996D01*
X976013D01*
X974014Y989997D01*
Y987997D01*
X976013Y985998D01*
X978012D01*
X976013D01*
X974014Y983999D01*
Y981999D01*
X976013Y980000D01*
X980012D01*
X982011Y981999D01*
X1050996Y1100000D02*
X1040999D01*
X1039000Y1101999D01*
Y1105998D01*
X1040999Y1107997D01*
X1050996D01*
X1039000Y1119994D02*
Y1111996D01*
X1046997Y1119994D01*
X1048997D01*
X1050996Y1117994D01*
Y1113996D01*
X1048997Y1111996D01*
Y1123992D02*
X1050996Y1125992D01*
Y1129990D01*
X1048997Y1131990D01*
X1046997D01*
X1044998Y1129990D01*
Y1127991D01*
Y1129990D01*
X1042999Y1131990D01*
X1040999D01*
X1039000Y1129990D01*
Y1125992D01*
X1040999Y1123992D01*
X1087997Y993997D02*
X1089996Y991998D01*
Y987999D01*
X1087997Y986000D01*
X1079999D01*
X1078000Y987999D01*
Y991998D01*
X1079999Y993997D01*
X1078000Y997996D02*
Y1001995D01*
Y999995D01*
X1089996D01*
X1087997Y997996D01*
X1078000Y1015990D02*
Y1007993D01*
X1085997Y1015990D01*
X1087997D01*
X1089996Y1013991D01*
Y1009992D01*
X1087997Y1007993D01*
X1079999Y1019989D02*
X1078000Y1021988D01*
Y1025987D01*
X1079999Y1027986D01*
X1087997D01*
X1089996Y1025987D01*
Y1021988D01*
X1087997Y1019989D01*
X1085997D01*
X1083998Y1021988D01*
Y1027986D01*
X1016000Y1072996D02*
Y1062999D01*
X1014001Y1061000D01*
X1010002D01*
X1008003Y1062999D01*
Y1072996D01*
X1004004Y1061000D02*
X1000005D01*
X1002004D01*
Y1072996D01*
X1004004Y1070997D01*
X994007Y1072996D02*
X986010D01*
Y1070997D01*
X994007Y1062999D01*
Y1061000D01*
X1070997Y1107997D02*
X1072996Y1105998D01*
Y1101999D01*
X1070997Y1100000D01*
X1062999D01*
X1061000Y1101999D01*
Y1105998D01*
X1062999Y1107997D01*
X1061000Y1111996D02*
Y1115995D01*
Y1113996D01*
X1072996D01*
X1070997Y1111996D01*
Y1121993D02*
X1072996Y1123992D01*
Y1127991D01*
X1070997Y1129990D01*
X1068997D01*
X1066998Y1127991D01*
Y1125992D01*
Y1127991D01*
X1064999Y1129990D01*
X1062999D01*
X1061000Y1127991D01*
Y1123992D01*
X1062999Y1121993D01*
X1072996Y1141986D02*
X1070997Y1137988D01*
X1066998Y1133989D01*
X1062999D01*
X1061000Y1135988D01*
Y1139987D01*
X1062999Y1141986D01*
X1064999D01*
X1066998Y1139987D01*
Y1133989D01*
X1088996Y1108997D02*
Y1101000D01*
X1082998D01*
Y1104999D01*
Y1101000D01*
X1077000D01*
X1088996Y1112996D02*
X1077000D01*
Y1118994D01*
X1078999Y1120993D01*
X1080999D01*
X1082998Y1118994D01*
Y1112996D01*
Y1118994D01*
X1084997Y1120993D01*
X1086997D01*
X1088996Y1118994D01*
Y1112996D01*
X1077000Y1124992D02*
Y1128991D01*
Y1126992D01*
X1088996D01*
X1086997Y1124992D01*
X1088996Y1134989D02*
Y1142986D01*
X1086997D01*
X1078999Y1134989D01*
X1077000D01*
X1207000Y1083000D02*
Y1094996D01*
X1201002D01*
X1199003Y1092997D01*
Y1088998D01*
X1201002Y1086999D01*
X1207000D01*
X1203001D02*
X1199003Y1083000D01*
X1195004D02*
X1191005D01*
X1193005D01*
Y1094996D01*
X1195004Y1092997D01*
X1177010Y1083000D02*
X1185007D01*
X1177010Y1090997D01*
Y1092997D01*
X1179009Y1094996D01*
X1183008D01*
X1185007Y1092997D01*
X1173011D02*
X1171012Y1094996D01*
X1167013D01*
X1165014Y1092997D01*
Y1090997D01*
X1167013Y1088998D01*
X1169012D01*
X1167013D01*
X1165014Y1086999D01*
Y1084999D01*
X1167013Y1083000D01*
X1171012D01*
X1173011Y1084999D01*
X1197003Y1073997D02*
X1199002Y1075996D01*
X1203001D01*
X1205000Y1073997D01*
Y1065999D01*
X1203001Y1064000D01*
X1199002D01*
X1197003Y1065999D01*
X1193004Y1064000D02*
X1189005D01*
X1191004D01*
Y1075996D01*
X1193004Y1073997D01*
X1183007D02*
X1181008Y1075996D01*
X1177009D01*
X1175010Y1073997D01*
Y1071997D01*
X1177009Y1069998D01*
X1179008D01*
X1177009D01*
X1175010Y1067999D01*
Y1065999D01*
X1177009Y1064000D01*
X1181008D01*
X1183007Y1065999D01*
X1171011Y1073997D02*
X1169012Y1075996D01*
X1165013D01*
X1163014Y1073997D01*
Y1071997D01*
X1165013Y1069998D01*
X1167012D01*
X1165013D01*
X1163014Y1067999D01*
Y1065999D01*
X1165013Y1064000D01*
X1169012D01*
X1171011Y1065999D01*
X1171996Y991000D02*
X1160000D01*
Y998997D01*
Y1008994D02*
X1171996D01*
X1165998Y1002996D01*
Y1010993D01*
X1182000Y800000D02*
Y811996D01*
X1176002D01*
X1174003Y809997D01*
Y805998D01*
X1176002Y803999D01*
X1182000D01*
X1178001D02*
X1174003Y800000D01*
X1170004D02*
X1166005D01*
X1168005D01*
Y811996D01*
X1170004Y809997D01*
X1160007D02*
X1158008Y811996D01*
X1154009D01*
X1152010Y809997D01*
Y807997D01*
X1154009Y805998D01*
X1156008D01*
X1154009D01*
X1152010Y803999D01*
Y801999D01*
X1154009Y800000D01*
X1158008D01*
X1160007Y801999D01*
X1182000Y746000D02*
Y757996D01*
X1176002D01*
X1174003Y755997D01*
Y751998D01*
X1176002Y749999D01*
X1182000D01*
X1178001D02*
X1174003Y746000D01*
X1170004Y755997D02*
X1168005Y757996D01*
X1164006D01*
X1162007Y755997D01*
Y753997D01*
X1164006Y751998D01*
X1162007Y749999D01*
Y747999D01*
X1164006Y746000D01*
X1168005D01*
X1170004Y747999D01*
Y749999D01*
X1168005Y751998D01*
X1170004Y753997D01*
Y755997D01*
X1168005Y751998D02*
X1164006D01*
X1120999Y810997D02*
X1128997D01*
X1130996Y808998D01*
Y804999D01*
X1128997Y803000D01*
X1120999D01*
X1119000Y804999D01*
Y808998D01*
X1122999Y806999D02*
X1119000Y810997D01*
Y808998D02*
X1120999Y810997D01*
X1119000Y814996D02*
Y818995D01*
Y816995D01*
X1130996D01*
X1128997Y814996D01*
X1101997Y815997D02*
X1103996Y813998D01*
Y809999D01*
X1101997Y808000D01*
X1093999D01*
X1092000Y809999D01*
Y813998D01*
X1093999Y815997D01*
X1092000Y819996D02*
Y823995D01*
Y821995D01*
X1103996D01*
X1101997Y819996D01*
X1030996Y803000D02*
X1019000D01*
Y808998D01*
X1020999Y810997D01*
X1028997D01*
X1030996Y808998D01*
Y803000D01*
X1019000Y814996D02*
Y818995D01*
Y816995D01*
X1030996D01*
X1028997Y814996D01*
X964997Y671997D02*
X966996Y669998D01*
Y665999D01*
X964997Y664000D01*
X956999D01*
X955000Y665999D01*
Y669998D01*
X956999Y671997D01*
X955000Y681994D02*
X966996D01*
X960998Y675996D01*
Y683994D01*
X963997Y764997D02*
X965996Y762998D01*
Y758999D01*
X963997Y757000D01*
X955999D01*
X954000Y758999D01*
Y762998D01*
X955999Y764997D01*
X963997Y768996D02*
X965996Y770995D01*
Y774994D01*
X963997Y776993D01*
X961997D01*
X959998Y774994D01*
Y772995D01*
Y774994D01*
X957999Y776993D01*
X955999D01*
X954000Y774994D01*
Y770995D01*
X955999Y768996D01*
X1002997Y729997D02*
X1004996Y727998D01*
Y723999D01*
X1002997Y722000D01*
X994999D01*
X993000Y723999D01*
Y727998D01*
X994999Y729997D01*
X993000Y741993D02*
Y733996D01*
X1000997Y741993D01*
X1002997D01*
X1004996Y739994D01*
Y735995D01*
X1002997Y733996D01*
X1004996Y695997D02*
Y688000D01*
X998998D01*
Y691999D01*
Y688000D01*
X993000D01*
X1004996Y699996D02*
X993000D01*
Y705994D01*
X994999Y707993D01*
X996999D01*
X998998Y705994D01*
Y699996D01*
Y705994D01*
X1000997Y707993D01*
X1002997D01*
X1004996Y705994D01*
Y699996D01*
X993000Y711992D02*
Y715991D01*
Y713992D01*
X1004996D01*
X1002997Y711992D01*
X1031996Y683000D02*
X1020000D01*
Y688998D01*
X1021999Y690997D01*
X1029997D01*
X1031996Y688998D01*
Y683000D01*
Y694996D02*
Y702993D01*
X1029997D01*
X1021999Y694996D01*
X1020000D01*
X1101997Y695997D02*
X1103996Y693998D01*
Y689999D01*
X1101997Y688000D01*
X1093999D01*
X1092000Y689999D01*
Y693998D01*
X1093999Y695997D01*
X1092000Y699996D02*
Y703995D01*
Y701995D01*
X1103996D01*
X1101997Y699996D01*
X1092000Y715991D02*
X1103996D01*
X1097998Y709993D01*
Y717990D01*
X1121749Y689247D02*
X1129747D01*
X1131746Y687248D01*
Y683249D01*
X1129747Y681250D01*
X1121749D01*
X1119750Y683249D01*
Y687248D01*
X1123749Y685249D02*
X1119750Y689247D01*
Y687248D02*
X1121749Y689247D01*
X1129747Y693246D02*
X1131746Y695246D01*
Y699244D01*
X1129747Y701244D01*
X1127747D01*
X1125748Y699244D01*
Y697245D01*
Y699244D01*
X1123749Y701244D01*
X1121749D01*
X1119750Y699244D01*
Y695246D01*
X1121749Y693246D01*
X1181000Y681500D02*
Y693496D01*
X1175002D01*
X1173003Y691497D01*
Y687498D01*
X1175002Y685499D01*
X1181000D01*
X1177001D02*
X1173003Y681500D01*
X1161006D02*
X1169004D01*
X1161006Y689497D01*
Y691497D01*
X1163006Y693496D01*
X1167004D01*
X1169004Y691497D01*
X1157008D02*
X1155008Y693496D01*
X1151010D01*
X1149010Y691497D01*
Y689497D01*
X1151010Y687498D01*
X1149010Y685499D01*
Y683499D01*
X1151010Y681500D01*
X1155008D01*
X1157008Y683499D01*
Y685499D01*
X1155008Y687498D01*
X1157008Y689497D01*
Y691497D01*
X1155008Y687498D02*
X1151010D01*
X1181750Y626750D02*
Y638746D01*
X1175752D01*
X1173753Y636747D01*
Y632748D01*
X1175752Y630749D01*
X1181750D01*
X1177751D02*
X1173753Y626750D01*
X1161757D02*
X1169754D01*
X1161757Y634747D01*
Y636747D01*
X1163756Y638746D01*
X1167755D01*
X1169754Y636747D01*
X1157758Y626750D02*
X1153759D01*
X1155758D01*
Y638746D01*
X1157758Y636747D01*
X161000Y662000D02*
X172996D01*
Y667998D01*
X170997Y669997D01*
X166998D01*
X164999Y667998D01*
Y662000D01*
Y665999D02*
X161000Y669997D01*
Y673996D02*
Y677995D01*
Y675995D01*
X172996D01*
X170997Y673996D01*
X179000Y662000D02*
X190996D01*
Y667998D01*
X188997Y669997D01*
X184998D01*
X182999Y667998D01*
Y662000D01*
Y665999D02*
X179000Y669997D01*
Y679994D02*
X190996D01*
X184998Y673996D01*
Y681993D01*
X197000Y662000D02*
X208996D01*
Y667998D01*
X206997Y669997D01*
X202998D01*
X200999Y667998D01*
Y662000D01*
Y665999D02*
X197000Y669997D01*
X208996Y673996D02*
Y681993D01*
X206997D01*
X198999Y673996D01*
X197000D01*
X216000Y662000D02*
X227996D01*
Y667998D01*
X225997Y669997D01*
X221998D01*
X219999Y667998D01*
Y662000D01*
Y665999D02*
X216000Y669997D01*
Y673996D02*
Y677995D01*
Y675995D01*
X227996D01*
X225997Y673996D01*
X216000Y683993D02*
Y687992D01*
Y685992D01*
X227996D01*
X225997Y683993D01*
X235000Y662000D02*
X246996D01*
Y667998D01*
X244997Y669997D01*
X240998D01*
X238999Y667998D01*
Y662000D01*
Y665999D02*
X235000Y669997D01*
Y673996D02*
Y677995D01*
Y675995D01*
X246996D01*
X244997Y673996D01*
X235000Y689991D02*
X246996D01*
X240998Y683993D01*
Y691990D01*
X265996Y662000D02*
X254000D01*
Y667998D01*
X255999Y669997D01*
X263997D01*
X265996Y667998D01*
Y662000D01*
Y681993D02*
Y673996D01*
X259998D01*
X261997Y677995D01*
Y679994D01*
X259998Y681993D01*
X255999D01*
X254000Y679994D01*
Y675995D01*
X255999Y673996D01*
X283997Y669997D02*
X285996Y667998D01*
Y663999D01*
X283997Y662000D01*
X275999D01*
X274000Y663999D01*
Y667998D01*
X275999Y669997D01*
X274000Y673996D02*
Y677995D01*
Y675995D01*
X285996D01*
X283997Y673996D01*
Y683993D02*
X285996Y685992D01*
Y689991D01*
X283997Y691990D01*
X281997D01*
X279998Y689991D01*
Y687992D01*
Y689991D01*
X277999Y691990D01*
X275999D01*
X274000Y689991D01*
Y685992D01*
X275999Y683993D01*
X183752Y1213002D02*
Y1201006D01*
X177754D01*
X175755Y1203005D01*
Y1211003D01*
X177754Y1213002D01*
X183752D01*
X171756Y1201006D02*
X167757D01*
X169757D01*
Y1213002D01*
X171756Y1211003D01*
X153762Y1201006D02*
X161759D01*
X153762Y1209003D01*
Y1211003D01*
X155761Y1213002D01*
X159760D01*
X161759Y1211003D01*
X913494Y301904D02*
Y291907D01*
X911495Y289908D01*
X907496D01*
X905497Y291907D01*
Y301904D01*
X893500D02*
X897499Y299905D01*
X901498Y295906D01*
Y291907D01*
X899499Y289908D01*
X895500D01*
X893500Y291907D01*
Y293907D01*
X895500Y295906D01*
X901498D01*
X327770Y1715922D02*
Y1705925D01*
X325771Y1703926D01*
X321772D01*
X319773Y1705925D01*
Y1715922D01*
X315774Y1703926D02*
X311775D01*
X313775D01*
Y1715922D01*
X315774Y1713923D01*
X305777D02*
X303778Y1715922D01*
X299779D01*
X297780Y1713923D01*
Y1711923D01*
X299779Y1709924D01*
X297780Y1707925D01*
Y1705925D01*
X299779Y1703926D01*
X303778D01*
X305777Y1705925D01*
Y1707925D01*
X303778Y1709924D01*
X305777Y1711923D01*
Y1713923D01*
X303778Y1709924D02*
X299779D01*
X327770Y1340002D02*
Y1330005D01*
X325771Y1328006D01*
X321772D01*
X319773Y1330005D01*
Y1340002D01*
X315774Y1328006D02*
X311775D01*
X313775D01*
Y1340002D01*
X315774Y1338003D01*
X299779Y1328006D02*
Y1340002D01*
X305777Y1334004D01*
X297780D01*
X844406Y269842D02*
Y281838D01*
X838408D01*
X836409Y279839D01*
Y275840D01*
X838408Y273841D01*
X844406D01*
X840407D02*
X836409Y269842D01*
X824412Y281838D02*
X828411Y279839D01*
X832410Y275840D01*
Y271841D01*
X830411Y269842D01*
X826412D01*
X824412Y271841D01*
Y273841D01*
X826412Y275840D01*
X832410D01*
X812416Y269842D02*
X820414D01*
X812416Y277839D01*
Y279839D01*
X814416Y281838D01*
X818414D01*
X820414Y279839D01*
X1220326Y1383886D02*
Y1395882D01*
X1214328D01*
X1212329Y1393883D01*
Y1389884D01*
X1214328Y1387885D01*
X1220326D01*
X1216327D02*
X1212329Y1383886D01*
X1208330D02*
X1204331D01*
X1206330D01*
Y1395882D01*
X1208330Y1393883D01*
X1198333Y1383886D02*
X1194334D01*
X1196334D01*
Y1395882D01*
X1198333Y1393883D01*
X1180339Y1395882D02*
X1184338Y1393883D01*
X1188336Y1389884D01*
Y1385885D01*
X1186337Y1383886D01*
X1182338D01*
X1180339Y1385885D01*
Y1387885D01*
X1182338Y1389884D01*
X1188336D01*
X1220000Y1760000D02*
Y1771996D01*
X1214002D01*
X1212003Y1769997D01*
Y1765998D01*
X1214002Y1763999D01*
X1220000D01*
X1216001D02*
X1212003Y1760000D01*
X1208004D02*
X1204005D01*
X1206004D01*
Y1771996D01*
X1208004Y1769997D01*
X1198007D02*
X1196008Y1771996D01*
X1192009D01*
X1190010Y1769997D01*
Y1761999D01*
X1192009Y1760000D01*
X1196008D01*
X1198007Y1761999D01*
Y1769997D01*
X1178014Y1760000D02*
X1186011D01*
X1178014Y1767997D01*
Y1769997D01*
X1180013Y1771996D01*
X1184012D01*
X1186011Y1769997D01*
X58276Y1551780D02*
Y1563776D01*
X52278D01*
X50279Y1561777D01*
Y1557778D01*
X52278Y1555779D01*
X58276D01*
X54277D02*
X50279Y1551780D01*
X46280D02*
X42281D01*
X44281D01*
Y1563776D01*
X46280Y1561777D01*
X36283Y1551780D02*
X32284D01*
X34284D01*
Y1563776D01*
X36283Y1561777D01*
X26286D02*
X24287Y1563776D01*
X20288D01*
X18289Y1561777D01*
Y1559777D01*
X20288Y1557778D01*
X22288D01*
X20288D01*
X18289Y1555779D01*
Y1553779D01*
X20288Y1551780D01*
X24287D01*
X26286Y1553779D01*
X58276Y1175860D02*
Y1187856D01*
X52278D01*
X50279Y1185857D01*
Y1181858D01*
X52278Y1179859D01*
X58276D01*
X54277D02*
X50279Y1175860D01*
X46280Y1177859D02*
X44281Y1175860D01*
X40282D01*
X38282Y1177859D01*
Y1185857D01*
X40282Y1187856D01*
X44281D01*
X46280Y1185857D01*
Y1183857D01*
X44281Y1181858D01*
X38282D01*
X34284Y1177859D02*
X32284Y1175860D01*
X28286D01*
X26286Y1177859D01*
Y1185857D01*
X28286Y1187856D01*
X32284D01*
X34284Y1185857D01*
Y1183857D01*
X32284Y1181858D01*
X26286D01*
X193404Y1709768D02*
Y1721764D01*
X187406D01*
X185407Y1719765D01*
Y1715766D01*
X187406Y1713767D01*
X193404D01*
X189405D02*
X185407Y1709768D01*
X181408D02*
X177409D01*
X179408D01*
Y1721764D01*
X181408Y1719765D01*
X171411D02*
X169412Y1721764D01*
X165413D01*
X163414Y1719765D01*
Y1711767D01*
X165413Y1709768D01*
X169412D01*
X171411Y1711767D01*
Y1719765D01*
X159415D02*
X157416Y1721764D01*
X153417D01*
X151418Y1719765D01*
Y1717765D01*
X153417Y1715766D01*
X155416D01*
X153417D01*
X151418Y1713767D01*
Y1711767D01*
X153417Y1709768D01*
X157416D01*
X159415Y1711767D01*
X193404Y1333848D02*
Y1345844D01*
X187406D01*
X185407Y1343845D01*
Y1339846D01*
X187406Y1337847D01*
X193404D01*
X189405D02*
X185407Y1333848D01*
X181408Y1343845D02*
X179408Y1345844D01*
X175410D01*
X173410Y1343845D01*
Y1341845D01*
X175410Y1339846D01*
X173410Y1337847D01*
Y1335847D01*
X175410Y1333848D01*
X179408D01*
X181408Y1335847D01*
Y1337847D01*
X179408Y1339846D01*
X181408Y1341845D01*
Y1343845D01*
X179408Y1339846D02*
X175410D01*
X169412Y1335847D02*
X167412Y1333848D01*
X163414D01*
X161414Y1335847D01*
Y1343845D01*
X163414Y1345844D01*
X167412D01*
X169412Y1343845D01*
Y1341845D01*
X167412Y1339846D01*
X161414D01*
X370319Y307746D02*
X378316D01*
Y301748D01*
X374317D01*
X378316D01*
Y295750D01*
X366320Y307746D02*
Y295750D01*
X360322D01*
X358322Y297749D01*
Y299749D01*
X360322Y301748D01*
X366320D01*
X360322D01*
X358322Y303747D01*
Y305747D01*
X360322Y307746D01*
X366320D01*
X346326Y295750D02*
X354324D01*
X346326Y303747D01*
Y305747D01*
X348326Y307746D01*
X352324D01*
X354324Y305747D01*
X255003Y992996D02*
X263000D01*
Y986998D01*
X259001D01*
X263000D01*
Y981000D01*
X251004Y992996D02*
Y981000D01*
X245006D01*
X243006Y982999D01*
Y984999D01*
X245006Y986998D01*
X251004D01*
X245006D01*
X243006Y988997D01*
Y990997D01*
X245006Y992996D01*
X251004D01*
X239008Y981000D02*
X235009D01*
X237008D01*
Y992996D01*
X239008Y990997D01*
X229011D02*
X227012Y992996D01*
X223013D01*
X221014Y990997D01*
Y982999D01*
X223013Y981000D01*
X227012D01*
X229011Y982999D01*
Y990997D01*
X232520Y386232D02*
Y374236D01*
X226522D01*
X224523Y376235D01*
Y384233D01*
X226522Y386232D01*
X232520D01*
X212526Y374236D02*
X220524D01*
X212526Y382233D01*
Y384233D01*
X214526Y386232D01*
X218524D01*
X220524Y384233D01*
X798817Y280347D02*
X800816Y282346D01*
X804815D01*
X806814Y280347D01*
Y272349D01*
X804815Y270350D01*
X800816D01*
X798817Y272349D01*
X794818Y280347D02*
X792819Y282346D01*
X788820D01*
X786820Y280347D01*
Y278347D01*
X788820Y276348D01*
X790819D01*
X788820D01*
X786820Y274349D01*
Y272349D01*
X788820Y270350D01*
X792819D01*
X794818Y272349D01*
X782822Y280347D02*
X780822Y282346D01*
X776824D01*
X774824Y280347D01*
Y278347D01*
X776824Y276348D01*
X774824Y274349D01*
Y272349D01*
X776824Y270350D01*
X780822D01*
X782822Y272349D01*
Y274349D01*
X780822Y276348D01*
X782822Y278347D01*
Y280347D01*
X780822Y276348D02*
X776824D01*
X386321Y202877D02*
X388320Y204876D01*
X392319D01*
X394318Y202877D01*
Y194879D01*
X392319Y192880D01*
X388320D01*
X386321Y194879D01*
X382322Y202877D02*
X380322Y204876D01*
X376324D01*
X374324Y202877D01*
Y200877D01*
X376324Y198878D01*
X378323D01*
X376324D01*
X374324Y196879D01*
Y194879D01*
X376324Y192880D01*
X380322D01*
X382322Y194879D01*
X362328Y204876D02*
X366327Y202877D01*
X370326Y198878D01*
Y194879D01*
X368326Y192880D01*
X364328D01*
X362328Y194879D01*
Y196879D01*
X364328Y198878D01*
X370326D01*
X601205Y414713D02*
X603204Y416712D01*
X607203D01*
X609202Y414713D01*
Y406715D01*
X607203Y404716D01*
X603204D01*
X601205Y406715D01*
X589208Y404716D02*
X597206D01*
X589208Y412713D01*
Y414713D01*
X591208Y416712D01*
X595206D01*
X597206Y414713D01*
X577212Y404716D02*
X585210D01*
X577212Y412713D01*
Y414713D01*
X579212Y416712D01*
X583210D01*
X585210Y414713D01*
X658355D02*
X660354Y416712D01*
X664353D01*
X666352Y414713D01*
Y406715D01*
X664353Y404716D01*
X660354D01*
X658355Y406715D01*
X646358Y404716D02*
X654356D01*
X646358Y412713D01*
Y414713D01*
X648358Y416712D01*
X652356D01*
X654356Y414713D01*
X642360Y404716D02*
X638361D01*
X640360D01*
Y416712D01*
X642360Y414713D01*
M02*
