M48
;Layer_Color=9474304
;FILE_FORMAT=4:4
METRIC,LZ
;TYPE=PLATED
T1F00S00C0.3000
T2F00S00C0.3500
T5F00S00C0.7000
T6F00S00C0.8000
T7F00S00C1.0000
T9F00S00C1.4000
T10F00S00C1.5000
T11F00S00C1.6000
T12F00S00C3.5000
;TYPE=NON_PLATED
T13F00S00C1.1000
%
T01
X00859Y0018
X00874Y00218
X00875Y00252
X0089
X00918Y00224
Y00208
Y00192
X0093Y00146
X00955Y0024
Y00256
X00996Y00246
X01003
X00928Y00282
X01035Y0013
X01065
Y0009
X01035Y00089
X01153Y00159
X01244Y00105
X01149Y00006
X0081Y0011
X00773
X00678Y00147
X0067
X00662
X00645Y00136
X00625Y00165
X00625Y00187
X0058Y00196
X0055Y00173
X00559Y00242
X00593Y0025
X00593Y00282
X00601
X00585
X00589Y00309
X00579Y00314
Y00329
X00553Y00331
Y00323
Y00344
Y00352
Y0036
X00542Y00338
X00532Y00308
X00515
X00603Y0032
X00635Y00309
X00655
X00671Y0032
Y00329
X00698Y0033
X00697999Y00339999
X00698Y00348
Y00356
Y00364
Y0031
X00717Y00324
X00668Y00282
X00658
X00648
X00649Y00255
Y00242
X00619Y00282
X00625Y00355
X00685Y00173
X0065Y0007
X00625Y00082
X006Y00069
X00625Y0002
X0081Y00208
X00848Y00227
X00791Y00277
X00386Y00167
X00373
X0036095Y00179
X00399Y00129
X00442Y0011
X00421Y00082
X00327Y00087
X00242Y00108
X00235
X00114Y00114
X00105Y00006
X00006Y00105
Y00505
Y00662
X00165
Y0065
X00166Y00725
Y00738
Y00751
Y00763
X00179Y00725
X00192
X00205
X00249
X00262
X00275
X00288
Y00738
Y00751
Y00763
X00314
Y00751
Y00738
Y00725
X00381Y00662
X00452Y00655
X00451Y00485
X00266Y0056
X00227Y00546
X0025Y00598
X00498Y00655
Y00692
X00602Y00655
X00648
Y00692
X00753Y00695
Y00655
X00763Y00569
Y0053
X008
X0082
X0084
X00755Y00485
X00737
Y00439
X00719
X00689
X00668Y00429
X0066
X00652
X00644
X00636
X00628
X0062
X00611
X00603
X00595
X00587
Y00401
X00599999Y00400999
X00625Y00385
X00671
Y00393
X00698Y00372
X00689Y00485
X00657Y00485
X00641
X00641Y00457
X00593Y00457
X00593Y00485
X00609
X00561
Y00524
X00577Y00552
X00558Y00429
X00545
X00532Y00445
X00515
X00497
X00478
Y00486
X00461Y00473
X00532Y00387
X00553Y00392
Y00372
X00773Y00439
X0086Y00387
Y0053
X01049Y00522
X01072Y00507
X01088Y00693
X01195Y0067
Y00789
X01244Y00994
Y01014
X01151Y01055
X01101
X01067
X01007Y01083
X00981Y01004
X00915Y01044
X00902Y01062
X00894
X0087Y01024
X00837Y01007
X0084775Y009625
X00603Y00783
X0049325Y0081225
X00452Y00783
X00314Y00785
Y00797
Y0081
Y00823
X00288
X00275
X00262
X00249
X00205
X00192
X00179
X00166
Y0081
Y00797
Y00785
Y00774
X00288
Y00785
Y00797
Y0081
X0023Y01004
X00185Y01055
X00146
X00106
X00126Y011
X00255Y01083
X00257Y0116
X00332Y01046
X00348Y01025
X00357
X00025Y01538
X00161Y0132
X00206
Y01283
X00181Y01266
X00173069Y01266
X00165Y01266
X0015275Y01252
X00238Y01266
X01012
X01061
X01069
X01077
X0109775Y0127975
X01089Y01212
X01045
X01225Y0137
X0109Y01588
X01044
X01045Y01625
X01068Y01642
X01077
X01086
X01098Y01656
X01012Y01642
X00993Y01716
X00995Y01793
Y0182
X01007
X01009Y01882
X01065Y01813
X01104
X01144
X01124Y01777
X00911Y01818
Y01839
X00334Y01813
Y01792
X00243
X00185Y01814
X00146Y01813
X00106Y01814
X00161Y01696
X00206
X00187Y01642
X0018
X00173
X00153Y01628
X00238Y01642
X0027Y01871
T02
X00926Y000907
X00934
X00942
X00938Y000978
X0093
X00922
X00946
X00954
X00962
X0097
X00978
X00974Y000907
X00966
X00958
T05
X0088Y0032
Y0034
X0084
Y0032
X008
Y0034
X0076
Y0032
X00282Y003204
Y003458
Y00295
X0029Y00055
X0027
X0031
X0033
X00936Y006946
Y0072
Y007454
T06
X00172Y00055
X004Y002825
Y003175
X00364Y00427
X00319
X00274
X006Y00589
X0065
X0078
X008
X0082
X0084
X0086
X00933
X01134Y0055
Y0053
Y0051
X01159
Y0053
Y0055
X01169Y0094
X01065Y00962
X0104
X01015
X0099
X0094
X00915
X0089
X00919Y01083
X00948
X006425Y00988
X006075
X0036Y00936
X00335
X0031
X0026
X00235
X0021
X00185
X00304Y01083
X00331
X0087Y01744
Y01793
X0089Y01926
X00915
X0094
X0099
X01015
X0104
X01065
X006425Y019
X006075
X0036
X00335
X0031
X0026
X00235
X0021
X00185
X0038Y01793
Y01744
T07
X01083Y0033
X01228
Y00355
Y0038
X01083
X01055Y006473
Y006727
Y007673
Y007927
X008505Y01078
X007755
X004745Y01078
X00575Y00847
X00625Y00885
X00675Y00847
X003995Y01078
Y01266
Y01454
X002865Y0136
X002115
Y01172
X002865
Y01548
X002115
X004745Y01454
Y01266
X005875Y01172
X006625
Y0136
X005875
Y01548
X006625
X007755Y01454
Y01266
X008505
Y01454
X009635Y0136
X010385
Y01172
X009635
Y01548
X010385
Y01736
X009635
X008505Y01642
X007755
X006625Y01736
X005875
X004745Y01642
X003995
X002865Y01736
X002115
T09
X001095Y00299
Y00341
X000545
Y00299
T10
X004996Y000246
Y000754
X005504
Y000246
X00525Y0005
X006996Y000754
X007504
Y000246
X006996
X00725Y0005
T11
X000459Y005419
Y005673
Y005927
Y006181
Y007359
Y007613
X000713
X000967
Y007359
X000713
X001221
Y007613
Y006181
Y005927
Y005673
Y005419
X000967
X000713
Y005673
Y005927
Y006181
X000967
Y005927
Y005673
Y007867
X000713
Y008121
X000967
X001221
Y007867
X000459
Y008121
X00044Y012115
Y01266
Y013205
X000459Y014119
Y014373
Y014627
Y014881
X000713
Y014627
Y014373
X000967
Y014627
Y014881
X001221
Y014627
Y014373
Y014119
X000967
X000713
X00083Y013205
Y01266
Y012115
X01167Y012115
X01206
Y01266
X01167
Y013205
X01206
X012041Y014119
Y014373
Y014627
Y014881
X011787
X011533
X011279
Y014627
Y014373
Y014119
X011533
X011787
Y014373
Y014627
X011533
Y014373
X01167Y015875
X01206
Y01642
X01167
Y016965
X01206
X00083
Y01642
Y015875
X00044Y015875
Y01642
Y016965
T12
X01002Y00188
X012Y0005
X00248Y00188
X0005Y0005
X00248Y00502
X01002
X012Y0195
X0005
T13
X00345Y00072
M30
