G04 Layer_Color=8388736*
%FSLAX44Y44*%
%MOMM*%
G71*
G01*
G75*
%ADD37R,1.4000X1.4000*%
%ADD43C,1.7000*%
%ADD44C,1.5000*%
%ADD45R,1.5000X1.5000*%
%ADD47C,1.4000*%
%ADD52C,1.6000*%
%ADD55R,2.3000X2.3000*%
%ADD56C,2.3000*%
%ADD60R,1.3000X1.3000*%
%ADD61C,1.3000*%
%ADD107R,0.3000X1.1000*%
%ADD108O,0.4000X1.3000*%
%ADD109R,0.4000X1.3000*%
G04:AMPARAMS|DCode=110|XSize=0.9mm|YSize=1mm|CornerRadius=0.25mm|HoleSize=0mm|Usage=FLASHONLY|Rotation=270.000|XOffset=0mm|YOffset=0mm|HoleType=Round|Shape=RoundedRectangle|*
%AMROUNDEDRECTD110*
21,1,0.9000,0.5000,0,0,270.0*
21,1,0.4000,1.0000,0,0,270.0*
1,1,0.5000,-0.2500,-0.2000*
1,1,0.5000,-0.2500,0.2000*
1,1,0.5000,0.2500,0.2000*
1,1,0.5000,0.2500,-0.2000*
%
%ADD110ROUNDEDRECTD110*%
G04:AMPARAMS|DCode=111|XSize=2.2mm|YSize=1.3mm|CornerRadius=0.35mm|HoleSize=0mm|Usage=FLASHONLY|Rotation=180.000|XOffset=0mm|YOffset=0mm|HoleType=Round|Shape=RoundedRectangle|*
%AMROUNDEDRECTD111*
21,1,2.2000,0.6000,0,0,180.0*
21,1,1.5000,1.3000,0,0,180.0*
1,1,0.7000,-0.7500,0.3000*
1,1,0.7000,0.7500,0.3000*
1,1,0.7000,0.7500,-0.3000*
1,1,0.7000,-0.7500,-0.3000*
%
%ADD111ROUNDEDRECTD111*%
%ADD112O,1.3000X0.3500*%
%ADD113O,0.3500X1.3000*%
%ADD114R,0.3500X1.3000*%
G04:AMPARAMS|DCode=115|XSize=4.9mm|YSize=1.3mm|CornerRadius=0.242mm|HoleSize=0mm|Usage=FLASHONLY|Rotation=180.000|XOffset=0mm|YOffset=0mm|HoleType=Round|Shape=RoundedRectangle|*
%AMROUNDEDRECTD115*
21,1,4.9000,0.8160,0,0,180.0*
21,1,4.4160,1.3000,0,0,180.0*
1,1,0.4840,-2.2080,0.4080*
1,1,0.4840,2.2080,0.4080*
1,1,0.4840,2.2080,-0.4080*
1,1,0.4840,-2.2080,-0.4080*
%
%ADD115ROUNDEDRECTD115*%
G04:AMPARAMS|DCode=116|XSize=1mm|YSize=1mm|CornerRadius=0.2795mm|HoleSize=0mm|Usage=FLASHONLY|Rotation=180.000|XOffset=0mm|YOffset=0mm|HoleType=Round|Shape=RoundedRectangle|*
%AMROUNDEDRECTD116*
21,1,1.0000,0.4410,0,0,180.0*
21,1,0.4410,1.0000,0,0,180.0*
1,1,0.5590,-0.2205,0.2205*
1,1,0.5590,0.2205,0.2205*
1,1,0.5590,0.2205,-0.2205*
1,1,0.5590,-0.2205,-0.2205*
%
%ADD116ROUNDEDRECTD116*%
G04:AMPARAMS|DCode=117|XSize=2.2mm|YSize=1.3mm|CornerRadius=0.35mm|HoleSize=0mm|Usage=FLASHONLY|Rotation=90.000|XOffset=0mm|YOffset=0mm|HoleType=Round|Shape=RoundedRectangle|*
%AMROUNDEDRECTD117*
21,1,2.2000,0.6000,0,0,90.0*
21,1,1.5000,1.3000,0,0,90.0*
1,1,0.7000,0.3000,0.7500*
1,1,0.7000,0.3000,-0.7500*
1,1,0.7000,-0.3000,-0.7500*
1,1,0.7000,-0.3000,0.7500*
%
%ADD117ROUNDEDRECTD117*%
%ADD118R,0.6000X1.1000*%
%ADD119O,0.6000X1.1000*%
G04:AMPARAMS|DCode=120|XSize=1mm|YSize=1mm|CornerRadius=0.2795mm|HoleSize=0mm|Usage=FLASHONLY|Rotation=270.000|XOffset=0mm|YOffset=0mm|HoleType=Round|Shape=RoundedRectangle|*
%AMROUNDEDRECTD120*
21,1,1.0000,0.4410,0,0,270.0*
21,1,0.4410,1.0000,0,0,270.0*
1,1,0.5590,-0.2205,-0.2205*
1,1,0.5590,-0.2205,0.2205*
1,1,0.5590,0.2205,0.2205*
1,1,0.5590,0.2205,-0.2205*
%
%ADD120ROUNDEDRECTD120*%
G04:AMPARAMS|DCode=121|XSize=1.1mm|YSize=1.4mm|CornerRadius=0.305mm|HoleSize=0mm|Usage=FLASHONLY|Rotation=90.000|XOffset=0mm|YOffset=0mm|HoleType=Round|Shape=RoundedRectangle|*
%AMROUNDEDRECTD121*
21,1,1.1000,0.7900,0,0,90.0*
21,1,0.4900,1.4000,0,0,90.0*
1,1,0.6100,0.3950,0.2450*
1,1,0.6100,0.3950,-0.2450*
1,1,0.6100,-0.3950,-0.2450*
1,1,0.6100,-0.3950,0.2450*
%
%ADD121ROUNDEDRECTD121*%
G04:AMPARAMS|DCode=122|XSize=2.8mm|YSize=8.1mm|CornerRadius=0.401mm|HoleSize=0mm|Usage=FLASHONLY|Rotation=0.000|XOffset=0mm|YOffset=0mm|HoleType=Round|Shape=RoundedRectangle|*
%AMROUNDEDRECTD122*
21,1,2.8000,7.2980,0,0,0.0*
21,1,1.9980,8.1000,0,0,0.0*
1,1,0.8020,0.9990,-3.6490*
1,1,0.8020,-0.9990,-3.6490*
1,1,0.8020,-0.9990,3.6490*
1,1,0.8020,0.9990,3.6490*
%
%ADD122ROUNDEDRECTD122*%
G04:AMPARAMS|DCode=123|XSize=0.9mm|YSize=0.5mm|CornerRadius=0.15mm|HoleSize=0mm|Usage=FLASHONLY|Rotation=270.000|XOffset=0mm|YOffset=0mm|HoleType=Round|Shape=RoundedRectangle|*
%AMROUNDEDRECTD123*
21,1,0.9000,0.2000,0,0,270.0*
21,1,0.6000,0.5000,0,0,270.0*
1,1,0.3000,-0.1000,-0.3000*
1,1,0.3000,-0.1000,0.3000*
1,1,0.3000,0.1000,0.3000*
1,1,0.3000,0.1000,-0.3000*
%
%ADD123ROUNDEDRECTD123*%
G04:AMPARAMS|DCode=124|XSize=1.4mm|YSize=3.2mm|CornerRadius=0.3295mm|HoleSize=0mm|Usage=FLASHONLY|Rotation=270.000|XOffset=0mm|YOffset=0mm|HoleType=Round|Shape=RoundedRectangle|*
%AMROUNDEDRECTD124*
21,1,1.4000,2.5410,0,0,270.0*
21,1,0.7410,3.2000,0,0,270.0*
1,1,0.6590,-1.2705,-0.3705*
1,1,0.6590,-1.2705,0.3705*
1,1,0.6590,1.2705,0.3705*
1,1,0.6590,1.2705,-0.3705*
%
%ADD124ROUNDEDRECTD124*%
G04:AMPARAMS|DCode=125|XSize=1.4mm|YSize=3.4mm|CornerRadius=0.31mm|HoleSize=0mm|Usage=FLASHONLY|Rotation=0.000|XOffset=0mm|YOffset=0mm|HoleType=Round|Shape=RoundedRectangle|*
%AMROUNDEDRECTD125*
21,1,1.4000,2.7800,0,0,0.0*
21,1,0.7800,3.4000,0,0,0.0*
1,1,0.6200,0.3900,-1.3900*
1,1,0.6200,-0.3900,-1.3900*
1,1,0.6200,-0.3900,1.3900*
1,1,0.6200,0.3900,1.3900*
%
%ADD125ROUNDEDRECTD125*%
G04:AMPARAMS|DCode=126|XSize=1mm|YSize=1mm|CornerRadius=0.2795mm|HoleSize=0mm|Usage=FLASHONLY|Rotation=45.000|XOffset=0mm|YOffset=0mm|HoleType=Round|Shape=RoundedRectangle|*
%AMROUNDEDRECTD126*
21,1,1.0000,0.4410,0,0,45.0*
21,1,0.4410,1.0000,0,0,45.0*
1,1,0.5590,0.3118,0.0000*
1,1,0.5590,0.0000,-0.3118*
1,1,0.5590,-0.3118,0.0000*
1,1,0.5590,0.0000,0.3118*
%
%ADD126ROUNDEDRECTD126*%
%ADD127R,1.5000X1.5000*%
%ADD128C,2.1000*%
%ADD129C,0.7000*%
%ADD130O,1.3000X2.1000*%
%ADD131O,5.1000X3.3000*%
%ADD132C,1.8000*%
%ADD133R,1.6000X1.6000*%
%ADD134O,2.1000X1.3000*%
%ADD135R,1.8000X1.8000*%
%ADD136R,1.2800X1.2800*%
%ADD137C,1.2800*%
%ADD138R,1.3000X1.3000*%
%ADD139R,4.6000X3.1000*%
G04:AMPARAMS|DCode=140|XSize=3.1mm|YSize=4.6mm|CornerRadius=1.25mm|HoleSize=0mm|Usage=FLASHONLY|Rotation=270.000|XOffset=0mm|YOffset=0mm|HoleType=Round|Shape=RoundedRectangle|*
%AMROUNDEDRECTD140*
21,1,3.1000,2.1000,0,0,270.0*
21,1,0.6000,4.6000,0,0,270.0*
1,1,2.5000,-1.0500,-0.3000*
1,1,2.5000,-1.0500,0.3000*
1,1,2.5000,1.0500,0.3000*
1,1,2.5000,1.0500,-0.3000*
%
%ADD140ROUNDEDRECTD140*%
%ADD141C,4.6000*%
%ADD142R,2.1000X2.1000*%
%ADD143C,4.1000*%
G36*
X52000Y90000D02*
X54556Y89934D01*
X59608Y89137D01*
X64512Y87687D01*
X69185Y85610D01*
X73547Y82940D01*
X77523Y79724D01*
X81046Y76016D01*
X84054Y71880D01*
X86496Y67387D01*
X88332Y62614D01*
X89528Y57642D01*
X90065Y52556D01*
X90000Y50000D01*
X90000Y50000D01*
X90000Y0D01*
X50000D01*
X46723Y-0D01*
X40224Y855D01*
X33893Y2552D01*
X27838Y5060D01*
X22162Y8337D01*
X16962Y12327D01*
X12327Y16962D01*
X8337Y22162D01*
X5060Y27838D01*
X2552Y33893D01*
X856Y40224D01*
X-0Y46723D01*
X0Y50000D01*
Y50000D01*
Y90000D01*
X52000Y90000D01*
D02*
G37*
D37*
X330000Y55000D02*
D03*
D43*
X650000Y589000D02*
D03*
X600000D02*
D03*
X675000Y847000D02*
D03*
X575000D02*
D03*
X625000Y885000D02*
D03*
D44*
X880000Y340000D02*
D03*
X840000D02*
D03*
X800000D02*
D03*
X760000D02*
D03*
X800000Y589000D02*
D03*
X840000D02*
D03*
X820000D02*
D03*
X780000D02*
D03*
D45*
X880000Y320000D02*
D03*
X840000D02*
D03*
X800000D02*
D03*
X760000D02*
D03*
D47*
X310000Y55000D02*
D03*
X290000D02*
D03*
X270000D02*
D03*
D52*
X1159000Y510000D02*
D03*
Y530000D02*
D03*
Y550000D02*
D03*
X1134000Y530000D02*
D03*
Y550000D02*
D03*
X915000Y1926000D02*
D03*
X940000D02*
D03*
X990000D02*
D03*
X1015000D02*
D03*
X1040000D02*
D03*
X1065000D02*
D03*
X915000Y962000D02*
D03*
X940000D02*
D03*
X990000D02*
D03*
X1015000D02*
D03*
X1040000D02*
D03*
X1065000D02*
D03*
X335000Y1900000D02*
D03*
X310000D02*
D03*
X260000D02*
D03*
X235000D02*
D03*
X210000D02*
D03*
X185000D02*
D03*
X335000Y936000D02*
D03*
X310000D02*
D03*
X260000D02*
D03*
X235000D02*
D03*
X210000D02*
D03*
X185000D02*
D03*
D55*
X109500Y341000D02*
D03*
D56*
X750400Y75400D02*
D03*
X699600D02*
D03*
Y24600D02*
D03*
X750400D02*
D03*
X725000Y50000D02*
D03*
X550400Y75400D02*
D03*
X499600D02*
D03*
Y24600D02*
D03*
X550400D02*
D03*
X525000Y50000D02*
D03*
X109500Y299000D02*
D03*
X54500Y341000D02*
D03*
Y299000D02*
D03*
D60*
X607500Y1900000D02*
D03*
Y988000D02*
D03*
D61*
X642500Y1900000D02*
D03*
Y988000D02*
D03*
X400000Y317500D02*
D03*
D107*
X950000Y33500D02*
D03*
Y64500D02*
D03*
D108*
X977500Y111300D02*
D03*
X972500D02*
D03*
X967500D02*
D03*
X962500D02*
D03*
X957500D02*
D03*
X952500D02*
D03*
X947500D02*
D03*
X942500D02*
D03*
X937500D02*
D03*
X932500D02*
D03*
X927500D02*
D03*
D109*
X922500D02*
D03*
D110*
X1064995Y57500D02*
D03*
Y72500D02*
D03*
X1034995Y57500D02*
D03*
Y72500D02*
D03*
X867000D02*
D03*
Y57500D02*
D03*
X834000Y72500D02*
D03*
Y57500D02*
D03*
X421000D02*
D03*
Y72500D02*
D03*
X625000Y57500D02*
D03*
Y72500D02*
D03*
D111*
X1107500Y204500D02*
D03*
X1198500D02*
D03*
X1107500Y159500D02*
D03*
X1198500D02*
D03*
D112*
X568000Y317500D02*
D03*
Y322500D02*
D03*
Y327500D02*
D03*
Y332500D02*
D03*
Y337500D02*
D03*
Y342500D02*
D03*
Y347500D02*
D03*
Y352500D02*
D03*
Y357500D02*
D03*
Y362500D02*
D03*
Y367500D02*
D03*
Y372500D02*
D03*
Y377500D02*
D03*
Y382500D02*
D03*
Y387500D02*
D03*
Y392500D02*
D03*
X682000D02*
D03*
Y387500D02*
D03*
Y382500D02*
D03*
Y377500D02*
D03*
Y372500D02*
D03*
Y367500D02*
D03*
Y362500D02*
D03*
Y357500D02*
D03*
Y352500D02*
D03*
Y347500D02*
D03*
Y342500D02*
D03*
Y337500D02*
D03*
Y332500D02*
D03*
Y327500D02*
D03*
Y322500D02*
D03*
Y317500D02*
D03*
D113*
X587500Y412000D02*
D03*
X592500D02*
D03*
X597500D02*
D03*
X602500D02*
D03*
X607500D02*
D03*
X612500D02*
D03*
X617500D02*
D03*
X622500D02*
D03*
X627500D02*
D03*
X632500D02*
D03*
X637500D02*
D03*
X642500D02*
D03*
X647500D02*
D03*
X652500D02*
D03*
X657500D02*
D03*
X662500D02*
D03*
Y298000D02*
D03*
X657500D02*
D03*
X652500D02*
D03*
X647500D02*
D03*
X642500D02*
D03*
X637500D02*
D03*
X632500D02*
D03*
X627500D02*
D03*
X622500D02*
D03*
X617500D02*
D03*
X612500D02*
D03*
X607500D02*
D03*
X602500D02*
D03*
X597500D02*
D03*
X592500D02*
D03*
D114*
X587500D02*
D03*
D115*
X578700Y227000D02*
D03*
X671300D02*
D03*
D116*
X617000Y263000D02*
D03*
X633000D02*
D03*
X647000Y187000D02*
D03*
X663000D02*
D03*
X587000D02*
D03*
X603000D02*
D03*
X219000Y635000D02*
D03*
X235000D02*
D03*
Y618000D02*
D03*
X219000D02*
D03*
D117*
X797500Y765500D02*
D03*
Y674500D02*
D03*
X752500Y765500D02*
D03*
Y674500D02*
D03*
X647500Y765500D02*
D03*
Y674500D02*
D03*
X602500Y765500D02*
D03*
Y674500D02*
D03*
X497500Y765500D02*
D03*
Y674500D02*
D03*
X452500Y765500D02*
D03*
Y674500D02*
D03*
D118*
X236500Y592500D02*
D03*
D119*
X227000D02*
D03*
X217500D02*
D03*
Y567500D02*
D03*
X236500D02*
D03*
D120*
X266000Y572000D02*
D03*
Y588000D02*
D03*
X250000D02*
D03*
Y572000D02*
D03*
X204000D02*
D03*
Y588000D02*
D03*
X188000Y572000D02*
D03*
Y588000D02*
D03*
X262000Y666000D02*
D03*
Y682000D02*
D03*
D121*
X192000Y684000D02*
D03*
Y664000D02*
D03*
D122*
X262000Y774000D02*
D03*
X192000D02*
D03*
D123*
X1119000Y1288000D02*
D03*
Y1310000D02*
D03*
Y1664000D02*
D03*
Y1686000D02*
D03*
X131000Y1244000D02*
D03*
Y1222000D02*
D03*
Y1620000D02*
D03*
Y1598000D02*
D03*
D124*
X1121000Y1194500D02*
D03*
Y1236500D02*
D03*
Y1571000D02*
D03*
Y1613000D02*
D03*
X129000Y1337000D02*
D03*
Y1295000D02*
D03*
Y1713000D02*
D03*
Y1671000D02*
D03*
D125*
X1210000Y1167000D02*
D03*
X1148000D02*
D03*
X1210000Y1543000D02*
D03*
X1148000D02*
D03*
X40000Y1741000D02*
D03*
X102000D02*
D03*
X40000Y1365000D02*
D03*
X102000D02*
D03*
D126*
X95657Y110657D02*
D03*
X84343Y99343D02*
D03*
X110657Y95657D02*
D03*
X99343Y84343D02*
D03*
D127*
X304000Y1083000D02*
D03*
X380000Y1793000D02*
D03*
X331000Y1083000D02*
D03*
X380000Y1744000D02*
D03*
X870000D02*
D03*
X919000Y1083000D02*
D03*
X870000Y1793000D02*
D03*
X948000Y1083000D02*
D03*
X933000Y589000D02*
D03*
X172000Y55000D02*
D03*
X1169000Y940000D02*
D03*
X274000Y427000D02*
D03*
X319000D02*
D03*
X364000D02*
D03*
X860000Y589000D02*
D03*
D128*
X122100Y618100D02*
D03*
Y567300D02*
D03*
Y592700D02*
D03*
X96700Y541900D02*
D03*
X122100D02*
D03*
X71300D02*
D03*
X45900Y567300D02*
D03*
Y541900D02*
D03*
Y592700D02*
D03*
Y618100D02*
D03*
X71300D02*
D03*
X96700D02*
D03*
X71300Y592700D02*
D03*
X96700D02*
D03*
X71300Y567300D02*
D03*
X96700D02*
D03*
X96700Y1437300D02*
D03*
X71300D02*
D03*
X96700Y1462700D02*
D03*
X71300D02*
D03*
X96700Y1488100D02*
D03*
X71300D02*
D03*
X45900D02*
D03*
Y1462700D02*
D03*
Y1411900D02*
D03*
Y1437300D02*
D03*
X71300Y1411900D02*
D03*
X122100D02*
D03*
X96700D02*
D03*
X122100Y1462700D02*
D03*
Y1437300D02*
D03*
Y1488100D02*
D03*
X1204100D02*
D03*
Y1437300D02*
D03*
Y1462700D02*
D03*
X1178700Y1411900D02*
D03*
X1204100D02*
D03*
X1153300D02*
D03*
X1127900Y1437300D02*
D03*
Y1411900D02*
D03*
Y1462700D02*
D03*
Y1488100D02*
D03*
X1153300D02*
D03*
X1178700D02*
D03*
X1153300Y1462700D02*
D03*
X1178700D02*
D03*
X1153300Y1437300D02*
D03*
X1178700D02*
D03*
X96700Y761300D02*
D03*
X71300D02*
D03*
X96700Y786700D02*
D03*
X71300D02*
D03*
X96700Y812100D02*
D03*
X71300D02*
D03*
X45900D02*
D03*
Y786700D02*
D03*
Y735900D02*
D03*
Y761300D02*
D03*
X71300Y735900D02*
D03*
X122100D02*
D03*
X96700D02*
D03*
X122100Y786700D02*
D03*
Y761300D02*
D03*
Y812100D02*
D03*
X1038500Y1172000D02*
D03*
Y1360000D02*
D03*
Y1548000D02*
D03*
Y1736000D02*
D03*
X850500Y1078000D02*
D03*
Y1266000D02*
D03*
Y1454000D02*
D03*
Y1642000D02*
D03*
X662500Y1172000D02*
D03*
Y1360000D02*
D03*
Y1548000D02*
D03*
Y1736000D02*
D03*
X474500Y1078000D02*
D03*
Y1266000D02*
D03*
Y1454000D02*
D03*
Y1642000D02*
D03*
X286500Y1172000D02*
D03*
Y1360000D02*
D03*
Y1548000D02*
D03*
Y1736000D02*
D03*
D129*
X970000Y97800D02*
D03*
X930000D02*
D03*
X922000D02*
D03*
X926000Y90700D02*
D03*
X934000D02*
D03*
X938000Y97800D02*
D03*
X942000Y90700D02*
D03*
X946000Y97800D02*
D03*
X954000D02*
D03*
X958000Y90700D02*
D03*
X962000Y97800D02*
D03*
X966000Y90700D02*
D03*
X974000D02*
D03*
X978000Y97800D02*
D03*
D130*
X992700Y39000D02*
D03*
X907300D02*
D03*
X992700Y86300D02*
D03*
X907300D02*
D03*
D131*
X1153000Y414000D02*
D03*
Y296000D02*
D03*
D132*
X1228000Y380000D02*
D03*
Y355000D02*
D03*
Y330000D02*
D03*
X1083000Y380000D02*
D03*
Y330000D02*
D03*
X1055000Y767300D02*
D03*
Y647300D02*
D03*
D133*
X1134000Y510000D02*
D03*
X890000Y1926000D02*
D03*
Y962000D02*
D03*
X360000Y1900000D02*
D03*
Y936000D02*
D03*
D134*
X1146500Y480000D02*
D03*
Y580000D02*
D03*
D135*
X1055000Y792700D02*
D03*
Y672700D02*
D03*
D136*
X936000Y745400D02*
D03*
X282000Y345800D02*
D03*
D137*
X936000Y720000D02*
D03*
Y694600D02*
D03*
X282000Y320400D02*
D03*
Y295000D02*
D03*
D138*
X400000Y282500D02*
D03*
D139*
X1167000Y1696500D02*
D03*
X1206000D02*
D03*
X44000Y1587500D02*
D03*
X83000Y1211500D02*
D03*
X1167000Y1320500D02*
D03*
X1206000D02*
D03*
X44000Y1211500D02*
D03*
X83000Y1587500D02*
D03*
D140*
X1167000Y1642000D02*
D03*
Y1587500D02*
D03*
X1206000Y1642000D02*
D03*
Y1587500D02*
D03*
X44000Y1642000D02*
D03*
Y1696500D02*
D03*
X83000Y1266000D02*
D03*
Y1320500D02*
D03*
X1167000Y1211500D02*
D03*
Y1266000D02*
D03*
X1206000Y1211500D02*
D03*
Y1266000D02*
D03*
X44000Y1320500D02*
D03*
Y1266000D02*
D03*
X83000Y1696500D02*
D03*
Y1642000D02*
D03*
D141*
X1200000Y50000D02*
D03*
X50000Y1950000D02*
D03*
Y50000D02*
D03*
X1200000Y1950000D02*
D03*
D142*
X963500Y1172000D02*
D03*
Y1360000D02*
D03*
Y1548000D02*
D03*
Y1736000D02*
D03*
X775500Y1078000D02*
D03*
Y1266000D02*
D03*
Y1454000D02*
D03*
Y1642000D02*
D03*
X587500Y1172000D02*
D03*
Y1360000D02*
D03*
Y1548000D02*
D03*
Y1736000D02*
D03*
X399500Y1078000D02*
D03*
Y1266000D02*
D03*
Y1454000D02*
D03*
Y1642000D02*
D03*
X211500Y1172000D02*
D03*
Y1360000D02*
D03*
Y1548000D02*
D03*
Y1736000D02*
D03*
D143*
X1002000Y188000D02*
D03*
Y502000D02*
D03*
X248000D02*
D03*
Y188000D02*
D03*
M02*
